<?xml version="1.0" encoding="utf-8"?>
<!-- Generator: Adobe Illustrator 24.1.2, SVG Export Plug-In . SVG Version: 6.00 Build 0)  -->
<svg version="1.1" id="Layer_1" xmlns="http://www.w3.org/2000/svg" xmlns:xlink="http://www.w3.org/1999/xlink" x="0px" y="0px"
	 viewBox="0 0 1000 500" style="enable-background:new 0 0 1000 500;" xml:space="preserve">
<style type="text/css">
	.st0{fill:#FFFFFF;}
</style>
<g>
	<g>
		<path class="st0" d="M142.8,364.2c0,0,6.4-15.3-26.5-29c-13.4-5.5-18.1-21.3-20-34.4c-2.8-18.8-0.2-37.1,1.5-55.8
			c2.2-24.5-5.8-50.3-22.5-68.6c1.8,2,5.3,3.4,7.5,5.1c5.9,4.5,11.3,9.8,15.8,15.8c14.1,18.5,15.4,41.6,12.9,64
			c-2.1,18.9-4.6,34.8,6.7,51.5c6.3,9.4,14.9,17.1,23.3,24.7c8.5,7.6,15.1,12.3,11.3,24.6c-4.5,15,12.6,41.5,12.6,41.5l-49.5,7.7
			L142.8,364.2z"/>
		<path d="M112.8,413.3l28.5-49.8c0.4-1.1,3.9-14.5-25.6-26.8c-11.1-4.6-18.2-16.6-21-35.7c-2.4-16.1-0.8-32.1,0.7-47.6
			c0.3-2.9,0.6-5.7,0.8-8.6c2.2-24.6-6.1-49.8-22.1-67.4l0,0l2.4-2.2v0c0.9,1,2.5,1.9,4.1,2.8c1.1,0.6,2.3,1.3,3.2,2
			c6.2,4.7,11.6,10.1,16.2,16.1c12.2,16,16.4,36.8,13.2,65.2l-0.3,2.5c-2,17.4-3.7,32.4,6.8,47.8c6.3,9.3,14.8,17,23,24.4l1.9,1.7
			c7.6,6.8,13.7,12.2,9.9,24.6c-4.3,14.1,12.2,39.8,12.4,40.1l1.4,2.1L112.8,413.3z M83.5,184c12,17.4,17.9,39.5,16,61.1
			c-0.3,2.9-0.5,5.7-0.8,8.6c-1.6,16-3,31.1-0.7,46.8c2.7,18.1,8.9,28.9,19,33.1c14,5.8,22.9,12.7,26.4,20.5
			c2.8,6.1,1,10.5,0.9,10.7l-0.1,0.2L119,409l43.7-6.8c-4-6.7-15.4-27.5-11.4-40.7c3.2-10.4-1.4-14.5-8.9-21.2l-1.9-1.7
			c-8.4-7.6-17-15.4-23.5-25c-11.1-16.5-9.3-32-7.3-50l0.3-2.5c3.1-27.6-0.9-47.6-12.6-62.9C93.5,193,88.8,188.3,83.5,184z"/>
	</g>
	<g>
		<path class="st0" d="M148.9,392.5c0,0-44-36.1-15.8-95.3s56.4-71.1,40.1-111.7s-33.3-68.3,13-101.6c0,0-24.8,42.3-6.2,76.2
			s23.1,43.5,9,69.7s-72.2,79.7-28.5,148.3l15,17.2L148.9,392.5z"/>
		<path d="M175.4,396.9c-0.1,0-0.1,0-0.2,0l-26.5-2.8c-0.3,0-0.6-0.2-0.9-0.4c-0.4-0.4-44.7-37.6-16.2-97.3
			c9.2-19.4,18.6-34,26.1-45.6c15.9-24.6,24.6-38.1,13.9-64.7c-1.4-3.4-2.7-6.7-4.1-9.9c-14.5-34.8-25.9-62.3,17.6-93.6
			c0.6-0.4,1.5-0.4,2.1,0.1c0.6,0.5,0.7,1.4,0.3,2c-0.2,0.4-24.1,41.9-6.2,74.5c19,34.5,23.4,44.7,9,71.3
			c-2.6,4.8-6.6,10.4-11.1,16.9c-21,29.7-52.7,74.5-17.4,129.8l14.8,17c0.4,0.5,0.5,1.2,0.2,1.8C176.6,396.6,176,396.9,175.4,396.9z
			 M149.6,390.9l21.9,2.3l-12.2-14.1c-36.6-57.4-2.8-105.1,17.4-133.6c4.5-6.4,8.4-11.9,10.9-16.5c13.6-25.2,9.7-34.2-9-68.1
			c-14.7-26.7-3.3-58,2.9-71.3c-34.6,27.9-24.5,52.3-10.8,85.4c1.3,3.2,2.7,6.5,4.1,9.9c11.3,28.2,1.8,43.1-14.1,67.7
			c-7.5,11.6-16.8,26.1-25.9,45.3c-14.3,30-9.3,53.8-2.7,68.5C138.4,380.6,147.6,389.2,149.6,390.9z"/>
	</g>
	<g>
		<path class="st0" d="M191.2,372.1c0,0-51.9-48.5-15.8-86.9s55.8-39.8,55.8-77.4s0.7-54.6,26.3-69.8c-11.1,6.6-22.4,7.5-31.8,18.2
			c-12.4,14.1-9.7,32.7-11.5,50c-2.1,19.5-14.5,32.3-29.3,44.1c-38.9,31-59.8,51.3-35.5,165.9L191.2,372.1z"/>
		<path d="M149.4,417.8c-0.1,0-0.3,0-0.4-0.1c-0.6-0.2-1-0.6-1.2-1.2c-24-113.4-4.1-135.4,36.1-167.5c15.8-12.6,26.8-24.7,28.7-43
			c0.4-3.9,0.6-8.1,0.8-12.1c0.6-13.5,1.2-27.5,11.1-38.8c6.3-7.2,13.6-10.2,20.7-13.1c3.8-1.6,7.7-3.2,11.5-5.4
			c0.8-0.5,1.8-0.2,2.2,0.6c0.5,0.8,0.2,1.8-0.6,2.2l0,0c0,0,0,0,0,0c-24.5,14.6-25.5,30.5-25.5,68.4c0,27.2-10.2,36.1-28.7,52.4
			c-7.6,6.6-17,14.9-27.6,26.2c-8.5,9.1-12.7,19.5-12.3,31c0.9,27.9,27.8,53.3,28,53.5c0.3,0.3,0.5,0.7,0.5,1.1
			c0,0.4-0.1,0.9-0.4,1.2l-41.8,44C150.3,417.6,149.9,417.8,149.4,417.8z M244.2,146c-6.2,2.6-12,5.4-17.2,11.3
			c-9.1,10.4-9.7,23.2-10.3,36.8c-0.2,4-0.4,8.2-0.8,12.2c-2.2,20.5-15.7,33.8-29.9,45.2c-36.9,29.4-59.3,47.2-35.6,161.2l38.5-40.6
			c-5.4-5.4-27.1-28.6-27.9-54.7c-0.4-12.4,4-23.6,13.2-33.4c10.8-11.4,20.2-19.7,27.8-26.4c18.4-16.1,27.6-24.2,27.6-49.9
			C229.6,177.1,230.3,159.7,244.2,146z"/>
	</g>
	<g>
		<g>
			<path class="st0" d="M118,143c-1.3,2-2.4,3.9-3.1,5.7c-4.3,10.3-6.8,21.5-5.5,32.8c2.5,21.6,18.6,41.9,33.5,56.7
				c55.8,55.3,29.1,139.9,29.1,139.9s26.2,0,26.2,0c9,0,8-50,7.6-57.3c-1.7-28.1-11.6-55.6-27.1-79c-13.7-20.7-39.8-34.3-47.4-58.3
				c-6.3-19.5-4.8-41.1-1.3-60.9C129,128.3,122.4,136.1,118,143z"/>
			<path d="M198.3,379.7h-26.2c-0.5,0-1-0.2-1.3-0.7c-0.3-0.4-0.4-1-0.2-1.5c0.3-0.8,25.7-84.3-28.7-138.2
				c-20.5-20.3-31.9-39.7-34-57.7c-1.2-10.4,0.7-21.7,5.6-33.6c0.7-1.7,1.7-3.6,3.2-5.9l0,0c1.2-1.9,2.5-3.8,3.9-5.7
				c3.5-5.1,7.2-10.3,7.9-14.2l0,0l0,0c0.2-0.9,1-1.5,1.9-1.3c0.9,0.2,1.5,1,1.3,1.9c-4.4,24.7-4,43.8,1.3,60.2
				c4.4,13.9,15.6,24.6,26.4,34.9c7.5,7.1,15.2,14.5,20.8,23c16.3,24.5,25.7,52.2,27.4,79.9c0,0.5,2.1,49-5.9,57.5
				C200.4,379.4,199.1,379.7,198.3,379.7z M174.2,376.4h24.1c0.1,0,0.4,0,0.9-0.5c5.9-6.2,5.6-45.1,5-55
				c-1.6-27.1-10.9-54.2-26.8-78.2c-5.4-8.2-13-15.4-20.4-22.4c-11.1-10.6-22.6-21.6-27.3-36.2c-4.6-14.4-5.6-30.7-3.1-50.8
				c-1.1,1.7-2.3,3.4-3.5,5.1c-1.3,1.9-2.7,3.8-3.8,5.6l0,0c-1.4,2.2-2.3,3.9-3,5.4c-4.7,11.3-6.5,22.1-5.4,31.9
				c2,17.3,13.1,36,33.1,55.8C195.1,287.4,177.9,362.8,174.2,376.4z"/>
		</g>
	</g>
</g>
<g>
	<g>
		<path class="st0" d="M503.9,356.3c0,0,4-16.1-30.6-24.7c-14-3.5-21.1-18.4-25-31c-5.6-18.1-5.8-36.6-6.9-55.4
			c-1.5-24.5-13.4-48.9-32.6-64.4c2.1,1.7,5.8,2.6,8.2,3.9c6.5,3.6,12.7,8,18,13.2c16.7,16.2,21.5,38.8,22.4,61.4
			c0.8,19,0.8,35,14.4,49.9c7.7,8.3,17.3,14.7,26.7,20.9c9.5,6.3,16.8,9.9,14.9,22.6c-2.2,15.5,18.7,39.1,18.7,39.1l-47.8,15.1
			L503.9,356.3z"/>
		<path d="M481.6,409.4l20.7-53.6c0.2-1.2,1.7-14.9-29.4-22.6c-11.7-2.9-20.5-13.7-26.1-32.1c-4.8-15.5-5.7-31.6-6.5-47.1
			c-0.1-2.9-0.3-5.7-0.5-8.6c-1.5-24.6-13.5-48.3-32-63.3c0,0,0,0,0,0l2.1-2.6v0c1.1,0.9,2.8,1.5,4.5,2.2c1.2,0.5,2.4,0.9,3.5,1.5
			c6.8,3.8,13,8.3,18.4,13.5c14.5,14,21.8,33.8,22.9,62.5l0.1,2.6c0.7,17.5,1.2,32.5,13.9,46.2c7.6,8.2,17.2,14.6,26.4,20.7l2.1,1.4
			c8.6,5.6,15.4,10,13.5,22.8c-2.1,14.6,18.1,37.5,18.3,37.8l1.7,1.9L481.6,409.4z M418.1,187.1c14.5,15.4,23.6,36.3,25,58
			c0.2,2.9,0.3,5.8,0.5,8.6c0.9,16,1.7,31.2,6.4,46.4c5.4,17.5,13.1,27.3,23.8,29.9c14.8,3.6,24.6,9.1,29.2,16.2
			c3.7,5.6,2.6,10.2,2.5,10.4l-0.1,0.2l-18.3,47.3l42.2-13.3c-5-6-19.4-24.9-17.4-38.5c1.6-10.7-3.5-14.1-12-19.6l-2.1-1.4
			c-9.4-6.2-19.1-12.6-27-21.2c-13.5-14.6-14.1-30.2-14.8-48.4l-0.1-2.5c-1.1-27.7-8.1-46.9-21.9-60.2
			C429.3,194.5,424,190.5,418.1,187.1z"/>
	</g>
	<g>
		<path class="st0" d="M486.8,387.1c0,0-40.8-39.7-7.7-96.3s62.2-66.1,49.3-107.9C515.5,140.9,501,112,549.9,82.7
			c0,0-28.3,40.1-12.6,75.4c15.7,35.3,19.4,45.3,3.1,70.2s-78.7,73.4-40.9,145.4l13.5,18.4L486.8,387.1z"/>
		<path d="M512.9,393.8c-0.1,0-0.1,0-0.2,0l-26.2-5c-0.3-0.1-0.6-0.2-0.8-0.4c-0.4-0.4-41.3-41.2-8-98.3
			c10.8-18.6,21.4-32.3,29.9-43.3c17.9-23.2,27.7-35.9,19.3-63.3c-1.1-3.5-2.2-6.9-3.2-10.2c-11.5-35.9-20.5-64.3,25.4-91.8
			c0.7-0.4,1.5-0.3,2,0.3c0.5,0.6,0.6,1.4,0.1,2.1c-0.3,0.4-27.6,39.7-12.4,73.7c16,36,19.5,46.5,3,71.8c-3,4.6-7.4,9.8-12.5,15.9
			c-23.4,27.8-58.8,69.8-28.3,127.8l13.3,18.2c0.4,0.5,0.4,1.3,0.1,1.9C514.1,393.5,513.5,393.8,512.9,393.8z M487.6,385.6l21.6,4.2
			l-11-15.1c-31.6-60.2,6-105,28.5-131.7c5-6,9.4-11.2,12.3-15.6c15.6-24,12.5-33.2-3.3-68.7c-12.4-27.9,1.6-58,8.9-70.8
			c-36.8,24.9-28.8,50-17.9,84.2c1.1,3.3,2.1,6.7,3.2,10.2c8.9,29-1.9,43.1-19.8,66.3c-8.4,10.9-18.9,24.6-29.7,42.9
			c-16.8,28.7-13.8,52.9-8.4,68C477.4,374.4,485.9,383.7,487.6,385.6z"/>
	</g>
	<g>
		<path class="st0" d="M553.9,368.4c0,0-57.5-41.7-26.5-84.2s50.5-46.4,45.8-83.8s-6.1-54.2,17.4-72.5c-10.2,7.9-21.2,10.2-29.2,22
			c-10.5,15.6-5.5,33.7-5.2,51c0.4,19.6-10.3,33.8-23.6,47.4c-34.8,35.6-52.9,58.4-14.6,169L553.9,368.4z"/>
		<path d="M518.2,418.9c-0.2,0-0.3,0-0.5,0c-0.6-0.1-1.1-0.5-1.3-1.1c-38-109.5-21-133.8,14.9-170.7c14.1-14.5,23.5-27.9,23.1-46.2
			c-0.1-4-0.4-8.1-0.7-12.1c-1.1-13.5-2.2-27.5,6.2-39.9c5.4-8,12.2-11.9,18.9-15.6c3.6-2,7.2-4.1,10.7-6.8c0.7-0.6,1.7-0.4,2.3,0.3
			c0.6,0.7,0.4,1.7-0.3,2.3l0,0c0,0,0,0,0,0c-22.5,17.5-21.5,33.5-16.8,71c3.4,27-5.6,37.1-21.9,55.5c-6.7,7.5-15,16.9-24.1,29.4
			c-7.3,10.1-10.2,20.9-8.3,32.3c4.4,27.5,34.2,49.4,34.5,49.6c0.3,0.3,0.6,0.6,0.7,1.1c0.1,0.4,0,0.9-0.3,1.2l-35.9,48.9
			C519,418.6,518.6,418.9,518.2,418.9z M578.3,137.4c-5.8,3.3-11.2,6.8-15.6,13.4c-7.8,11.5-6.7,24.3-5.6,37.8
			c0.3,4,0.7,8.2,0.7,12.2c0.4,20.6-11.3,35.5-24,48.6c-32.9,33.8-52.9,54.3-15.2,164.4l33.1-45c-6-4.7-30.4-25-34.5-50.8
			c-1.9-12.3,1.1-24,8.9-34.8c9.3-12.7,17.6-22.1,24.3-29.7c16.2-18.3,24.3-27.4,21.1-52.9C567.7,170.1,566.2,152.8,578.3,137.4z"/>
	</g>
	<g>
		<g>
			<path class="st0" d="M483.6,134.8c-1.5,1.8-2.9,3.6-3.8,5.2c-5.7,9.7-9.6,20.4-9.9,31.7c-0.4,21.8,12.8,44,25.6,60.7
				c47.9,62.3,10,142.5,10,142.5s26,3.5,26,3.5c8.9,1.2,14.7-48.5,15.2-55.7c2.1-28.1-4-56.7-16.2-82
				c-10.8-22.3-34.8-39.4-39.1-64.1c-3.6-20.2,0.7-41.3,6.9-60.6C496.5,121.7,488.9,128.5,483.6,134.8z"/>
			<path d="M531.2,380.1l-26-3.5c-0.5-0.1-1-0.4-1.2-0.8s-0.3-1,0-1.5c0.4-0.8,36.9-80.1-9.8-140.8c-17.6-22.8-26.3-43.6-25.9-61.8
				c0.2-10.5,3.6-21.4,10.1-32.5c0.9-1.6,2.2-3.3,4-5.4l0,0c1.4-1.7,3-3.4,4.6-5.2c4.2-4.5,8.5-9.2,9.7-13l0,0l0,0
				c0.3-0.9,1.2-1.4,2.1-1.1c0.9,0.3,1.3,1.2,1.1,2.1c-7.7,23.9-9.8,42.9-6.9,59.8c2.5,14.4,12.2,26.4,21.5,38.1
				c6.4,8.1,13.1,16.4,17.5,25.6c12.8,26.5,18.4,55.2,16.3,82.8c0,0.5-4.6,48.8-13.6,56.1C533.3,380.1,532.1,380.2,531.2,380.1z
				 M507.9,373.6l23.8,3.2c0.1,0,0.4,0.1,1-0.4c6.6-5.4,11.7-44,12.4-53.9c2.1-27.1-3.5-55.1-16-81.1c-4.3-8.8-10.8-17.1-17.1-25
				c-9.6-12-19.5-24.4-22.1-39.6c-2.6-14.9-1.4-31.2,3.8-50.8c-1.3,1.6-2.8,3.1-4.2,4.6c-1.6,1.7-3.1,3.4-4.5,5.1l0,0
				c-1.7,2-2.9,3.6-3.7,5c-6.2,10.6-9.5,21-9.6,30.9c-0.4,17.4,8.1,37.5,25.2,59.7C540.5,288.3,513.3,360.7,507.9,373.6z"/>
		</g>
	</g>
</g>
<g>
	<g>
		<path class="st0" d="M823.5,361.5c0,0,6.6-15.3-26.2-29.3c-13.3-5.7-17.8-21.5-19.6-34.6c-2.6-18.8,0.3-37.1,2.1-55.8
			c2.5-24.5-5.2-50.4-21.7-68.9c1.8,2,5.3,3.5,7.5,5.2c5.9,4.6,11.2,10,15.7,16c13.9,18.7,14.9,41.7,12.2,64.2
			c-2.3,18.9-4.9,34.7,6.1,51.5c6.2,9.5,14.7,17.3,23,25c8.4,7.8,14.9,12.4,11,24.7c-4.7,14.9,12.1,41.6,12.1,41.6l-49.6,7.1
			L823.5,361.5z"/>
		<path d="M792.9,410.3l29.1-49.5c0.4-1.1,4.1-14.5-25.3-27.1c-11-4.7-18-16.8-20.6-35.9c-2.2-16.1-0.5-32.1,1.2-47.6
			c0.3-2.9,0.6-5.7,0.9-8.6c2.5-24.6-5.5-49.8-21.3-67.6l0,0l2.5-2.2v0c0.9,1,2.5,2,4.1,2.9c1.1,0.6,2.2,1.3,3.2,2.1
			c6.1,4.8,11.5,10.3,16,16.3c12,16.2,16,36.9,12.5,65.4l-0.3,2.5c-2.2,17.3-4,32.3,6.2,47.9c6.2,9.4,14.6,17.2,22.7,24.7l1.9,1.7
			c7.6,6.9,13.5,12.4,9.6,24.7c-4.4,14,11.7,40,11.9,40.2l1.3,2.1L792.9,410.3z M766.2,180.7c11.8,17.5,17.4,39.7,15.3,61.3
			c-0.3,2.9-0.6,5.7-0.9,8.6c-1.7,16-3.4,31.1-1.2,46.8c2.5,18.1,8.6,29,18.6,33.4c14,6,22.8,13,26.2,20.8
			c2.7,6.1,0.9,10.5,0.8,10.7l-0.1,0.2l-25.7,43.8l43.8-6.3c-3.9-6.8-15.1-27.7-11-40.8c3.3-10.3-1.2-14.5-8.7-21.3l-1.9-1.7
			c-8.3-7.7-16.8-15.6-23.2-25.3c-10.9-16.6-9-32.1-6.7-50.1l0.3-2.5c3.4-27.5-0.3-47.6-11.8-63C776.1,189.8,771.5,185,766.2,180.7z
			"/>
	</g>
	<g>
		<path class="st0" d="M840.8,390c0,0-46.4-33-22.3-94c24.1-61,51.4-74.8,32.3-114.2s-37.9-65.8,6-102.2c0,0-21.9,43.9-1,76.4
			c20.9,32.5,26,41.8,13.8,68.9s-66.6,84.5-18.3,149.9l16.1,16.2L840.8,390z"/>
		<path d="M867.5,392.6c-0.1,0-0.1,0-0.2,0l-26.7-1c-0.3,0-0.6-0.1-0.9-0.3c-0.5-0.3-47.1-34.5-22.8-96c7.9-20,16.3-35.1,23-47.3
			c14.1-25.6,21.9-39.7,9.4-65.5c-1.6-3.3-3.2-6.5-4.7-9.6c-16.8-33.8-30.1-60.4,11.2-94.6c0.6-0.5,1.5-0.5,2.1,0s0.8,1.3,0.5,2
			c-0.2,0.4-21.2,43.5-1.1,74.8c21.3,33.2,26.4,43,13.9,70.5c-2.2,5-5.8,10.8-10,17.6c-18.9,31-47.5,77.9-8.5,130.7l16,16
			c0.5,0.5,0.6,1.2,0.3,1.8C868.7,392.2,868.1,392.6,867.5,392.6z M841.3,388.4l22,0.8L850.1,376c-40.4-54.7-10-104.7,8.2-134.5
			c4.1-6.7,7.6-12.5,9.8-17.2c11.8-26.1,7.3-34.8-13.6-67.4c-16.5-25.6-7.3-57.6-2-71.3c-32.6,30.2-20.9,53.8-4.9,85.9
			c1.5,3.1,3.1,6.3,4.7,9.6c13.2,27.3,4.7,42.8-9.5,68.5c-6.7,12.1-15,27.1-22.8,47c-12.2,30.9-5.7,54.3,2,68.5
			C829.5,378.8,839.3,386.8,841.3,388.4z"/>
	</g>
	<g>
		<path class="st0" d="M893,368.6c0,0-61-36.4-33.9-81.5c27.1-45.1,46.1-50.8,38.1-87.5c-8-36.8-10.9-53.5,10.9-73.8
			c-9.4,8.8-20.2,12.1-27.2,24.5c-9.1,16.4-2.5,34-0.6,51.3c2.1,19.5-7.3,34.6-19.3,49.3c-31.5,38.6-47.5,62.9,0.5,169.6L893,368.6z
			"/>
		<path d="M861.8,422c-0.1,0-0.3,0-0.5,0c-0.6,0-1.1-0.4-1.4-1c-47.5-105.7-32.8-131.4-0.2-171.3c12.8-15.7,20.9-29.9,18.9-48.1
			c-0.4-3.9-1.1-8-1.8-11.9c-2.3-13.4-4.6-27.2,2.6-40.3c4.7-8.4,11.1-12.9,17.4-17.2c3.4-2.3,6.8-4.7,10.1-7.7
			c0.7-0.6,1.7-0.6,2.3,0.1c0.6,0.7,0.6,1.7-0.1,2.3l0,0c0,0,0,0,0,0c-20.8,19.5-18.4,35.3-10.4,72.2c5.8,26.6-2.3,37.5-16.9,57.3
			c-6,8.1-13.4,18.1-21.4,31.5c-6.4,10.7-8.2,21.8-5.4,32.9c6.8,27,38.4,46.2,38.8,46.4c0.4,0.2,0.6,0.6,0.8,1
			c0.1,0.4,0,0.9-0.2,1.2l-31.5,51.9C862.7,421.7,862.3,421.9,861.8,422z M896.8,136.3c-5.5,3.8-10.5,7.8-14.4,14.7
			c-6.7,12.1-4.5,24.8-2.3,38.2c0.7,4,1.4,8.1,1.8,12.1c2.2,20.5-8.1,36.4-19.6,50.5c-29.8,36.6-47.9,58.8-0.6,165.1l29-47.8
			c-6.4-4.1-32.5-22.2-38.8-47.5c-3-12-1.1-24,5.8-35.4c8.1-13.5,15.6-23.6,21.6-31.7c14.5-19.6,21.8-29.5,16.3-54.6
			C889.1,169.8,886.1,152.7,896.8,136.3z"/>
	</g>
	<g>
		<g>
			<path class="st0" d="M794.1,142.2c-1.2,2.1-2.2,4-2.8,5.8c-3.8,10.5-5.7,21.8-3.8,33c3.6,21.5,20.7,40.9,36.3,55
				c58.5,52.4,36.1,138.2,36.1,138.2s26.2-1.3,26.2-1.3c9-0.5,5.5-50.4,4.7-57.6c-3.1-28-14.3-55-31-77.6
				c-14.7-20-41.4-32.3-50.3-55.9c-7.2-19.2-6.9-40.8-4.4-60.8C804.4,126.9,798.2,135.1,794.1,142.2z"/>
			<path d="M886.1,374.6l-26.2,1.3c-0.5,0-1-0.2-1.3-0.6c-0.3-0.4-0.4-0.9-0.3-1.5c0.2-0.9,21.5-85.5-35.6-136.6
				c-21.5-19.2-33.9-38-36.8-55.9c-1.7-10.4-0.4-21.7,3.9-33.8c0.6-1.7,1.5-3.7,2.9-6.1l0,0c1.1-1.9,2.3-3.9,3.6-5.9
				c3.3-5.2,6.7-10.6,7.2-14.6l0,0l0,0c0.1-0.9,0.9-1.6,1.8-1.4c0.9,0.1,1.5,0.9,1.4,1.8c-3.1,24.9-1.8,43.9,4.3,60
				c5.1,13.7,16.8,23.8,28.1,33.5c7.8,6.8,15.9,13.7,21.9,21.9c17.5,23.7,28.3,50.8,31.3,78.4c0,0.5,4.5,48.8-3,57.7
				C888.2,374.2,887,374.5,886.1,374.6z M861.9,372.5l24-1.2c0.1,0,0.4,0,0.9-0.6c5.5-6.5,3.4-45.4,2.3-55.2
				c-3-27-13.6-53.6-30.7-76.8c-5.8-7.9-13.8-14.8-21.5-21.4c-11.6-10-23.6-20.4-29-34.8c-5.3-14.1-7.1-30.4-5.6-50.6
				c-1,1.8-2.2,3.6-3.3,5.3c-1.2,2-2.5,3.9-3.5,5.8l0,0c-1.3,2.2-2.1,4-2.7,5.6c-4.2,11.6-5.4,22.4-3.8,32.2
				c2.9,17.1,14.9,35.3,35.8,54C878.3,282.6,864.9,358.8,861.9,372.5z"/>
		</g>
	</g>
</g>
</svg>
