<?xml version="1.0" encoding="utf-8"?>
<!-- Generator: Adobe Illustrator 23.1.1, SVG Export Plug-In . SVG Version: 6.00 Build 0)  -->
<svg version="1.1" id="Layer_1" xmlns="http://www.w3.org/2000/svg" xmlns:xlink="http://www.w3.org/1999/xlink" x="0px" y="0px"
	 viewBox="0 0 1000 1000" style="enable-background:new 0 0 1000 1000;" xml:space="preserve">
<style type="text/css">
	.st0{fill:#FFFFFF;}
</style>
<g>
	<g>
		<path class="st0" d="M90.22,299.15c0,0,6.38-15.34-26.49-29c-13.36-5.55-18.06-21.34-19.99-34.41
			c-2.77-18.76-0.16-37.08,1.51-55.78c2.18-24.49-5.83-50.31-22.5-68.62c1.81,1.99,5.35,3.41,7.53,5.07
			c5.93,4.53,11.32,9.84,15.84,15.78c14.09,18.5,15.4,41.56,12.88,64.04c-2.12,18.88-4.55,34.75,6.73,51.46
			c6.35,9.4,14.85,17.11,23.26,24.73c8.46,7.65,15.07,12.27,11.29,24.58c-4.53,14.99,12.55,41.46,12.55,41.46l-49.52,7.68
			L90.22,299.15z"/>
		<path d="M60.19,348.28l28.54-49.82c0.36-1.13,3.92-14.52-25.62-26.79c-11.11-4.62-18.17-16.62-20.98-35.68
			c-2.38-16.08-0.82-32.1,0.68-47.59c0.28-2.85,0.55-5.71,0.81-8.57c2.19-24.59-6.06-49.77-22.07-67.37c0,0-0.01-0.01-0.01-0.01
			l2.43-2.21c0,0,0,0.01,0,0.01c0.93,1.01,2.54,1.94,4.1,2.84c1.11,0.64,2.26,1.3,3.21,2.02c6.2,4.74,11.63,10.15,16.15,16.09
			c12.2,16.02,16.4,36.75,13.21,65.22l-0.29,2.54c-1.98,17.36-3.68,32.36,6.75,47.82c6.28,9.3,14.78,16.99,23,24.43l1.88,1.68
			c7.65,6.82,13.69,12.21,9.88,24.59c-4.26,14.09,12.19,39.83,12.36,40.08l1.37,2.12L60.19,348.28z M30.91,118.99
			c12,17.36,17.9,39.47,15.97,61.12c-0.26,2.88-0.53,5.74-0.81,8.6c-1.55,16-3.02,31.11-0.7,46.79c2.67,18.09,8.89,28.93,19,33.13
			c14.03,5.83,22.92,12.71,26.43,20.46c2.78,6.12,1.02,10.5,0.94,10.68l-0.09,0.18L66.41,344l43.72-6.78
			c-4-6.71-15.41-27.53-11.43-40.69c3.19-10.38-1.37-14.45-8.92-21.19l-1.89-1.7c-8.37-7.57-17.02-15.4-23.52-25.02
			c-11.11-16.46-9.34-32.02-7.29-50.02l0.29-2.54c3.09-27.58-0.9-47.56-12.55-62.87C40.87,128,36.2,123.24,30.91,118.99z"/>
	</g>
	<g>
		<path class="st0" d="M96.28,327.41c0,0-44-36.11-15.8-95.34s56.41-71.08,40.05-111.7S87.25,52.1,133.51,18.82
			c0,0-24.82,42.31-6.21,76.16s23.13,43.53,9.03,69.72c-14.1,26.19-72.24,79.74-28.51,148.31l14.97,17.23L96.28,327.41z"/>
		<path d="M122.79,331.87c-0.06,0-0.12,0-0.17-0.01l-26.51-2.82c-0.32-0.03-0.62-0.16-0.87-0.36c-0.45-0.37-44.66-37.61-16.24-97.31
			c9.24-19.41,18.62-33.96,26.15-45.65c15.85-24.6,24.58-38.15,13.87-64.74c-1.36-3.37-2.72-6.66-4.05-9.86
			c-14.46-34.84-25.87-62.35,17.59-93.63c0.63-0.45,1.48-0.4,2.06,0.12c0.57,0.52,0.7,1.37,0.31,2.04
			c-0.24,0.42-24.13,41.91-6.19,74.54c18.99,34.53,23.37,44.66,9.03,71.28c-2.58,4.8-6.55,10.39-11.14,16.88
			c-20.99,29.65-52.71,74.46-17.43,129.77l14.82,17.03c0.44,0.51,0.52,1.24,0.21,1.83C123.96,331.53,123.4,331.87,122.79,331.87z
			 M96.96,325.83l21.86,2.33l-12.23-14.08c-36.61-57.36-2.82-105.1,17.37-133.62c4.53-6.39,8.44-11.92,10.93-16.54
			c13.57-25.19,9.67-34.17-9.02-68.15c-14.69-26.71-3.33-57.96,2.89-71.28c-34.62,27.9-24.51,52.26-10.77,85.37
			c1.33,3.22,2.7,6.51,4.06,9.9c11.34,28.16,1.75,43.05-14.15,67.73c-7.48,11.61-16.79,26.07-25.95,45.28
			c-14.3,30.03-9.34,53.83-2.67,68.5C85.78,315.52,95.03,324.13,96.96,325.83z"/>
	</g>
	<g>
		<path class="st0" d="M138.59,307.1c0,0-51.9-48.52-15.8-86.88s55.85-39.8,55.85-77.44c0-37.64,0.72-54.57,26.31-69.8
			c-11.08,6.59-22.35,7.49-31.76,18.22c-12.38,14.13-9.67,32.7-11.51,49.96c-2.08,19.51-14.48,32.26-29.31,44.08
			c-38.93,31.03-59.8,51.34-35.54,165.86L138.59,307.1z"/>
		<path d="M96.84,352.74c-0.15,0-0.3-0.02-0.44-0.06c-0.59-0.17-1.03-0.64-1.16-1.24c-24.01-113.37-4.13-135.39,36.13-167.48
			c15.82-12.61,26.75-24.74,28.7-42.97c0.42-3.95,0.6-8.07,0.78-12.05c0.61-13.53,1.23-27.53,11.12-38.82
			c6.34-7.24,13.62-10.23,20.66-13.12c3.78-1.56,7.69-3.16,11.49-5.42c0.77-0.46,1.78-0.21,2.25,0.57c0.46,0.78,0.21,1.78-0.57,2.25
			l0,0c-0.01,0-0.02,0.01-0.02,0.01c-24.51,14.6-25.49,30.54-25.49,68.38c0,27.22-10.19,36.15-28.68,52.37
			c-7.56,6.62-16.96,14.87-27.62,26.19c-8.54,9.07-12.68,19.5-12.31,31.02c0.89,27.86,27.76,53.28,28.03,53.54
			c0.32,0.3,0.51,0.71,0.52,1.15c0.01,0.44-0.15,0.86-0.45,1.17l-41.75,44C97.71,352.56,97.28,352.74,96.84,352.74z M191.6,80.97
			c-6.16,2.58-11.97,5.38-17.17,11.31c-9.13,10.43-9.71,23.24-10.31,36.81c-0.18,4.03-0.37,8.19-0.8,12.24
			c-2.19,20.51-15.67,33.84-29.91,45.19c-36.88,29.4-59.28,47.25-35.6,161.19l38.48-40.56c-5.42-5.41-27.05-28.58-27.88-54.67
			c-0.4-12.42,4.04-23.64,13.2-33.37c10.77-11.44,20.24-19.74,27.84-26.41c18.35-16.09,27.56-24.18,27.56-49.91
			C177.01,112.01,177.72,94.65,191.6,80.97z"/>
	</g>
	<g>
		<g>
			<path class="st0" d="M65.39,77.98c-1.27,1.99-2.37,3.9-3.1,5.67c-4.31,10.34-6.8,21.52-5.49,32.75
				c2.51,21.62,18.58,41.92,33.54,56.72C146.19,228.39,119.48,313,119.48,313s26.22,0,26.23,0c9.01-0.02,7.99-50.03,7.56-57.29
				c-1.67-28.13-11.58-55.6-27.1-79.04C112.48,156,86.41,142.36,78.73,118.4c-6.26-19.52-4.85-41.06-1.33-60.95
				C76.37,63.24,69.82,71.05,65.39,77.98z"/>
			<path d="M145.71,314.64h-26.23c-0.52,0-1.01-0.25-1.32-0.67c-0.31-0.42-0.4-0.96-0.24-1.46c0.26-0.84,25.74-84.32-28.73-138.22
				c-20.48-20.26-31.92-39.68-34.02-57.7c-1.21-10.43,0.68-21.73,5.61-33.57c0.7-1.69,1.73-3.57,3.24-5.93l0,0
				c1.19-1.87,2.54-3.8,3.89-5.74c3.53-5.06,7.18-10.3,7.87-14.18v0l0,0c0.16-0.89,1.02-1.51,1.9-1.33c0.89,0.16,1.48,1.01,1.33,1.9
				c-4.37,24.69-3.96,43.81,1.28,60.16c4.45,13.9,15.62,24.56,26.43,34.87c7.47,7.13,15.2,14.51,20.82,23
				c16.26,24.55,25.72,52.16,27.37,79.85c0.03,0.48,2.07,48.98-5.91,57.47C147.79,314.37,146.54,314.64,145.71,314.64z
				 M121.65,311.36h24.06c0.1,0,0.41,0,0.9-0.52c5.86-6.23,5.62-45.14,5.03-55.03c-1.61-27.11-10.89-54.17-26.83-78.23
				c-5.42-8.18-13.01-15.43-20.36-22.44c-11.1-10.59-22.57-21.55-27.28-36.24c-4.6-14.37-5.61-30.72-3.05-50.82
				c-1.12,1.71-2.32,3.44-3.52,5.15c-1.33,1.9-2.65,3.8-3.82,5.64l0,0c-1.4,2.19-2.34,3.91-2.97,5.42
				c-4.72,11.33-6.53,22.07-5.38,31.94c2,17.26,13.13,36.02,33.07,55.75C142.46,222.39,125.28,297.77,121.65,311.36z"/>
		</g>
	</g>
</g>
<g>
	<g>
		<path class="st0" d="M342.15,295.08c0,0,4-16.12-30.56-24.67c-14.05-3.47-21.07-18.37-24.95-31c-5.57-18.12-5.75-36.63-6.93-55.37
			c-1.54-24.54-13.35-48.86-32.6-64.44c2.09,1.7,5.81,2.56,8.2,3.88c6.55,3.59,12.67,8.02,18.04,13.21
			c16.72,16.16,21.5,38.76,22.4,61.37c0.75,18.98,0.75,35.04,14.42,49.86c7.69,8.34,17.26,14.68,26.73,20.93
			c9.52,6.29,16.75,9.85,14.87,22.6c-2.22,15.5,18.66,39.09,18.66,39.09l-47.79,15.07L342.15,295.08z"/>
		<path d="M319.87,348.18l20.69-53.56c0.19-1.17,1.69-14.94-29.37-22.62c-11.68-2.89-20.47-13.69-26.12-32.11
			c-4.78-15.53-5.66-31.6-6.51-47.15c-0.15-2.86-0.31-5.73-0.49-8.6c-1.54-24.64-13.5-48.29-31.98-63.27c0,0-0.01,0-0.01-0.01
			l2.06-2.55c0,0,0,0.01,0,0.01c1.07,0.86,2.81,1.54,4.48,2.19c1.19,0.47,2.43,0.95,3.48,1.52c6.84,3.75,13.03,8.28,18.39,13.47
			c14.48,14,21.76,33.85,22.9,62.48l0.1,2.56c0.66,17.46,1.24,32.54,13.89,46.25c7.61,8.24,17.18,14.56,26.43,20.67l2.11,1.38
			c8.59,5.59,15.37,10,13.47,22.82c-2.08,14.57,18.06,37.53,18.26,37.76l1.67,1.89L319.87,348.18z M256.33,125.93
			c14.49,15.35,23.65,36.31,25.01,58.01c0.18,2.88,0.34,5.76,0.49,8.63c0.88,16.05,1.71,31.21,6.37,46.36
			c5.37,17.48,13.15,27.26,23.78,29.89c14.75,3.65,24.58,9.11,29.22,16.24c3.67,5.63,2.59,10.22,2.54,10.42l-0.06,0.19l-18.29,47.34
			l42.2-13.3c-4.97-6.03-19.38-24.89-17.43-38.5c1.59-10.74-3.53-14.08-12.02-19.6l-2.13-1.39c-9.42-6.22-19.15-12.65-27.03-21.19
			c-13.47-14.6-14.07-30.24-14.76-48.35l-0.1-2.55c-1.1-27.73-8.06-46.88-21.9-60.25C267.54,133.34,262.2,129.33,256.33,125.93z"/>
	</g>
	<g>
		<path class="st0" d="M325.09,325.89c0,0-40.81-39.68-7.72-96.33s62.19-66.08,49.31-107.94s-27.42-70.82,21.47-100.1
			c0,0-28.29,40.07-12.59,75.37c15.7,35.3,19.39,45.32,3.13,70.23c-16.26,24.91-78.7,73.38-40.88,145.38l13.46,18.43L325.09,325.89z
			"/>
		<path d="M351.13,332.56c-0.06,0-0.11-0.01-0.17-0.02l-26.18-5.04c-0.32-0.06-0.61-0.21-0.83-0.43
			c-0.42-0.41-41.34-41.23-7.99-98.33c10.84-18.56,21.41-32.27,29.89-43.29c17.86-23.18,27.7-35.95,19.26-63.34
			c-1.07-3.48-2.15-6.86-3.21-10.17c-11.47-35.93-20.54-64.31,25.41-91.81c0.66-0.39,1.51-0.28,2.04,0.29
			c0.53,0.57,0.58,1.43,0.14,2.06c-0.28,0.39-27.57,39.74-12.43,73.75c16.02,36.01,19.53,46.47,3.01,71.79
			c-2.98,4.56-7.4,9.81-12.52,15.88c-23.41,27.78-58.79,69.76-28.28,127.84l13.34,18.22c0.4,0.54,0.42,1.28,0.06,1.85
			C352.33,332.33,351.74,332.61,351.13,332.56z M325.9,324.38l21.59,4.16l-11.01-15.06c-31.65-60.24,6.04-104.96,28.55-131.69
			c5.05-5.99,9.41-11.17,12.28-15.56c15.64-23.96,12.51-33.23-3.26-68.67c-12.39-27.85,1.56-58.03,8.88-70.78
			c-36.84,24.89-28.81,50.02-17.91,84.16c1.06,3.32,2.14,6.71,3.22,10.2c8.93,29.01-1.88,43.05-19.8,66.3
			c-8.43,10.94-18.93,24.56-29.66,42.94c-16.77,28.72-13.84,52.85-8.42,68.04C315.62,313.16,324.12,322.52,325.9,324.38z"/>
	</g>
	<g>
		<path class="st0" d="M392.13,307.24c0,0-57.55-41.67-26.51-84.23s50.45-46.45,45.76-83.8c-4.69-37.35-6.08-54.23,17.4-72.54
			c-10.17,7.92-21.24,10.22-29.24,22.04c-10.52,15.56-5.52,33.65-5.19,51.01c0.37,19.61-10.34,33.82-23.58,47.39
			c-34.75,35.64-52.93,58.39-14.58,169L392.13,307.24z"/>
		<path d="M356.4,357.74c-0.15,0.02-0.3,0.02-0.45,0c-0.6-0.09-1.1-0.51-1.3-1.08c-37.96-109.49-20.98-133.82,14.96-170.68
			c14.12-14.48,23.46-27.88,23.11-46.22c-0.07-3.97-0.41-8.08-0.72-12.05c-1.08-13.5-2.21-27.47,6.2-39.9
			c5.39-7.97,12.24-11.85,18.86-15.6c3.56-2.01,7.23-4.1,10.72-6.81c0.7-0.55,1.74-0.43,2.3,0.29c0.56,0.71,0.43,1.74-0.29,2.3l0,0
			c-0.01,0-0.01,0.01-0.02,0.02c-22.5,17.54-21.48,33.48-16.76,71.02c3.39,27-5.6,37.14-21.93,55.54
			c-6.67,7.52-14.97,16.87-24.13,29.43c-7.34,10.06-10.15,20.93-8.34,32.31c4.36,27.53,34.18,49.41,34.49,49.62
			c0.35,0.26,0.59,0.64,0.66,1.08c0.07,0.43-0.04,0.87-0.3,1.22l-35.94,48.87C357.24,357.45,356.84,357.68,356.4,357.74z
			 M416.53,76.27c-5.79,3.32-11.21,6.83-15.62,13.36c-7.76,11.48-6.73,24.27-5.64,37.81c0.32,4.02,0.66,8.17,0.73,12.25
			c0.39,20.62-11.33,35.53-24.05,48.57c-32.93,33.77-52.92,54.28-15.22,164.37l33.13-45.05c-6.05-4.69-30.4-24.98-34.48-50.77
			c-1.94-12.27,1.06-23.96,8.93-34.75c9.26-12.69,17.62-22.11,24.33-29.68c16.2-18.26,24.33-27.42,21.13-52.95
			C405.92,108.89,404.46,91.58,416.53,76.27z"/>
	</g>
	<g>
		<g>
			<path class="st0" d="M321.87,73.61c-1.53,1.8-2.87,3.55-3.84,5.2c-5.66,9.67-9.64,20.41-9.86,31.71
				c-0.43,21.76,12.76,44.04,25.58,60.73c47.87,62.29,9.99,142.53,9.99,142.53s25.98,3.54,25.99,3.54
				c8.93,1.2,14.67-48.5,15.22-55.74c2.14-28.1-3.96-56.66-16.18-81.97c-10.78-22.33-34.77-39.37-39.14-64.15
				c-3.56-20.19,0.74-41.34,6.91-60.57C334.73,60.49,327.18,67.35,321.87,73.61z"/>
			<path d="M369.5,318.95l-25.99-3.54c-0.52-0.07-0.97-0.38-1.22-0.84c-0.25-0.46-0.26-1.01-0.04-1.48
				c0.37-0.8,36.89-80.07-9.8-140.83c-17.56-22.84-26.27-43.62-25.92-61.76c0.21-10.5,3.6-21.44,10.09-32.51
				c0.93-1.58,2.2-3.31,4.01-5.44l0,0c1.44-1.69,3.03-3.42,4.63-5.17c4.18-4.54,8.51-9.23,9.72-12.99l0,0l0,0
				c0.28-0.86,1.21-1.36,2.06-1.06c0.86,0.28,1.34,1.2,1.06,2.06c-7.66,23.88-9.84,42.87-6.85,59.79
				c2.54,14.37,12.17,26.44,21.48,38.12c6.44,8.08,13.1,16.43,17.53,25.6c12.8,26.52,18.44,55.15,16.34,82.81
				c-0.04,0.48-4.56,48.81-13.62,56.15C371.6,318.96,370.32,319.06,369.5,318.95z M346.1,312.46l23.84,3.25
				c0.1,0.01,0.41,0.06,0.96-0.39c6.64-5.38,11.66-43.97,12.41-53.85c2.07-27.08-3.48-55.14-16.02-81.13
				c-4.27-8.84-10.81-17.05-17.14-24.98c-9.56-11.99-19.46-24.4-22.14-39.6c-2.62-14.86-1.41-31.19,3.84-50.77
				c-1.34,1.55-2.77,3.1-4.18,4.63c-1.57,1.71-3.14,3.41-4.55,5.07l0,0c-1.68,1.98-2.85,3.56-3.67,4.97
				c-6.2,10.59-9.45,20.99-9.64,30.92c-0.35,17.38,8.15,37.46,25.24,59.7C378.73,227.11,351.54,299.48,346.1,312.46z"/>
		</g>
	</g>
</g>
<g>
	<g>
		<path class="st0" d="M577.38,299.39c0,0,6.56-15.26-26.16-29.3c-13.3-5.71-17.81-21.55-19.59-34.63
			c-2.56-18.79,0.26-37.08,2.14-55.76c2.46-24.46-5.25-50.38-21.71-68.88c1.79,2.01,5.32,3.47,7.47,5.16
			c5.88,4.6,11.2,9.97,15.66,15.96c13.88,18.66,14.93,41.73,12.15,64.19c-2.33,18.85-4.94,34.69,6.14,51.54
			c6.24,9.48,14.65,17.28,22.98,24.99c8.37,7.75,14.93,12.44,11,24.71c-4.7,14.93,12.07,41.6,12.07,41.6l-49.61,7.12L577.38,299.39z
			"/>
		<path d="M546.79,348.18l29.11-49.49c0.38-1.13,4.09-14.47-25.31-27.08c-11.05-4.74-17.98-16.83-20.57-35.92
			c-2.19-16.1-0.46-32.1,1.23-47.58c0.31-2.85,0.62-5.7,0.91-8.56c2.47-24.57-5.49-49.84-21.29-67.62c0,0-0.01-0.01-0.01-0.01
			l2.45-2.18c0,0,0,0.01,0,0.01c0.92,1.03,2.52,1.97,4.07,2.89c1.1,0.65,2.25,1.33,3.18,2.06c6.14,4.81,11.51,10.28,15.96,16.28
			c12.02,16.16,15.98,36.93,12.46,65.36l-0.32,2.54c-2.18,17.34-4.05,32.31,6.2,47.89c6.18,9.37,14.59,17.16,22.72,24.69l1.86,1.7
			c7.57,6.91,13.55,12.37,9.59,24.71c-4.42,14.04,11.73,39.97,11.9,40.22l1.35,2.14L546.79,348.18z M520.14,118.57
			c11.81,17.49,17.44,39.67,15.27,61.3c-0.29,2.87-0.6,5.73-0.91,8.59c-1.74,15.98-3.37,31.08-1.24,46.78
			c2.47,18.12,8.56,29.03,18.62,33.35c13.96,5.99,22.77,12.97,26.2,20.76c2.71,6.15,0.9,10.51,0.82,10.69l-0.09,0.18l-25.73,43.75
			l43.79-6.28c-3.93-6.76-15.09-27.7-10.96-40.82c3.31-10.34-1.2-14.47-8.68-21.29l-1.88-1.72c-8.28-7.66-16.84-15.59-23.23-25.29
			c-10.92-16.59-8.97-32.12-6.72-50.1l0.32-2.53c3.41-27.54-0.35-47.56-11.83-63.01C529.99,127.69,525.38,122.87,520.14,118.57z"/>
	</g>
	<g>
		<path class="st0" d="M594.69,327.84c0,0-46.36-33.02-22.26-94.04s51.44-74.76,32.35-114.17c-19.09-39.41-37.86-65.84,6.03-102.19
			c0,0-21.88,43.9-1,76.41s26.04,41.85,13.76,68.94c-12.29,27.09-66.64,84.48-18.34,149.9l16.11,16.17L594.69,327.84z"/>
		<path d="M621.44,330.48c-0.06,0-0.12,0-0.17,0l-26.65-1.01c-0.32-0.01-0.63-0.12-0.89-0.3c-0.47-0.34-47.12-34.48-22.83-95.98
			c7.9-19.99,16.26-35.15,22.98-47.33c14.14-25.62,21.92-39.73,9.42-65.53c-1.59-3.27-3.17-6.46-4.71-9.56
			c-16.8-33.77-30.06-60.44,11.17-94.61c0.6-0.49,1.45-0.5,2.06-0.02c0.61,0.48,0.79,1.32,0.45,2.02
			c-0.21,0.43-21.22,43.46-1.09,74.79c21.3,33.16,26.36,42.97,13.87,70.5c-2.25,4.96-5.82,10.82-9.96,17.6
			c-18.92,31.01-47.52,77.88-8.55,130.66l15.95,15.98c0.48,0.48,0.61,1.2,0.34,1.81C622.58,330.07,622.05,330.44,621.44,330.48z
			 M595.26,326.22l21.97,0.83l-13.17-13.22c-40.43-54.73-9.97-104.66,8.23-134.49c4.08-6.69,7.61-12.47,9.77-17.25
			c11.82-26.06,7.32-34.75-13.64-67.38c-16.47-25.65-7.27-57.59-1.97-71.31c-32.64,30.19-20.89,53.81-4.93,85.9
			c1.55,3.12,3.14,6.31,4.73,9.6c13.23,27.32,4.68,42.84-9.5,68.54c-6.67,12.1-14.98,27.15-22.8,46.95
			c-12.22,30.94-5.65,54.34,2.01,68.53C583.4,316.7,593.22,324.66,595.26,326.22z"/>
	</g>
	<g>
		<path class="st0" d="M646.89,306.44c0,0-61.02-36.39-33.88-81.55c27.14-45.15,46.13-50.75,38.14-87.53
			c-7.99-36.79-10.87-53.48,10.9-73.79c-9.42,8.79-20.25,12.06-27.16,24.55c-9.1,16.44-2.51,34-0.64,51.27
			c2.11,19.5-7.3,34.6-19.28,49.3c-31.45,38.58-47.54,62.86,0.48,169.62L646.89,306.44z"/>
		<path d="M615.79,359.91c-0.14,0.03-0.29,0.04-0.45,0.04c-0.61-0.04-1.14-0.41-1.4-0.96c-47.53-105.69-32.77-131.43-0.25-171.33
			c12.78-15.68,20.89-29.86,18.92-48.09c-0.43-3.95-1.12-8.01-1.79-11.94c-2.28-13.35-4.64-27.17,2.63-40.3
			c4.66-8.42,11.14-12.89,17.4-17.21c3.36-2.32,6.84-4.72,10.08-7.74c0.65-0.61,1.69-0.59,2.32,0.08c0.62,0.66,0.58,1.7-0.08,2.32
			l0,0c-0.01,0-0.01,0.01-0.02,0.02c-20.85,19.47-18.42,35.26-10.39,72.23c5.78,26.6-2.28,37.49-16.91,57.27
			c-5.98,8.08-13.42,18.13-21.43,31.46c-6.42,10.67-8.25,21.75-5.44,32.93c6.78,27.04,38.43,46.18,38.75,46.37
			c0.37,0.22,0.64,0.59,0.75,1.01c0.1,0.42,0.04,0.87-0.19,1.24l-31.46,51.86C616.6,359.55,616.22,359.81,615.79,359.91z
			 M650.7,74.21c-5.47,3.82-10.55,7.8-14.37,14.7c-6.71,12.13-4.55,24.77-2.27,38.16c0.68,3.98,1.38,8.08,1.82,12.14
			c2.22,20.5-8.13,36.39-19.64,50.51c-29.8,36.56-47.9,58.76-0.57,165.07l29-47.81c-6.44-4.13-32.5-22.19-38.85-47.51
			c-3.02-12.05-1.07-23.96,5.81-35.41c8.09-13.46,15.58-23.59,21.6-31.72c14.52-19.62,21.8-29.48,16.34-54.62
			C643.02,107.65,640.04,90.53,650.7,74.21z"/>
	</g>
	<g>
		<g>
			<path class="st0" d="M548.07,80.08c-1.17,2.05-2.17,4.02-2.82,5.82c-3.79,10.54-5.72,21.84-3.85,32.99
				c3.59,21.47,20.65,40.94,36.32,54.98c58.52,52.41,36.06,138.25,36.06,138.25s26.19-1.3,26.2-1.31c9-0.47,5.49-50.37,4.7-57.59
				c-3.07-28.02-14.33-54.96-31-77.59c-14.71-19.97-41.42-32.3-50.29-55.85c-7.22-19.18-6.89-40.77-4.36-60.81
				C558.3,64.81,552.15,72.95,548.07,80.08z"/>
			<path d="M640.07,312.45l-26.2,1.31c-0.52,0.03-1.02-0.2-1.35-0.6c-0.33-0.41-0.44-0.94-0.31-1.45
				c0.22-0.85,21.51-85.49-35.57-136.62c-21.46-19.22-33.86-38.04-36.85-55.93c-1.73-10.36-0.41-21.73,3.93-33.81
				c0.62-1.72,1.55-3.66,2.94-6.08l0,0c1.1-1.93,2.35-3.92,3.6-5.93c3.27-5.23,6.66-10.64,7.16-14.55l0,0l0,0
				c0.11-0.9,0.94-1.56,1.83-1.42c0.9,0.11,1.53,0.93,1.42,1.83c-3.13,24.88-1.78,43.95,4.27,60.03
				c5.14,13.66,16.83,23.75,28.13,33.51c7.82,6.75,15.9,13.74,21.94,21.94c17.46,23.71,28.28,50.81,31.31,78.39
				c0.05,0.48,4.51,48.81-3.04,57.69C642.13,312.08,640.9,312.41,640.07,312.45z M615.87,310.38l24.03-1.2
				c0.1,0,0.41-0.02,0.87-0.56c5.54-6.51,3.36-45.36,2.28-55.22c-2.96-27-13.57-53.56-30.69-76.8c-5.82-7.9-13.76-14.77-21.45-21.4
				c-11.61-10.03-23.62-20.4-29.05-34.84c-5.31-14.12-7.13-30.4-5.58-50.61c-1.03,1.77-2.15,3.55-3.26,5.32
				c-1.23,1.97-2.46,3.93-3.54,5.82l0,0c-1.28,2.25-2.14,4.02-2.69,5.56c-4.15,11.55-5.42,22.37-3.78,32.16
				c2.86,17.14,14.91,35.32,35.8,54.03C632.23,220.48,618.83,296.62,615.87,310.38z"/>
		</g>
	</g>
</g>
<g>
	<path d="M191.72,817.33c-0.84,0-1.69-0.29-2.37-0.9c-1.48-1.31-1.62-3.58-0.32-5.06c26.62-30.16,33.1-82.36,16.12-129.88
		c-1.7-4.75-3.64-9.53-5.52-14.15c-2.54-6.24-5.17-12.7-7.29-19.32c-4.5-14.02-5.74-26.48-3.71-37.05
		c3.3-17.12,14.07-28.55,24.49-39.61c3.01-3.2,5.86-6.22,8.51-9.36c10.52-12.47,22.62-29.6,22.74-51.58
		c0.01-1.97,1.61-3.57,3.59-3.57c0.01,0,0.01,0,0.02,0c1.98,0.01,3.58,1.62,3.57,3.6c-0.13,24.28-13.13,42.77-24.43,56.16
		c-2.78,3.29-5.82,6.53-8.77,9.65c-9.72,10.32-19.77,20.98-22.67,36.06c-1.8,9.37-0.63,20.64,3.5,33.5
		c2.04,6.37,4.61,12.69,7.11,18.81c1.91,4.69,3.88,9.54,5.63,14.44c17.84,49.91,10.8,104.98-17.49,137.05
		C193.7,816.92,192.72,817.33,191.72,817.33z"/>
</g>
<g>
	<path d="M180.45,819.28c-0.42,0-0.84-0.07-1.25-0.22c-1.86-0.69-2.8-2.76-2.11-4.61c0.26-0.71,17.04-48.88-30.49-99.98
		c-8.85-9.52-17.27-17.93-25.41-26.07c-37.35-37.35-64.33-64.33-62.94-129.85c0.04-1.95,1.64-3.51,3.59-3.51c0.02,0,0.05,0,0.08,0
		c1.98,0.04,3.55,1.68,3.51,3.66c-1.33,62.46,23.4,87.19,60.84,124.63c8.18,8.19,16.64,16.65,25.59,26.26
		c50.79,54.61,32.75,105.24,31.96,107.36C183.28,818.39,181.91,819.28,180.45,819.28z"/>
</g>
<g>
	<path class="st0" d="M233.53,552.39c0,0,1.51-29.07-27.99-45.11c0,0,6.16,9.05,6.69,23.81
		C212.77,545.86,233.53,552.39,233.53,552.39z"/>
	<path d="M233.53,554.18c-0.18,0-0.36-0.03-0.54-0.08c-0.9-0.28-21.98-7.09-22.55-22.94c-0.51-14.09-6.32-22.78-6.38-22.87
		c-0.47-0.68-0.4-1.6,0.15-2.21c0.56-0.61,1.45-0.77,2.19-0.37c30.14,16.39,28.94,46.48,28.92,46.78c-0.03,0.55-0.31,1.06-0.77,1.38
		C234.25,554.07,233.89,554.18,233.53,554.18z M210.01,512.11c1.77,4.27,3.72,10.74,4.02,18.92c0.38,10.51,12.47,16.61,17.68,18.76
		C231.37,543.15,228.66,524.93,210.01,512.11z"/>
</g>
<g>
	<path class="st0" d="M202.67,588.85c0,0,3.64-28.72-22.83-42.17C179.85,546.68,181.73,585.58,202.67,588.85z"/>
	<path d="M202.67,590.64c-0.09,0-0.19-0.01-0.28-0.02c-22.13-3.45-24.26-42.21-24.34-43.85c-0.03-0.64,0.28-1.24,0.82-1.59
		c0.54-0.34,1.21-0.38,1.79-0.09c27.28,13.86,23.83,43.69,23.79,43.99c-0.06,0.48-0.32,0.92-0.7,1.21
		C203.44,590.52,203.06,590.64,202.67,590.64z M181.92,549.88c0.96,8.82,4.85,32.64,19.12,36.78
		C201.3,580.41,200.49,561.08,181.92,549.88z"/>
</g>
<g>
	<path class="st0" d="M206.4,584.13c0,0,16.89-17.23,41.75,6.88c0,0-12.33-1.34-19.7,3.4C221.09,599.13,206.4,584.13,206.4,584.13z"
		/>
	<path d="M225.12,597.11c-8.24,0-18.64-10.34-20-11.73c-0.68-0.7-0.68-1.81,0-2.51c0.18-0.18,18.44-18.22,44.27,6.84
		c0.55,0.53,0.7,1.35,0.37,2.05c-0.33,0.69-1.05,1.12-1.81,1.02c-0.12-0.01-11.8-1.21-18.53,3.12
		C228.11,596.75,226.65,597.11,225.12,597.11z M209.06,584.21c4.49,4.18,13.96,11.56,18.42,8.68c4.79-3.07,11.34-3.78,15.81-3.85
		C225.65,574.28,213.12,581.15,209.06,584.21z"/>
</g>
<g>
	<path class="st0" d="M236.86,547.22c0,0,16.78-17.76,36.05-11.04C272.91,536.18,258.09,565.35,236.86,547.22z"/>
	<path d="M250.75,554.95c-5.05,0-10.09-2.13-15.06-6.37c-0.37-0.32-0.6-0.78-0.62-1.27c-0.03-0.49,0.15-0.97,0.49-1.33
		c0.72-0.76,17.81-18.52,37.94-11.5c0.49,0.17,0.88,0.54,1.07,1.02s0.17,1.02-0.07,1.48c-0.31,0.62-7.81,15.14-20.19,17.61
		C253.13,554.83,251.94,554.95,250.75,554.95z M239.58,547.11c4.73,3.56,9.46,4.9,14.02,3.98c8.24-1.64,14.27-10.04,16.63-13.84
		C256.21,533.66,243.69,543.42,239.58,547.11z"/>
</g>
<g>
	<path class="st0" d="M228.46,472.94c0,0,26.27,11.75,20.15,37.39C248.61,510.33,230.3,508.64,228.46,472.94z"/>
	<path d="M248.61,512.12c-0.05,0-0.11,0-0.16-0.01c-0.81-0.08-19.88-2.26-21.77-39.08c-0.03-0.62,0.26-1.22,0.77-1.57
		c0.52-0.35,1.18-0.41,1.75-0.16c0.28,0.12,27.55,12.66,21.16,39.44C250.16,511.56,249.43,512.12,248.61,512.12z M230.47,476.02
		c2.1,25.07,12.72,30.86,16.77,32.16C250.59,489.97,236.61,479.62,230.47,476.02z"/>
</g>
<g>
	<path class="st0" d="M191.35,624.7c0,0-0.18-22.99-27.21-36.9C164.14,587.8,163.61,614.13,191.35,624.7z"/>
	<path d="M191.35,626.49c-0.21,0-0.43-0.04-0.64-0.12c-28.59-10.89-28.37-38.33-28.37-38.61c0.01-0.62,0.34-1.19,0.88-1.5
		c0.53-0.32,1.19-0.34,1.74-0.06c27.68,14.24,28.18,37.49,28.18,38.48c0,0.59-0.28,1.15-0.77,1.48
		C192.07,626.38,191.71,626.49,191.35,626.49z M166.12,590.92c0.76,6.72,4.56,22.61,23.16,30.98
		C188.34,615.84,184.21,601.38,166.12,590.92z"/>
</g>
<g>
	<path class="st0" d="M197.53,652.11c0,0-4.53-28.12,10.69-39.76C208.21,612.35,224.51,637.67,197.53,652.11z"/>
	<path d="M197.53,653.9c-0.27,0-0.55-0.06-0.79-0.19c-0.52-0.26-0.88-0.75-0.97-1.32c-0.19-1.19-4.52-29.32,11.36-41.47
		c0.4-0.3,0.91-0.42,1.4-0.34c0.49,0.08,0.93,0.37,1.2,0.79c0.31,0.48,7.56,11.93,4.36,24.26c-1.93,7.43-7.21,13.5-15.7,18.05
		C198.11,653.83,197.82,653.9,197.53,653.9z M207.7,615.13c-9.92,9.35-9.33,27.33-8.71,34.06c6.21-3.85,10.12-8.7,11.61-14.43
		C212.72,626.62,209.46,618.62,207.7,615.13z"/>
</g>
<g>
	<path class="st0" d="M208.53,680.28c0,0-10.16-24.16-27.97-20.72C180.56,659.56,188.61,683.71,208.53,680.28z"/>
	<path d="M204.72,682.41c-18.21,0-25.78-22.04-25.86-22.28c-0.16-0.49-0.11-1.03,0.15-1.47c0.26-0.45,0.7-0.76,1.21-0.86
		c18.98-3.65,29.52,20.74,29.96,21.78c0.21,0.5,0.18,1.08-0.08,1.56s-0.73,0.81-1.27,0.91
		C207.41,682.29,206.04,682.41,204.72,682.41z M183.07,661.05c2.24,5.24,9.1,18.47,22.75,17.74
		C203.05,673.48,194.92,660.37,183.07,661.05z"/>
</g>
<g>
	<path class="st0" d="M214.08,699.6c0,0-3.94-27.66,9.83-38.21C223.91,661.39,234.51,692.69,214.08,699.6z"/>
	<path d="M214.08,701.39c-0.33,0-0.65-0.09-0.94-0.27c-0.46-0.28-0.76-0.75-0.84-1.27c-0.17-1.17-3.92-28.83,10.52-39.88
		c0.46-0.36,1.05-0.46,1.61-0.29c0.55,0.17,0.99,0.59,1.18,1.14c0.11,0.33,2.74,8.2,2.84,17.07c0.14,12.22-4.63,20.31-13.79,23.41
		C214.47,701.36,214.27,701.39,214.08,701.39z M222.98,664.64c-8.43,8.87-7.88,26.15-7.36,32.39
		C228.3,690.76,224.79,671.71,222.98,664.64z"/>
</g>
<g>
	<path class="st0" d="M217.6,746.05c0,0,5.75-24.12,27.81-22.75C245.41,723.3,241.42,748.7,217.6,746.05z"/>
	<path d="M221.01,748.04c-1.16,0-2.36-0.07-3.61-0.21c-0.51-0.06-0.97-0.33-1.27-0.75c-0.29-0.42-0.4-0.95-0.28-1.45
		c0.06-0.26,6.26-25.56,29.67-24.13c0.5,0.03,0.97,0.27,1.28,0.67c0.32,0.4,0.45,0.9,0.37,1.4
		C247.14,723.83,243.07,748.04,221.01,748.04z M219.95,744.43c16.41,0.6,21.86-13.91,23.26-19.39
		C227.9,725.28,221.75,739.1,219.95,744.43z"/>
</g>
<g>
	<path class="st0" d="M216.76,741.17c0,0-1.21-20.91-23.02-27.06C193.74,714.1,197.34,746.24,216.76,741.17z"/>
	<path d="M212.73,743.5c-2.99,0-5.77-0.87-8.28-2.59c-10.18-6.99-12.4-25.8-12.49-26.6c-0.07-0.59,0.17-1.18,0.62-1.57
		c0.45-0.39,1.06-0.53,1.65-0.36c22.78,6.42,24.31,28.46,24.32,28.68c0.05,0.85-0.51,1.62-1.34,1.83
		C215.67,743.3,214.17,743.5,212.73,743.5z M195.96,716.71c0.99,5.3,3.82,16.65,10.52,21.24c2.48,1.69,5.21,2.28,8.3,1.79
		C214.09,735.26,210.82,722.23,195.96,716.71z"/>
</g>
<g>
	<path class="st0" d="M206.81,790.22c0,0,10.2-20.23,29.54-10.63C236.35,779.59,225.13,803.38,206.81,790.22z"/>
	<path d="M217.66,795.99c-3.92,0-7.91-1.44-11.9-4.31c-0.71-0.51-0.95-1.47-0.55-2.26c0.11-0.22,11.23-21.7,31.94-11.44
		c0.88,0.43,1.24,1.49,0.83,2.37c-0.24,0.51-5.98,12.45-16.25,15.11C220.38,795.81,219.02,795.99,217.66,795.99z M209.2,789.67
		c4,2.5,7.9,3.29,11.61,2.33c6.61-1.71,11.23-8.45,13.05-11.57C220.06,774.72,211.7,785.66,209.2,789.67z"/>
</g>
<g>
	<path class="st0" d="M183.86,792.14c0,0,23.71-9.61,19.95-34.14C203.81,758,184.11,764.72,183.86,792.14z"/>
	<path d="M183.86,793.93c-0.35,0-0.71-0.11-1.01-0.31c-0.49-0.34-0.79-0.9-0.78-1.5c0.26-28.36,20.95-35.74,21.16-35.82
		c0.49-0.16,1.05-0.11,1.51,0.16c0.46,0.28,0.76,0.74,0.84,1.26c3.93,25.63-20.8,35.97-21.05,36.07
		C184.32,793.89,184.09,793.93,183.86,793.93z M202.32,760.63c-4.63,2.41-15.36,9.96-16.56,28.58
		C191.31,786.16,203.7,777.4,202.32,760.63z"/>
</g>
<g>
	<path class="st0" d="M180.53,766.46c0,0-9.63-20.64-31.18-27.35C149.35,739.1,166.58,782.98,180.53,766.46z"/>
	<path d="M173.76,771.97c-0.51,0-1.02-0.05-1.54-0.13c-12.41-2.04-23.34-29.01-24.54-32.09c-0.25-0.64-0.11-1.37,0.36-1.88
		c0.47-0.51,1.19-0.69,1.85-0.49c22.06,6.87,31.87,27.43,32.27,28.31c0.29,0.63,0.2,1.38-0.26,1.91
		C179.45,770.51,176.72,771.97,173.76,771.97z M152.59,742.19c4.12,9.23,12.57,24.86,20.21,26.12c1.97,0.31,3.79-0.38,5.56-2.14
		C176.25,762.28,167.94,748.58,152.59,742.19z"/>
</g>
<g>
	<path class="st0" d="M165.85,733.36c0,0,14.55-6.31-1.09-52.01C164.76,681.35,148.5,705.16,165.85,733.36z"/>
	<path d="M165.85,735.15c-0.61,0-1.19-0.31-1.53-0.85c-17.75-28.85-1.21-53.71-1.04-53.96c0.38-0.56,1.04-0.85,1.72-0.76
		c0.67,0.09,1.24,0.55,1.45,1.19c15.99,46.73,0.76,53.95,0.11,54.23C166.33,735.1,166.08,735.15,165.85,735.15z M164.33,685.75
		c-3.51,7.12-9.57,24.59,2,44.91C169.03,727.66,174.41,717.19,164.33,685.75z"/>
</g>
<g>
	<path class="st0" d="M146.44,709.04c0,0-15.52-14.04-32.15-2.98C114.29,706.06,135.74,730.58,146.44,709.04z"/>
	<path d="M134.57,719.69c-10.61,0-21.16-11.91-21.63-12.45c-0.34-0.39-0.5-0.9-0.43-1.42c0.07-0.51,0.35-0.97,0.78-1.25
		c17.6-11.7,34.18,3,34.35,3.14c0.6,0.54,0.76,1.41,0.4,2.13c-2.9,5.83-6.84,9.1-11.74,9.74
		C135.73,719.65,135.15,719.69,134.57,719.69z M117.12,706.43c3.29,3.28,11.5,10.52,18.73,9.59c3.3-0.43,6.09-2.62,8.32-6.53
		C140.7,706.85,129.46,699.62,117.12,706.43z"/>
</g>
<g>
	<path class="st0" d="M133.14,695.3c0,0,14.33-15.44-4.55-47.91C128.59,647.38,111.03,667.4,133.14,695.3z"/>
	<path d="M133.14,697.09c-0.02,0-0.05,0-0.07,0c-0.52-0.02-1.01-0.27-1.33-0.68c-22.78-28.73-4.68-50-4.5-50.21
		c0.38-0.43,0.95-0.63,1.52-0.6c0.57,0.06,1.09,0.39,1.38,0.89c19.33,33.24,4.94,49.36,4.32,50.03
		C134.12,696.88,133.64,697.09,133.14,697.09z M128.39,650.69c-3.49,5.49-10.49,21.01,4.71,41.6
		C135.9,687.7,141.25,674.25,128.39,650.69z"/>
</g>
<g>
	<path class="st0" d="M115.92,680.01c0,0-16.33-15.04-31.77-0.62c0,0,10.84-1.65,19.01,8.11c8.17,9.76,18.92-0.51,18.92-0.51
		L115.92,680.01z"/>
	<path d="M111.42,693.5c-0.22,0-0.44-0.01-0.67-0.02c-3.42-0.19-6.43-1.81-8.96-4.83c-7.44-8.88-17.26-7.5-17.37-7.49
		c-0.79,0.13-1.54-0.28-1.88-0.99c-0.34-0.71-0.19-1.55,0.39-2.09c16.46-15.38,34.02,0.44,34.2,0.61c0.05,0.04,0.09,0.09,0.13,0.13
		l6.17,6.98c0.64,0.72,0.59,1.82-0.11,2.48C123.09,688.5,117.79,693.5,111.42,693.5z M89.27,677.72c4.22,0.59,10.21,2.58,15.28,8.63
		c1.88,2.25,3.97,3.41,6.39,3.55c3.5,0.13,6.8-1.81,8.57-3.12l-4.87-5.51C113.54,680.28,101.67,670.14,89.27,677.72z"/>
</g>
<g>
	<path class="st0" d="M100.78,661.54c0,0,13.36-17.67-5.48-46.83C95.3,614.71,85.24,639.9,100.78,661.54z"/>
	<path d="M100.78,663.33c-0.01,0-0.01,0-0.02,0c-0.57-0.01-1.1-0.28-1.44-0.75c-15.93-22.18-6.12-47.48-5.69-48.54
		c0.25-0.62,0.82-1.05,1.49-1.12c0.7-0.05,1.32,0.25,1.68,0.81c19.3,29.87,5.98,48.12,5.41,48.89
		C101.88,663.07,101.34,663.33,100.78,663.33z M95.84,619.01c-1.91,7.21-4.69,23.92,4.85,39.18
		C103.26,653,107.6,639.28,95.84,619.01z"/>
</g>
<g>
	<path class="st0" d="M74.5,629.04c0,0-12.67-21.5-32.01-18.94C42.49,610.1,60.28,645.18,74.5,629.04z"/>
	<path d="M66.31,635.08c-0.49,0-0.98-0.03-1.47-0.09c-12.4-1.58-23.48-23.16-23.94-24.07c-0.26-0.52-0.26-1.13,0.01-1.65
		c0.27-0.51,0.77-0.86,1.35-0.94c20.29-2.64,33.24,18.89,33.78,19.81c0.4,0.67,0.32,1.51-0.2,2.09
		C73,633.45,69.8,635.08,66.31,635.08z M45.39,611.69c3.87,6.78,12.2,18.77,19.9,19.74c2.51,0.31,4.78-0.54,6.94-2.6
		c-2.7-3.98-12.67-17.15-26.57-17.15C45.56,611.68,45.48,611.68,45.39,611.69z"/>
</g>
<g>
	<path class="st0" d="M65.54,599.47c0,0,0.17-24.63,14.01-30.36C79.55,569.1,87.29,591.65,65.54,599.47z"/>
	<path d="M65.54,601.26c-0.37,0-0.73-0.11-1.04-0.33c-0.48-0.34-0.76-0.89-0.76-1.47c0.01-1.06,0.35-25.89,15.12-32.01
		c0.46-0.19,0.97-0.18,1.42,0.02c0.45,0.2,0.79,0.58,0.96,1.05c0.08,0.24,8.04,24.31-15.1,32.63
		C65.95,601.22,65.74,601.26,65.54,601.26z M78.41,571.69c-8.44,5.16-10.45,19.09-10.93,25.04
		C81.17,590.28,79.59,576.81,78.41,571.69z"/>
</g>
<g>
	<path class="st0" d="M61.66,586.51c0,0-5.82-20.41-22.43-27.19C39.23,559.31,44.8,593.24,61.66,586.51z"/>
	<path d="M57.36,589.19c-1.99,0-3.9-0.51-5.72-1.54c-10.43-5.89-14.03-27.14-14.17-28.04c-0.11-0.64,0.14-1.29,0.65-1.69
		c0.51-0.4,1.19-0.5,1.79-0.26c17.22,7.03,23.23,27.49,23.48,28.36c0.25,0.88-0.2,1.82-1.06,2.16
		C60.63,588.85,58.97,589.19,57.36,589.19z M41.73,562.51c1.42,6.06,5.02,18.25,11.68,22.01c1.88,1.06,3.84,1.33,5.98,0.83
		C57.77,580.92,52.49,568.62,41.73,562.51z"/>
</g>
<g>
	<path class="st0" d="M62.05,558.33c0,0-3.82-25.9,12.75-33.88C74.81,524.45,83.37,545.1,62.05,558.33z"/>
	<path d="M62.05,560.12c-0.26,0-0.51-0.05-0.75-0.17c-0.55-0.25-0.93-0.77-1.02-1.36c-0.16-1.11-3.81-27.3,13.75-35.76
		c0.45-0.21,0.96-0.23,1.42-0.06c0.46,0.18,0.83,0.53,1.02,0.99c0.09,0.22,8.88,22.22-13.47,36.09
		C62.71,560.03,62.38,560.12,62.05,560.12z M73.79,527.06c-10.27,6.5-10.59,21.69-10.23,28.09
		C77.2,545.16,75.17,531.97,73.79,527.06z"/>
</g>
<g>
	<path class="st0" d="M90.99,654.07c0,0-19.43-14.11-31.95,0.74C59.04,654.81,76.79,670.32,90.99,654.07z"/>
	<path d="M76.06,663.26c-9.89,0-18.07-6.99-18.2-7.1c-0.74-0.64-0.82-1.76-0.19-2.51c13.44-15.94,34.16-1.19,34.37-1.04
		c0.41,0.29,0.67,0.75,0.73,1.25c0.06,0.5-0.1,1-0.43,1.38C87.07,661.28,81.32,663.26,76.06,663.26z M61.68,654.59
		c4.12,2.97,16.1,9.94,26.54-0.2C83.62,651.63,70.97,645.44,61.68,654.59z"/>
</g>
<g>
	<path d="M526.15,817.33c-0.51,0-1.03-0.11-1.52-0.34c-1.79-0.84-2.56-2.98-1.72-4.77c30.88-65.55,38.54-108.08,22.74-126.41
		c-0.92-1.06-2.09-2.27-3.45-3.66c-5.73-5.88-14.38-14.77-21.16-29.69c-2.96-6.52-9.87-21.76-8.38-39.67
		c1.3-15.6,7.99-24.49,25.87-48.25c2.2-2.92,4.57-6.07,7.13-9.5c11.31-15.14,22.68-30.84,33.79-46.66c1.14-1.62,3.38-2.01,5-0.87
		c1.62,1.14,2.01,3.38,0.87,4.99c-11.15,15.87-22.57,31.63-33.92,46.83c-2.56,3.43-4.94,6.59-7.14,9.52
		c-17.45,23.19-23.33,31-24.46,44.54c-1.33,16.05,4.81,29.59,7.76,36.1c6.26,13.79,14.39,22.14,19.77,27.66
		c1.47,1.51,2.75,2.83,3.75,3.98c18.06,20.96,10.97,64.84-21.69,134.14C528.79,816.57,527.5,817.33,526.15,817.33z"/>
</g>
<g>
	<path d="M514.89,819.28c-1.27,0-2.5-0.67-3.15-1.86c-17.65-32.26-33.39-65.29-46.79-98.2c-5.05-12.39-9.25-23.48-13.31-34.2
		c-8.27-21.82-16.07-42.43-29.71-70.67c-8.87-18.36-18.54-36.51-28.75-53.93c-1-1.71-0.43-3.9,1.28-4.91c1.71-1,3.9-0.43,4.91,1.28
		c10.3,17.59,20.06,35.9,29.01,54.44c13.77,28.52,21.63,49.27,29.96,71.25c4.05,10.68,8.23,21.73,13.24,34.03
		c13.3,32.66,28.92,65.44,46.44,97.46c0.95,1.74,0.32,3.92-1.42,4.87C516.06,819.14,515.47,819.28,514.89,819.28z"/>
</g>
<g>
	<path class="st0" d="M558.33,538.93c0,0,6.95-28.27-19.01-49.57c0,0,4.35,10.05,2.1,24.65
		C539.16,528.61,558.33,538.93,558.33,538.93z"/>
	<path d="M557.99,540.69c-0.18-0.03-0.35-0.1-0.51-0.18c-0.83-0.45-20.25-11.1-17.84-26.77c2.15-13.93-1.93-23.57-1.97-23.66
		c-0.33-0.76-0.09-1.65,0.56-2.14c0.66-0.5,1.57-0.48,2.22,0.05c26.52,21.76,19.68,51.09,19.61,51.38
		c-0.13,0.54-0.51,0.99-1.01,1.21C558.72,540.71,558.35,540.75,557.99,540.69z M542.8,494.95c0.93,4.53,1.63,11.25,0.38,19.33
		c-1.6,10.37,9.12,18.65,13.84,21.75C557.94,529.44,558.7,511.03,542.8,494.95z"/>
</g>
<g>
	<path class="st0" d="M530.04,577.44c0,0,7.45-27.98-16.98-44.84C513.07,532.6,509.72,571.4,530.04,577.44z"/>
	<path d="M529.8,579.22c-0.09-0.01-0.18-0.03-0.27-0.06c-21.47-6.39-18.39-45.07-18.25-46.72c0.05-0.64,0.44-1.19,1.02-1.47
		c0.57-0.27,1.26-0.21,1.78,0.15c25.17,17.38,17.77,46.49,17.69,46.78c-0.12,0.47-0.43,0.87-0.86,1.1
		C530.58,579.19,530.18,579.27,529.8,579.22z M514.7,536.04c-0.23,8.88,0.44,33,14.02,39C529.81,568.89,531.59,549.63,514.7,536.04z
		"/>
</g>
<g>
	<path class="st0" d="M534.72,577.24c0,0,20.19-13.21,39.3,15.67c0,0-11.76-3.95-19.96-0.91
		C545.84,595.05,534.72,577.24,534.72,577.24z"/>
	<path d="M550.21,593.94c-8.04-1.77-15.99-14.1-17.01-15.74c-0.52-0.83-0.28-1.92,0.54-2.45c0.22-0.14,21.92-13.84,41.78,16.18
		c0.42,0.64,0.39,1.47-0.07,2.08c-0.46,0.61-1.23,0.87-1.99,0.61c-0.11-0.03-11.27-3.71-18.77-0.93
		C553.21,594.23,551.71,594.27,550.21,593.94z M537.29,577.88c3.49,5.05,11.16,14.28,16.14,12.44c5.33-1.98,11.89-1.26,16.28-0.37
		C555.58,571.65,541.88,575.74,537.29,577.88z"/>
</g>
<g>
	<path class="st0" d="M561.09,544.7c0,0,16.78-17.76,36.05-11.04C597.14,533.66,582.33,562.83,561.09,544.7z"/>
	<path d="M574.99,552.43c-5.05,0-10.1-2.13-15.06-6.37c-0.37-0.32-0.6-0.78-0.63-1.27c-0.03-0.49,0.15-0.97,0.49-1.33
		c0.72-0.76,17.82-18.51,37.95-11.5c0.49,0.17,0.88,0.54,1.07,1.02c0.19,0.48,0.17,1.02-0.07,1.48
		c-0.31,0.62-7.81,15.14-20.19,17.61C577.36,552.32,576.18,552.43,574.99,552.43z M563.81,544.59c4.73,3.56,9.45,4.89,14.02,3.98
		c8.24-1.64,14.27-10.04,16.63-13.84C580.45,531.16,567.92,540.9,563.81,544.59z"/>
</g>
<g>
	<path class="st0" d="M577.73,470.19c0,0,20.2,20.5,5.17,42.16C582.9,512.35,566.46,504.11,577.73,470.19z"/>
	<path d="M582.9,514.14c-0.27,0-0.55-0.06-0.8-0.19c-0.73-0.37-17.69-9.33-6.07-44.33c0.2-0.59,0.69-1.04,1.3-1.18
		c0.6-0.15,1.24,0.04,1.68,0.49c0.21,0.22,21.06,21.82,5.36,44.44C584.02,513.87,583.47,514.14,582.9,514.14z M578.46,473.83
		c-7.09,23.95,0.68,33.29,3.94,36C591.99,494.29,582.82,479.46,578.46,473.83z"/>
</g>
<g>
	<path class="st0" d="M513.2,619.95c0,0-4.59-22.53-33.78-30.99C479.42,588.96,483.95,614.9,513.2,619.95z"/>
	<path d="M513.55,621.71c-0.21,0.04-0.43,0.04-0.65,0.01c-30.16-5.2-35.2-32.18-35.24-32.45c-0.1-0.61,0.11-1.23,0.57-1.64
		c0.46-0.41,1.1-0.56,1.69-0.39c29.89,8.66,34.84,31.39,35.04,32.36c0.12,0.58-0.06,1.18-0.47,1.6
		C514.23,621.46,513.9,621.64,513.55,621.71z M481.97,591.64c2.04,6.45,8.8,21.32,28.67,25.96
		C508.55,611.84,501.72,598.43,481.97,591.64z"/>
</g>
<g>
	<path class="st0" d="M526.13,649.48c0,0,0.2-28.48,17.13-37.43C543.27,612.04,555.14,639.71,526.13,649.48z"/>
	<path d="M525.83,651.24c-0.27-0.05-0.53-0.15-0.75-0.31c-0.47-0.34-0.75-0.89-0.74-1.47c0.01-1.21,0.41-29.66,18.09-39
		c0.44-0.23,0.96-0.26,1.43-0.1c0.47,0.16,0.85,0.52,1.05,0.98c0.22,0.52,5.46,13.02,0.27,24.64c-3.13,7.01-9.35,12.12-18.48,15.19
		C526.42,651.27,526.12,651.29,525.83,651.24z M542.31,614.7c-11.33,7.57-13.74,25.41-14.25,32.14c6.78-2.78,11.43-6.91,13.85-12.33
		C545.35,626.82,543.47,618.42,542.31,614.7z"/>
</g>
<g>
	<path class="st0" d="M543.16,681.58c0,0-13.2-22.65-30.41-16.93C512.75,664.65,523.85,687.55,543.16,681.58z"/>
	<path d="M539.66,684.18c-18.06,2.35-28.42-18.53-28.53-18.75c-0.22-0.47-0.24-1-0.04-1.48c0.2-0.48,0.6-0.84,1.09-1.01
		c18.34-6.07,31.96,16.75,32.52,17.73c0.27,0.47,0.32,1.05,0.12,1.56c-0.2,0.51-0.62,0.9-1.14,1.06
		C542.31,683.72,540.97,684.01,539.66,684.18z M515.42,665.8c2.9,4.91,11.41,17.14,24.86,14.65
		C536.85,675.54,527.11,663.59,515.42,665.8z"/>
</g>
<g>
	<path class="st0" d="M556.18,695.49c0,0-0.46-27.94,14.52-36.68C570.7,658.81,577.31,691.19,556.18,695.49z"/>
	<path d="M555.96,697.27c-0.33-0.04-0.64-0.17-0.9-0.38c-0.42-0.33-0.66-0.83-0.67-1.37c-0.02-1.18-0.3-29.09,15.41-38.26
		c0.5-0.3,1.1-0.33,1.63-0.09c0.53,0.24,0.91,0.71,1.02,1.28c0.07,0.34,1.7,8.47,0.69,17.29c-1.39,12.14-7.13,19.58-16.61,21.51
		C556.35,697.29,556.15,697.3,555.96,697.27z M569.37,661.91c-9.48,7.75-11.08,24.98-11.35,31.23c6.58-2.26,10.46-8.24,11.56-17.81
		C570.19,670.04,569.76,664.92,569.37,661.91z"/>
</g>
<g>
	<path class="st0" d="M552.03,746.05c0,0,5.75-24.12,27.81-22.75C579.84,723.3,575.85,748.7,552.03,746.05z"/>
	<path d="M555.44,748.04c-1.16,0-2.36-0.07-3.61-0.21c-0.51-0.06-0.97-0.33-1.27-0.75c-0.29-0.42-0.4-0.95-0.28-1.45
		c0.06-0.26,6.25-25.56,29.67-24.13c0.5,0.03,0.97,0.27,1.28,0.67c0.32,0.4,0.45,0.9,0.37,1.4
		C581.57,723.83,577.5,748.04,555.44,748.04z M554.38,744.43c0.35,0.01,0.69,0.02,1.04,0.02c15.77,0,20.85-14.05,22.22-19.41
		C562.33,725.28,556.19,739.1,554.38,744.43z"/>
</g>
<g>
	<path class="st0" d="M551.86,740c0,0-5.18-20.29-27.77-22.16C524.09,717.84,533.78,748.69,551.86,740z"/>
	<path d="M548.36,743.07c-2.94,0.57-5.83,0.25-8.63-0.96c-11.33-4.92-17.11-22.96-17.35-23.72c-0.18-0.57-0.06-1.19,0.31-1.66
		c0.37-0.47,0.95-0.72,1.55-0.67c23.59,1.95,29.3,23.28,29.36,23.5c0.21,0.83-0.19,1.69-0.96,2.06
		C551.2,742.31,549.77,742.79,548.36,743.07z M526.78,719.98c1.98,5.01,6.93,15.61,14.39,18.84c2.75,1.19,5.55,1.24,8.49,0.17
		C548.12,734.72,542.42,722.55,526.78,719.98z"/>
</g>
<g>
	<path class="st0" d="M539.77,790.22c0,0,10.2-20.23,29.54-10.63C569.31,779.59,558.09,803.38,539.77,790.22z"/>
	<path d="M550.62,795.99c-3.92,0-7.91-1.44-11.9-4.31c-0.71-0.51-0.95-1.47-0.55-2.26c0.11-0.22,11.24-21.7,31.94-11.44
		c0.88,0.43,1.24,1.49,0.83,2.37c-0.24,0.51-5.98,12.45-16.25,15.11C553.34,795.81,551.98,795.99,550.62,795.99z M542.15,789.67
		c3.99,2.5,7.91,3.29,11.61,2.33c6.61-1.71,11.23-8.45,13.05-11.57C553.01,774.72,544.65,785.66,542.15,789.67z"/>
</g>
<g>
	<path class="st0" d="M496.52,781.56c0,0,23.71-9.61,19.95-34.14C516.47,747.42,496.77,754.15,496.52,781.56z"/>
	<path d="M496.52,783.35c-0.35,0-0.71-0.1-1.01-0.31c-0.49-0.34-0.79-0.9-0.78-1.5c0.26-28.36,20.95-35.74,21.16-35.82
		c0.49-0.17,1.05-0.11,1.51,0.16c0.46,0.28,0.76,0.74,0.84,1.26c3.93,25.63-20.8,35.97-21.05,36.07
		C496.97,783.31,496.75,783.35,496.52,783.35z M514.98,750.05c-4.63,2.41-15.36,9.96-16.56,28.58
		C503.97,775.58,516.36,766.82,514.98,750.05z"/>
</g>
<g>
	<path class="st0" d="M487.7,770.26c0,0-9.63-20.64-31.18-27.35C456.52,742.91,473.75,786.79,487.7,770.26z"/>
	<path d="M480.93,775.78c-0.51,0-1.02-0.05-1.54-0.13c-12.41-2.04-23.34-29.01-24.54-32.09c-0.25-0.64-0.11-1.37,0.36-1.88
		c0.47-0.51,1.19-0.69,1.85-0.49c22.06,6.87,31.87,27.43,32.27,28.31c0.29,0.63,0.2,1.38-0.26,1.91
		C486.62,774.31,483.89,775.78,480.93,775.78z M459.76,745.99c4.12,9.23,12.57,24.86,20.21,26.12c1.97,0.31,3.79-0.38,5.56-2.14
		C483.42,766.08,475.11,752.39,459.76,745.99z"/>
</g>
<g>
	<path class="st0" d="M473.06,733.2c0,0,15.44-3.61,8.23-51.36C481.29,681.84,461.03,702.36,473.06,733.2z"/>
	<path d="M473.06,734.99c-0.72,0-1.4-0.44-1.67-1.14c-12.31-31.56,8.41-53.06,8.62-53.27c0.47-0.48,1.18-0.65,1.83-0.44
		c0.65,0.21,1.12,0.77,1.22,1.44c7.38,48.83-8.9,53.21-9.59,53.38C473.33,734.98,473.19,734.99,473.06,734.99z M480.08,686.09
		c-4.73,6.38-13.81,22.48-6.06,44.55C477.21,728.17,484.38,718.83,480.08,686.09z"/>
</g>
<g>
	<path class="st0" d="M469.7,719.05c0,0-15.52-14.04-32.15-2.98C437.55,716.07,459.01,740.59,469.7,719.05z"/>
	<path d="M457.83,729.7c-10.61,0-21.16-11.91-21.63-12.45c-0.34-0.39-0.5-0.9-0.43-1.42c0.07-0.51,0.35-0.97,0.78-1.25
		c17.6-11.71,34.18,3,34.35,3.14c0.6,0.54,0.76,1.41,0.4,2.13c-2.9,5.83-6.84,9.1-11.74,9.74
		C458.99,729.66,458.41,729.7,457.83,729.7z M440.38,716.44c3.29,3.28,11.5,10.51,18.73,9.59c3.3-0.43,6.09-2.62,8.32-6.53
		C463.97,716.86,452.72,709.62,440.38,716.44z"/>
</g>
<g>
	<path class="st0" d="M456.16,677.02c0,0,19.86-7.01,18.22-44.55C474.38,632.48,449.53,642.05,456.16,677.02z"/>
	<path d="M456.15,678.81c-0.31,0-0.62-0.08-0.89-0.24c-0.46-0.26-0.77-0.71-0.87-1.22c-6.82-36.02,19.08-46.45,19.34-46.55
		c0.53-0.21,1.14-0.14,1.62,0.18c0.48,0.32,0.78,0.84,0.81,1.42c1.68,38.42-18.56,46.01-19.42,46.31
		C456.56,678.78,456.35,678.81,456.15,678.81z M472.67,635.32c-5.64,3.24-19.05,13.74-15.16,39.03
		C462.12,671.58,473.11,662.15,472.67,635.32z"/>
</g>
<g>
	<path class="st0" d="M450.35,680.01c0,0-16.33-15.04-31.77-0.62c0,0,10.84-1.65,19.01,8.11c8.17,9.76,18.92-0.51,18.92-0.51
		L450.35,680.01z"/>
	<path d="M445.85,693.5c-0.22,0-0.44-0.01-0.67-0.02c-3.42-0.19-6.43-1.81-8.96-4.83c-7.43-8.88-17.27-7.5-17.37-7.49
		c-0.79,0.13-1.54-0.28-1.88-0.99c-0.34-0.71-0.19-1.55,0.39-2.09c16.46-15.38,34.02,0.44,34.2,0.61c0.05,0.04,0.09,0.09,0.13,0.13
		l6.17,6.98c0.64,0.72,0.59,1.82-0.11,2.48C457.53,688.5,452.22,693.5,445.85,693.5z M423.7,677.72c4.22,0.59,10.21,2.58,15.28,8.63
		c1.88,2.25,3.97,3.41,6.39,3.55c3.52,0.13,6.8-1.81,8.57-3.12l-4.87-5.51C447.96,680.28,436.1,670.14,423.7,677.72z"/>
</g>
<g>
	<path class="st0" d="M439.38,638.61c0,0,16.39-14.91,3.24-47.04C442.62,591.57,428.08,614.48,439.38,638.61z"/>
	<path d="M439.38,640.4c-0.12,0-0.23-0.01-0.35-0.04c-0.56-0.11-1.03-0.48-1.27-1c-11.58-24.74,2.73-47.79,3.35-48.76
		c0.36-0.57,1-0.89,1.67-0.83c0.67,0.06,1.25,0.49,1.5,1.11c13.47,32.92-2.98,48.4-3.69,49.05
		C440.25,640.24,439.82,640.4,439.38,640.4z M442.35,595.89c-3.2,6.73-9.02,22.65-2.44,39.4
		C443.39,630.68,450.18,617.99,442.35,595.89z"/>
</g>
<g>
	<path class="st0" d="M431.32,625.4c0,0-12.67-21.5-32.01-18.94C399.32,606.46,417.11,641.54,431.32,625.4z"/>
	<path d="M423.13,631.44c-0.49,0-0.98-0.03-1.47-0.09c-12.4-1.58-23.48-23.15-23.94-24.07c-0.26-0.52-0.26-1.13,0.01-1.65
		c0.27-0.51,0.77-0.86,1.35-0.94c20.23-2.7,33.24,18.89,33.78,19.81c0.4,0.67,0.32,1.51-0.2,2.09
		C429.83,629.81,426.62,631.44,423.13,631.44z M402.21,608.05c3.87,6.78,12.2,18.76,19.9,19.74c2.48,0.3,4.78-0.54,6.94-2.6
		c-2.7-3.98-12.66-17.14-26.57-17.14C402.39,608.05,402.3,608.05,402.21,608.05z"/>
</g>
<g>
	<path class="st0" d="M415.32,593.34c0,0,0.17-24.63,14.01-30.36C429.33,562.98,437.07,585.53,415.32,593.34z"/>
	<path d="M415.32,595.14c-0.37,0-0.73-0.11-1.04-0.33c-0.48-0.34-0.76-0.89-0.76-1.48c0.01-1.05,0.34-25.88,15.12-32.01
		c0.46-0.19,0.97-0.18,1.43,0.02c0.45,0.2,0.79,0.58,0.96,1.05c0.08,0.24,8.04,24.31-15.1,32.63
		C415.73,595.1,415.53,595.14,415.32,595.14z M428.19,565.57c-8.44,5.16-10.45,19.09-10.92,25.03
		C430.9,584.17,429.35,570.7,428.19,565.57z"/>
</g>
<g>
	<path class="st0" d="M407.31,586.51c0,0-5.82-20.41-22.43-27.19C384.88,559.31,390.45,593.24,407.31,586.51z"/>
	<path d="M403.01,589.19c-1.99,0-3.9-0.51-5.72-1.54c-10.43-5.89-14.03-27.14-14.17-28.04c-0.11-0.64,0.14-1.29,0.65-1.69
		c0.5-0.4,1.2-0.5,1.79-0.26c17.22,7.03,23.23,27.49,23.48,28.36c0.25,0.88-0.2,1.82-1.06,2.16
		C406.28,588.85,404.62,589.19,403.01,589.19z M387.38,562.51c1.42,6.06,5.02,18.25,11.68,22.01c1.88,1.06,3.84,1.33,5.98,0.83
		C403.42,580.92,398.13,568.62,387.38,562.51z"/>
</g>
<g>
	<path class="st0" d="M396.49,558.33c0,0-3.82-25.9,12.75-33.88C409.24,524.45,417.8,545.1,396.49,558.33z"/>
	<path d="M396.49,560.12c-0.26,0-0.51-0.05-0.75-0.17c-0.55-0.25-0.93-0.77-1.02-1.36c-0.16-1.11-3.81-27.3,13.75-35.76
		c0.44-0.21,0.96-0.23,1.42-0.06c0.46,0.18,0.83,0.53,1.02,0.99c0.09,0.22,8.88,22.22-13.47,36.09
		C397.14,560.03,396.81,560.12,396.49,560.12z M408.23,527.06c-10.27,6.5-10.59,21.69-10.23,28.09
		C411.64,545.16,409.6,531.97,408.23,527.06z"/>
</g>
<g>
	<path class="st0" d="M441.4,647.33c0,0-19.43-14.11-31.95,0.74C409.45,648.07,427.19,663.58,441.4,647.33z"/>
	<path d="M426.47,656.53c-9.9,0-18.07-7-18.2-7.11c-0.74-0.64-0.82-1.76-0.19-2.5c13.45-15.94,34.16-1.18,34.37-1.03
		c0.41,0.29,0.67,0.75,0.73,1.25c0.06,0.5-0.1,1-0.43,1.38C437.47,654.55,431.73,656.53,426.47,656.53z M412.09,647.85
		c4.11,2.97,16.1,9.95,26.54-0.19C434.04,644.89,421.38,638.69,412.09,647.85z"/>
</g>
<g>
	<path d="M814.24,817.33c-0.55,0-1.11-0.13-1.63-0.39c-1.76-0.9-2.46-3.06-1.56-4.83c25.4-49.63,31.73-87.15,18.79-111.5
		c-0.84-1.58-1.89-3.36-3.08-5.38c-5.37-9.13-13.5-22.93-17.87-43.51c-1.63-7.69-4.67-22.01-2.04-39.78
		c0.78-5.31,2.86-19.41,26.76-56.69c10.34-16.13,21.81-31.97,34.09-47.07c1.25-1.54,3.5-1.77,5.04-0.52
		c1.54,1.25,1.77,3.51,0.52,5.04c-12.11,14.9-23.42,30.52-33.62,46.42c-23.07,35.99-25.05,49.45-25.7,53.87
		c-2.44,16.5,0.43,29.99,1.97,37.24c4.13,19.44,11.89,32.63,17.03,41.37c1.25,2.12,2.35,4,3.23,5.66
		c14.1,26.54,7.79,66.28-18.74,118.13C816.8,816.62,815.54,817.33,814.24,817.33z"/>
</g>
<g>
	<path d="M802.97,819.28c-1.48,0-2.86-0.92-3.38-2.39c-12.25-34.69-27.82-67.37-46.28-97.13c-6.92-11.17-13.36-20.53-19.59-29.59
		c-13.62-19.81-25.39-36.92-36.01-63.97c-8.39-21.34-14.07-43.94-16.9-67.15c-0.24-1.97,1.16-3.75,3.12-3.99
		c1.98-0.24,3.75,1.16,3.99,3.12c2.76,22.61,8.29,44.62,16.46,65.4c10.33,26.28,21.87,43.08,35.25,62.52
		c6.27,9.13,12.77,18.57,19.77,29.87c18.73,30.21,34.53,63.36,46.95,98.53c0.66,1.87-0.32,3.91-2.19,4.58
		C803.77,819.21,803.37,819.28,802.97,819.28z"/>
</g>
<g>
	<path class="st0" d="M845.99,540.48c0,0,5.93-28.5-20.78-48.85c0,0,4.71,9.88,2.98,24.56
		C826.46,530.86,845.99,540.48,845.99,540.48z"/>
	<path d="M845.99,542.28c-0.27,0-0.54-0.06-0.79-0.18c-0.84-0.42-20.64-10.36-18.79-26.11c1.64-13.93-2.78-23.48-2.83-23.58
		c-0.35-0.75-0.15-1.64,0.49-2.16c0.64-0.52,1.55-0.54,2.21-0.04c27.3,20.79,21.52,50.35,21.45,50.64c-0.11,0.54-0.47,1-0.97,1.24
		C846.53,542.21,846.26,542.28,845.99,542.28z M828.89,497.09c1.1,4.49,2.04,11.18,1.09,19.31c-1.23,10.42,9.79,18.31,14.61,21.24
		C845.26,531.02,845.36,512.6,828.89,497.09z"/>
</g>
<g>
	<path class="st0" d="M818.24,581.42c0,0,9.92-27.2-12.91-46.18C805.33,535.24,798.54,573.59,818.24,581.42z"/>
	<path d="M818.24,583.21c-0.22,0-0.45-0.04-0.66-0.13c-20.82-8.27-14.3-46.53-14.02-48.16c0.11-0.63,0.55-1.15,1.15-1.37
		c0.6-0.22,1.27-0.1,1.76,0.31c23.53,19.55,13.56,47.89,13.45,48.17c-0.16,0.46-0.51,0.82-0.95,1.02
		C818.74,583.16,818.49,583.21,818.24,583.21z M806.64,538.82c-1.02,8.82-2.51,32.9,10.49,40.1
		C818.77,572.89,822.26,553.85,806.64,538.82z"/>
</g>
<g>
	<path class="st0" d="M822.23,579.09c0,0,23.6-5.04,31.01,28.78c0,0-9.54-7.92-18.3-8.04C826.19,599.7,822.23,579.09,822.23,579.09z
		"/>
	<path d="M853.24,609.66c-0.41,0-0.82-0.14-1.14-0.41c-0.09-0.07-9.17-7.52-17.17-7.63c-9.93-0.14-14.02-19.94-14.45-22.2
		c-0.18-0.96,0.43-1.89,1.39-2.09c0.25-0.06,25.43-5.01,33.13,30.15c0.16,0.75-0.16,1.52-0.82,1.92
		C853.88,609.57,853.56,609.66,853.24,609.66z M824.4,580.61c1.44,5.97,5.26,17.35,10.57,17.42c5.69,0.08,11.54,3.11,15.31,5.52
		C843.7,581.38,829.48,580.25,824.4,580.61z"/>
</g>
<g>
	<path class="st0" d="M849.52,540.94c0,0,22.51-9.5,37.44,4.41C886.97,545.35,861.66,566.09,849.52,540.94z"/>
	<path d="M863.08,554.84c-0.18-0.03-0.36-0.07-0.55-0.11c-6.2-1.37-11.12-5.74-14.62-13c-0.21-0.44-0.24-0.95-0.06-1.41
		c0.17-0.46,0.53-0.83,0.98-1.02c0.97-0.4,23.77-9.78,39.36,4.75c0.38,0.35,0.59,0.85,0.57,1.37s-0.26,1-0.66,1.33
		C887.57,547.17,875.23,557.14,863.08,554.84z M852.05,541.93c2.9,5.16,6.68,8.28,11.25,9.29c8.16,1.78,17.1-3.44,20.78-5.98
		C872.69,536.34,857.31,540.21,852.05,541.93z"/>
</g>
<g>
	<path class="st0" d="M863.37,470.35c0,0,21,19.67,6.85,41.92C870.22,512.27,853.46,504.69,863.37,470.35z"/>
	<path d="M870.22,514.06c-0.25,0-0.5-0.05-0.74-0.16c-0.74-0.33-18.05-8.62-7.84-44.05c0.17-0.6,0.64-1.07,1.25-1.23
		c0.61-0.17,1.25-0.01,1.7,0.42c0.22,0.21,21.92,20.96,7.14,44.19C871.39,513.76,870.81,514.06,870.22,514.06z M864.26,473.92
		c-6.2,24.39,1.95,33.32,5.36,35.87C878.73,493.67,868.89,479.33,864.26,473.92z"/>
</g>
<g>
	<path class="st0" d="M808.33,614.38c0,0-7.86-21.61-37.99-25.67C770.34,588.71,778.65,613.7,808.33,614.38z"/>
	<path d="M808.33,616.17c-0.01,0-0.03,0-0.04,0c-30.59-0.7-39.56-26.63-39.65-26.89c-0.2-0.59-0.07-1.23,0.32-1.71
		c0.4-0.48,1-0.72,1.62-0.63c30.85,4.16,39.1,25.91,39.43,26.83c0.2,0.56,0.12,1.18-0.23,1.66
		C809.45,615.9,808.91,616.17,808.33,616.17z M773.25,590.99c2.97,6.07,11.86,19.79,32.19,21.44
		C802.53,607.05,793.8,594.8,773.25,590.99z"/>
</g>
<g>
	<path class="st0" d="M812.02,644.44c0,0,14.39-24.58,33.53-23.88C845.55,620.57,842.02,650.46,812.02,644.44z"/>
	<path d="M811.39,646.12c-0.45-0.17-0.81-0.5-1.01-0.95c-0.24-0.53-0.2-1.14,0.09-1.64c0.61-1.04,15.16-25.5,35.15-24.76
		c0.5,0.02,0.97,0.24,1.3,0.63c0.33,0.38,0.48,0.88,0.42,1.38c-0.07,0.56-1.76,14.01-12.07,21.48c-6.21,4.51-14.15,5.84-23.6,3.94
		C811.57,646.18,811.48,646.16,811.39,646.12z M843.39,622.39c-13.59,0.91-24.58,15.15-28.39,20.74c7.25,0.98,13.34-0.28,18.14-3.75
		C839.95,634.44,842.53,626.19,843.39,622.39z"/>
</g>
<g>
	<path class="st0" d="M821.9,680.28c0,0-10.16-24.16-27.97-20.72C793.93,659.56,801.98,683.71,821.9,680.28z"/>
	<path d="M818.09,682.41c-18.21,0-25.78-22.04-25.86-22.28c-0.16-0.49-0.11-1.03,0.15-1.47c0.26-0.45,0.7-0.76,1.21-0.86
		c18.96-3.65,29.52,20.74,29.96,21.79c0.21,0.5,0.18,1.07-0.08,1.55s-0.73,0.81-1.27,0.91
		C820.78,682.29,819.41,682.41,818.09,682.41z M796.44,661.05c2.24,5.24,9.24,18.49,22.75,17.74
		C816.42,673.48,808.28,660.37,796.44,661.05z"/>
</g>
<g>
	<path class="st0" d="M833.25,696.13c0,0-3.94-27.66,9.83-38.21C843.08,657.92,853.68,689.22,833.25,696.13z"/>
	<path d="M833.24,697.92c-0.33,0-0.65-0.09-0.94-0.27c-0.46-0.28-0.76-0.75-0.84-1.27c-0.17-1.17-3.92-28.83,10.52-39.88
		c0.46-0.36,1.06-0.47,1.61-0.29c0.55,0.17,0.99,0.59,1.18,1.14c0.11,0.33,2.74,8.2,2.84,17.07c0.14,12.22-4.63,20.31-13.79,23.41
		C833.63,697.89,833.44,697.92,833.24,697.92z M842.14,661.16c-8.45,8.88-7.88,26.17-7.37,32.4c6.25-3.06,9.36-9.47,9.25-19.11
		C843.97,669.13,842.91,664.1,842.14,661.16z"/>
</g>
<g>
	<path class="st0" d="M837.73,743.76c0,0,11.7-21.87,32.69-14.93C870.42,728.83,860.09,752.38,837.73,743.76z"/>
	<path d="M847.24,747.46c-3.08,0-6.47-0.6-10.15-2.02c-0.48-0.19-0.86-0.57-1.04-1.05c-0.18-0.48-0.14-1.02,0.1-1.47
		c0.12-0.23,12.68-23.12,34.83-15.79c0.48,0.16,0.87,0.51,1.07,0.97c0.2,0.46,0.21,0.99,0,1.45
		C871.97,729.76,863.98,747.46,847.24,747.46z M840.44,742.8c15.86,4.8,24.66-7.9,27.4-12.85
		C853.16,726.37,843.57,738.15,840.44,742.8z"/>
</g>
<g>
	<path class="st0" d="M836.37,740.42c0,0-6.29-19.98-28.94-20.61C807.43,719.82,818.79,750.09,836.37,740.42z"/>
	<path d="M829.48,744.12c-1.71,0-3.42-0.31-5.11-0.94c-11.59-4.29-18.34-21.99-18.62-22.74c-0.21-0.56-0.13-1.19,0.22-1.67
		c0.35-0.49,0.9-0.71,1.51-0.75c23.66,0.65,30.53,21.65,30.6,21.86c0.26,0.82-0.1,1.7-0.84,2.11
		C834.65,743.41,832.06,744.12,829.48,744.12z M810.22,721.8c2.25,4.89,7.78,15.21,15.39,18.02c2.81,1.04,5.61,0.95,8.49-0.29
		C832.34,735.35,825.98,723.51,810.22,721.8z"/>
</g>
<g>
	<path class="st0" d="M827.16,789.44c0,0,15.44-16.58,31.34-1.97C858.5,787.48,841.08,807.19,827.16,789.44z"/>
	<path d="M840.51,798.65c-0.16,0-0.33,0-0.49-0.01c-5.38-0.16-10.18-2.88-14.27-8.09c-0.54-0.69-0.5-1.68,0.1-2.33
		c0.16-0.18,16.86-17.7,33.86-2.07c0.72,0.66,0.78,1.78,0.13,2.51C859.48,789.08,850.9,798.65,840.51,798.65z M829.6,789.58
		c3.15,3.52,6.68,5.36,10.52,5.48c0.13,0,0.26,0.01,0.39,0.01c6.7,0,12.8-5.03,15.37-7.48C844.18,778.26,833.13,786.42,829.6,789.58
		z"/>
</g>
<g>
	<path class="st0" d="M789.34,775.51c0,0,23.71-9.61,19.95-34.14C809.28,741.38,789.58,748.1,789.34,775.51z"/>
	<path d="M789.34,777.31c-0.35,0-0.71-0.11-1.01-0.31c-0.49-0.34-0.79-0.9-0.78-1.5c0.26-28.36,20.95-35.75,21.16-35.82
		c0.49-0.17,1.05-0.11,1.51,0.16c0.46,0.28,0.76,0.74,0.84,1.26c3.93,25.64-20.79,35.97-21.05,36.08
		C789.79,777.26,789.56,777.31,789.34,777.31z M807.79,744c-4.63,2.41-15.36,9.96-16.56,28.59
		C796.79,769.53,809.17,760.78,807.79,744z"/>
</g>
<g>
	<path class="st0" d="M782.77,765.2c0,0-17.77-14.25-40.07-10.73C742.7,754.47,777.57,786.19,782.77,765.2z"/>
	<path d="M774.4,774.17c-12.33,0-30.68-16.35-32.91-18.37c-0.51-0.47-0.71-1.18-0.51-1.84c0.2-0.66,0.76-1.15,1.44-1.26
		c22.83-3.6,40.72,10.51,41.47,11.11c0.55,0.43,0.79,1.15,0.62,1.83c-1.07,4.31-3.36,7.03-6.81,8.08
		C776.67,774.02,775.56,774.17,774.4,774.17z M746.97,755.8c7.78,6.46,22.28,16.74,29.68,14.48c1.9-0.58,3.23-2.01,4.04-4.38
		C777.09,763.35,763.56,754.78,746.97,755.8z"/>
</g>
<g>
	<path class="st0" d="M766.11,731.07c0,0,15.81,1.18,23.23-46.54C789.34,684.53,763.87,698.04,766.11,731.07z"/>
	<path d="M766.18,732.86c-0.11,0-0.18,0-0.21,0c-0.89-0.07-1.6-0.78-1.66-1.67c-2.29-33.8,23.91-48.11,24.18-48.25
		c0.6-0.32,1.33-0.27,1.88,0.12c0.55,0.39,0.84,1.06,0.73,1.74C783.88,731.27,768.27,732.86,766.18,732.86z M786.91,688.22
		c-6.42,4.67-19.91,17.32-19.12,40.69C771.57,727.51,781.21,720.74,786.91,688.22z"/>
</g>
<g>
	<path class="st0" d="M757.79,719.05c0,0-15.52-14.04-32.15-2.98C725.64,716.07,747.09,740.59,757.79,719.05z"/>
	<path d="M745.92,729.7c-10.61,0-21.16-11.91-21.63-12.45c-0.34-0.39-0.5-0.9-0.43-1.42c0.07-0.51,0.35-0.97,0.78-1.25
		c17.6-11.71,34.18,3,34.35,3.14c0.6,0.54,0.76,1.41,0.4,2.13c-2.9,5.83-6.84,9.1-11.74,9.74
		C747.08,729.66,746.5,729.7,745.92,729.7z M728.47,716.44c3.29,3.28,11.49,10.51,18.73,9.59c3.3-0.43,6.09-2.62,8.32-6.53
		C752.05,716.86,740.81,709.62,728.47,716.44z"/>
</g>
<g>
	<path class="st0" d="M736.96,686.47c0,0,19.16-8.74,14.21-45.99C751.16,640.48,727.26,652.22,736.96,686.47z"/>
	<path d="M736.96,688.26c-0.26,0-0.51-0.06-0.75-0.16c-0.48-0.22-0.83-0.64-0.97-1.14c-9.99-35.28,14.89-47.96,15.14-48.09
		c0.52-0.26,1.13-0.25,1.64,0.03c0.51,0.27,0.86,0.77,0.93,1.34c5.08,38.12-14.41,47.47-15.24,47.85
		C737.47,688.2,737.21,688.26,736.96,688.26z M749.71,643.46c-5.33,3.72-17.75,15.37-11.64,40.22
		C742.42,680.52,752.53,670.15,749.71,643.46z"/>
</g>
<g>
	<path class="st0" d="M730.47,684.02c0,0-16.33-15.04-31.77-0.62c0,0,10.84-1.65,19.01,8.11c8.17,9.76,18.92-0.51,18.92-0.51
		L730.47,684.02z"/>
	<path d="M725.96,697.51c-0.22,0-0.44,0-0.66-0.02c-3.42-0.19-6.44-1.81-8.96-4.83c-7.44-8.89-17.27-7.5-17.37-7.49
		c-0.81,0.12-1.54-0.28-1.88-0.99c-0.34-0.71-0.19-1.55,0.39-2.09c16.47-15.39,34.02,0.44,34.2,0.61c0.05,0.04,0.09,0.09,0.13,0.13
		l6.16,6.98c0.64,0.72,0.59,1.82-0.11,2.48C737.64,692.51,732.34,697.51,725.96,697.51z M703.81,681.72
		c4.23,0.59,10.21,2.58,15.28,8.63c1.89,2.26,3.98,3.42,6.41,3.56c3.53,0.15,6.79-1.81,8.56-3.12l-4.87-5.51
		C728.08,684.29,716.22,674.14,703.81,681.72z"/>
</g>
<g>
	<path class="st0" d="M710.53,640.18c0,0,20.12-9.28,17.26-43.88C727.79,596.3,707.03,613.76,710.53,640.18z"/>
	<path d="M710.53,641.97c-0.3,0-0.6-0.07-0.86-0.22c-0.5-0.27-0.84-0.77-0.91-1.33c-3.59-27.07,17.01-44.75,17.88-45.49
		c0.51-0.43,1.21-0.54,1.85-0.28c0.62,0.26,1.04,0.84,1.1,1.51c2.93,35.45-17.43,45.25-18.3,45.65
		C711.04,641.91,710.79,641.97,710.53,641.97z M726.23,600.34c-5.08,5.45-15.42,18.89-14.2,36.84
		C716.74,633.83,727.05,623.78,726.23,600.34z"/>
</g>
<g>
	<path class="st0" d="M701.1,623.31c0,0-15.33-19.7-34.17-14.67C666.92,608.64,689.07,641.14,701.1,623.31z"/>
	<path d="M692.25,630.45c-12.49,0-26.23-19.95-26.81-20.8c-0.33-0.48-0.4-1.09-0.2-1.63c0.2-0.55,0.66-0.96,1.22-1.11
		c19.78-5.27,35.4,14.46,36.05,15.3c0.48,0.61,0.5,1.46,0.07,2.1c-2.73,4.06-6.2,6.12-10.3,6.13
		C692.26,630.45,692.25,630.45,692.25,630.45z M670,609.84c4.71,6.22,14.49,17.02,22.25,17.02c0.01,0,0.02,0,0.02,0
		c2.51-0.01,4.67-1.14,6.54-3.47C695.61,619.77,683.92,607.87,670,609.84z"/>
</g>
<g>
	<path class="st0" d="M691.35,593.34c0,0,0.17-24.63,14.01-30.36C705.36,562.98,713.09,585.53,691.35,593.34z"/>
	<path d="M691.35,595.14c-0.37,0-0.73-0.11-1.04-0.33c-0.48-0.34-0.76-0.89-0.76-1.48c0.01-1.05,0.35-25.88,15.12-32.01
		c0.46-0.19,0.97-0.18,1.43,0.02c0.45,0.2,0.79,0.58,0.96,1.05c0.08,0.24,8.04,24.31-15.1,32.63
		C691.76,595.1,691.55,595.14,691.35,595.14z M704.21,565.57c-8.43,5.16-10.45,19.09-10.92,25.03
		C706.92,584.18,705.38,570.7,704.21,565.57z"/>
</g>
<g>
	<path class="st0" d="M684.36,579.69c0,0-14.71-15.3-32.56-13.49C651.8,566.2,672.63,593.55,684.36,579.69z"/>
	<path d="M676.39,585.4c-0.12,0-0.23,0-0.34,0c-11.97-0.31-25.12-17.39-25.67-18.11c-0.4-0.52-0.48-1.21-0.22-1.8
		c0.26-0.6,0.82-1,1.46-1.07c18.61-1.88,33.42,13.38,34.04,14.03c0.64,0.66,0.67,1.7,0.08,2.4
		C683.17,583.87,680.03,585.4,676.39,585.4z M655.5,567.85c4.1,4.69,13,13.76,20.64,13.96c2.22,0.01,4.02-0.63,5.67-2.07
		C678.31,576.58,667.86,568.2,655.5,567.85z"/>
</g>
<g>
	<path class="st0" d="M684.57,558.33c0,0-3.82-25.9,12.75-33.88C697.33,524.45,705.88,545.1,684.57,558.33z"/>
	<path d="M684.57,560.12c-0.26,0-0.51-0.05-0.75-0.17c-0.55-0.25-0.93-0.77-1.02-1.36c-0.16-1.11-3.81-27.3,13.75-35.76
		c0.45-0.21,0.96-0.23,1.42-0.06c0.46,0.18,0.83,0.53,1.02,0.99c0.09,0.22,8.88,22.22-13.47,36.09
		C685.23,560.03,684.9,560.12,684.57,560.12z M696.31,527.06c-10.27,6.5-10.59,21.69-10.23,28.09
		C699.72,545.16,697.68,531.97,696.31,527.06z"/>
</g>
<g>
	<path class="st0" d="M711.66,647.33c0,0-19.43-14.11-31.95,0.74C679.71,648.07,697.45,663.58,711.66,647.33z"/>
	<path d="M696.72,656.53c-9.9,0-18.07-7-18.2-7.11c-0.74-0.64-0.82-1.76-0.19-2.5c13.45-15.94,34.17-1.18,34.37-1.03
		c0.41,0.29,0.67,0.75,0.73,1.25s-0.1,1-0.43,1.38C707.73,654.55,701.98,656.53,696.72,656.53z M682.34,647.85
		c4.12,2.97,16.1,9.95,26.54-0.19C704.29,644.89,691.63,638.69,682.34,647.85z"/>
</g>
</svg>
