<?xml version="1.0" encoding="utf-8"?>
<!-- Generator: Adobe Illustrator 23.1.1, SVG Export Plug-In . SVG Version: 6.00 Build 0)  -->
<svg version="1.1" id="Layer_1" xmlns="http://www.w3.org/2000/svg" xmlns:xlink="http://www.w3.org/1999/xlink" x="0px" y="0px"
	 viewBox="0 0 300 300" style="enable-background:new 0 0 300 300;" xml:space="preserve">
<style type="text/css">
	.st0{fill:#F4914F;}
	.st1{fill:#FFFFFF;}
	.st2{fill:#2B2341;}
	.st3{fill:#E1617C;}
	.st4{fill:#A93A5C;}
	.st5{fill:#F6BC90;}
	.st6{fill:#F7ADA5;}
	.st7{fill:#57A1CC;}
	.st8{fill:#F49088;}
	.st9{fill:#F9AD58;}
	.st10{fill:#B8693C;}
	.st11{fill:#FAC490;}
	.st12{fill:none;stroke:#2B2341;stroke-width:4;stroke-linecap:round;stroke-miterlimit:10;}
	.st13{fill:#717DA3;}
	.st14{fill:#7393CA;}
	.st15{fill:none;stroke:#F4914F;stroke-width:4;stroke-linecap:round;stroke-miterlimit:10;}
	.st16{fill:#BD426F;}
</style>
<g>
	<path class="st3" d="M277.09,104.04c-7.52,4.73-14.7,8.11-17.54,16.98c-1.71,5.36-2.88,7.28-8.74,8.35
		c-4.15,0.76-7.92,2.03-11.64,3.77c1.71-6.92,6.49-12.67,5.92-20.45c-0.25-3.37-2.93-5.12-5.58-5.24c1.83-0.99,3.63-2.04,5.35-3.31
		c2.68-1.99,4.42-4.51,5.57-7.32c3.82,0.15,7.63,0.3,11.45,0.45c7.05,0.28,7.03-10.67,0-10.95l-9.45-0.37
		c0.14-3.75-0.06-7.52-0.12-10.97c-0.11-7.04-11.06-7.06-10.95,0c0.13,8.42,1.89,16.78-6.28,22.04c-4.7,3.03-9.64,4.97-13.94,8.74
		c-7.64,6.7-12.85,15.32-15.82,24.91c-0.66-2.29-1.08-4.78-1.07-7.79c0.01-8.25-1.59-16.54-0.48-24.76
		c0.09-0.67,0.19-1.34,0.29-2.02c1.52-0.47,2.89-1.52,3.64-3.33c4.52-10.98,16.95-12.73,22.44-22.84c0.6-1.11,1.38-4.87,2.17-9.32
		c5.59,0.84,11.1,0.54,16.46-1.44c2.77-1.02,4.66-3.71,3.82-6.74c-0.73-2.67-3.95-4.85-6.73-3.82c-3.67,1.36-7.46,2-11.36,1.34
		c-0.14-0.02-0.28-0.02-0.42-0.04c0.82-5.12,1.47-9.23,1.7-9.29c6.84-1.68,3.94-12.24-2.91-10.56
		c-11.99,2.94-8.14,21.35-10.64,30.07c-2.45,8.55-9.06,10.15-15.11,15.18c-1.2,1-2.28,2.06-3.26,3.17
		c-2.3-4.91-10.36-11.66-10.02-16.2c0.31-0.15,0.62-0.33,0.93-0.56c5.89-4.41,15.18-8.94,17.18-16.66c0.86-3.31,0.59-7,0-10.32
		c-0.44-2.49-1.8-6.08-1.25-8.65c0.49-2.29,2.81-4.93,4.05-6.81c3.87-5.91-5.6-11.4-9.46-5.53c-3.4,5.2-6.92,10.44-5.66,16.89
		c0.73,3.74,3.06,8.12,1.29,11.85c-1.83,3.86-8.09,7.1-11.58,9.69c-0.22-0.34-0.45-0.68-0.67-1.03c0.83-1.92,1.4-3.88,1.6-5.93
		c1.41-0.97,2.29-2.57,2.42-4.48c0.01-0.08,0-0.11,0-0.16c0.01-0.04,0.02-0.05,0.04-0.11c0.1-0.32,0.2-0.65,0.29-0.97
		c0.03-0.05,0.06-0.08,0.11-0.15c0.16-0.24,0.93-1.29,0.14-0.32c1.8-2.22,2.33-5.6,0-7.74c-2-1.84-5.81-2.37-7.74,0
		c-0.72,0.88-1.3,1.79-1.81,2.72c0.29-3.58,1.05-7.15,1.74-10.6c1.39-6.88-9.16-9.82-10.56-2.91c-1.48,7.33-2.96,14.84-1.74,22.32
		c1.23,7.59,6.03,12.11,8.92,18.84c0.16,0.38,0.35,0.71,0.56,1.01c-0.22,2.82,0.38,5.34,2.06,8.34c1.13,2.02,2.9,3.3,4.16,5.16
		c4.33,6.38,5.5,11.06,4.35,19.02c-0.75,5.19-1.17,9.87-0.74,15.13c0.63,7.64-1.67,16.04-0.28,23.54c1.28,6.93,7.61,11.09,9.3,17.8
		c1.43,5.67,0.45,10.15-1.56,14.34c-2.1-3.01-3.77-6.27-5.01-9.75c-1.93-5.43-11.3-5.1-10.75,1.46c0.04,0.5,0.13,0.98,0.22,1.45
		l-0.03,0c0.01,0.04,0.03,0.07,0.04,0.1c0.87,4.33,3.56,7.65,4.41,11.98c0.78,3.99,0.39,7.59,1.61,11.26
		c-4.49,11.75-2.11,24.83-9.05,36.38c-1.1,1.84-0.99,3.62-0.21,5.05c-5,1.98-10.4,3.25-15.66,4.83c2.44-2.79,4.37-5.95,4.85-9.48
		c0.45-0.43,0.86-0.95,1.19-1.65c5.04-10.76,7.2-21.8,5.13-33.64c-0.91-5.23-3.57-11.52-3.14-16.81c0.37-4.47,3.38-8.85,5.32-12.78
		c2.51-5.08,4.57-9.52,4.06-15.33c-0.77-8.71-6.5-11.96-10.77-17.8c0.85-0.2,1.7-0.59,2.49-1.3c3.02-2.72,5.75-5.7,8.15-8.99
		c1.09-1.5,1.89-3.03,2.25-4.87c0.27-1.42-0.12-2.94,0.93-4.03c4.92-5.05-2.81-12.8-7.74-7.74c-1.24,1.27-2.23,2.62-2.92,4.26
		c-0.73,1.76-0.44,3.51-0.96,5.21c-0.93,3.04-5.13,6.32-7.45,8.41c-0.07,0.06-0.11,0.12-0.17,0.19c-1.73-2.82-3.64-5.55-6.01-7.78
		c0.96-1.93,1.65-3.97,1.89-6.04c2.81-8.27,2.22-16.61,3.41-25.28c0.99-7.18,2.69-13.65,2.16-21c-1.17-16.17-7.25-31.58-15.47-45.39
		c-3.6-6.05-13.07-0.55-9.46,5.53c5.85,9.82,11.24,21.39,13.28,33.13c-0.33-0.16-0.64-0.35-0.96-0.53
		c-0.55-0.99-1.02-2.01-1.89-2.85c-0.81-0.78-1.94-1.13-2.95-1.49c-0.2-0.82-0.35-1.68-0.93-2.5c-0.34-0.48-0.79-0.87-1.24-1.24
		c-0.74-3.89-5.68-6.87-9.12-3.12c-1.74,1.89-2.48,4.13-1.75,6.67c0.58,2.02,1.72,2.82,2.97,3.94c0.38,1.47,0.7,2.92,1.89,4.12
		c0.83,0.83,1.89,1.45,2.98,1.84c0.17,0.07,0.35,0.09,0.53,0.15c0.15,1.45,2.82,3.34,3.74,3.82c2.23,1.19,4.73,2.05,7.05,3.04
		c0.15,0.06,0.3,0.1,0.45,0.16c-0.33,6.02-1.9,11.9-2.56,17.9c-0.09,0.85-0.16,1.68-0.22,2.52c-1.32-1.21-3.14-1.79-5.05-1.27
		c-2.94,0.81-4.52,3.85-3.82,6.74c0.28,1.18,0.56,2.36,0.85,3.53c0.27,1.14,0.96,2.09,1.86,2.78c0.83,1.6,1.77,3.15,2.81,4.64
		c0.04,0.43,0.13,0.88,0.3,1.36c0.18,0.49,0.14,1.07,0.02,1.68c-0.1,0.32-0.19,0.63-0.23,0.93c-1.04,2.87-4.11,6.28-5.17,7.46
		c-3.93,4.38-3.99,10.59-8.18,14.68c-0.41,0.4-0.82,0.77-1.23,1.13c-0.15-2.33-0.48-4.66-1.16-6.97c-0.91-3.09-2.22-5.63-3.89-7.89
		c1.3-0.85,2.21-2.3,2.13-4.37c-0.25-6.53,0.39-12.56,1.79-18.96c0.77-3.5,2.74-7.1,2.03-10.79c-0.77-3.97-3.84-6.16-5.82-9.46
		c-3.94-6.56-3.79-13.89-0.49-20.62c3.09-6.3-6.35-11.86-9.46-5.53c-4.46,9.11-5.55,19.22-1.11,28.65c3.02,6.4,5.37,7.45,4.28,14.84
		c-0.92,6.27-2.01,11.82-2.18,17.97c-8.87-7.26-10.85-16.36-17.22-25.59c-3.98-5.76-13.47-0.29-9.46,5.53
		c5.42,7.85,6.96,18.29,14.14,24.97c5.54,5.15,11.78,5.57,14.7,14.17c1.46,4.32,0.96,9.15,0.8,13.62
		c-0.34,9.68-1.59,19.54,3.5,28.33c3.48,6.01,8.4,9.86,10.36,16.91c0.34,1.22,0.61,2.45,0.86,3.68
		c-10.32-1.41-18.78-4.13-23.74-14.49c-1.56-3.25-1.81-6.83-4.05-9.81c-0.07-0.09-0.14-0.16-0.21-0.25
		c0.46-1.01,0.53-2.24-0.07-3.67c-5.23-12.47,1.45-24.13-7.25-36.28c-4.92-6.86-10.61-13.09-14.03-20.94
		c-1.03-2.37-1.7-4.82-2.26-7.29c2.02-0.58,3.58-2.23,3.34-5c-0.97-11.06,1.66-20.38,3.57-31.11c1.16-6.54,4.31-12.41,3.39-19.08
		c-0.96-6.95-11.51-3.99-10.56,2.91c0.21,1.51-1.11,4.37-2.06,6.7c-0.34-0.32-0.71-0.61-1.1-0.86c-0.03-0.67-0.21-1.42-0.41-2.03
		c-0.61-1.88-1.85-3.06-3.38-4.24c-3.14-2.42-8.71,0.83-8.24,4.73c0.43,3.56,1.17,6.79,2.67,10.07c0.65,1.42,1.41,2.74,2.28,4.04
		c0.64,0.95,2.17,2.44,2.31,3.6c0.19,1.46,0.74,2.81,1.65,3.82c-0.3,1.71-0.55,3.42-0.76,5.13c-2.38-3.48-5.27-6.64-8.46-9.33
		c-5.46-4.62-13.68-7.82-17.85-13.65c-2.47-3.46-2.95-7.25-3.48-10.93c2.85-4.6,5.13-9.3,7.08-14.45c2.5-6.6-8.08-9.45-10.56-2.91
		c-0.82,2.17-1.7,4.1-2.64,5.98c-2.14-1.09-4.44-1.98-5.17-3.61c-2.87-6.43-12.29-0.86-9.46,5.53c2.24,5.02,4.89,8.68,8.8,12.16
		c0.57,2.7,0.88,5.51,2.14,8.14c6.39,13.34,22.61,16.6,30.04,28.71c1.06,1.73,1.81,3.57,2.39,5.47c-0.82-0.28-1.72-0.4-2.72-0.26
		c-11.26,1.57-15.97-5.39-24.31-10.87c-3.25-2.13-5.11-3.83-7.81-6.67c-2.32-2.44-4.78-3.06-8.02-3.11
		c-7.05-0.11-7.05,10.84,0,10.95c0.75,0.01,2.43,3.32,2.94,3.85c1.35,1.39,2.91,2.12,4.54,3.08c3.98,2.35,6.92,5.4,10.68,8.06
		c7.45,5.25,16.03,6.51,24.9,5.27c0.78-0.11,1.41-0.35,1.95-0.67c0.5,2.43,1.08,4.85,2.02,7.16c2.81,6.92,6.91,13.74,11.25,19.78
		c5.45,7.57,10.69,12.91,10.34,22.86c-0.16,4.66-0.56,8.44,0.05,12.42c-5.1-1.15-10.33-1.97-14.22-6.36
		c-8.56-9.67-11.28-22.01-18.24-32.46c-2.62-3.93-6.03-8.24-9.53-11.38c-2.73-2.44-13.06-5.79-13.96-8.88
		c-1.97-6.75-12.54-3.88-10.56,2.91c1.39,4.78,2.64,6.4,6.73,9.33c5.24,3.76,6.46,1.17,13.16,7.74c3.55,3.48,6.1,7.83,8.18,12.27
		c0.07,0.16,0.15,0.32,0.22,0.47c-1.24,0-2.48,0-3.72-0.01c-1.33,0-3.09,0.21-4.66,0.14c-0.83-1.85-1.37-3.61-3.59-5.08
		c-3.4-2.25-7.29-2-11.13-1.36c-6.93,1.16-3.99,11.72,2.91,10.56c2.92-0.49,2.01,1.16,3.28,3.2c1.21,1.93,2.92,2.91,5.11,3.33
		c5.11,0.99,11.14,0.17,16.34,0.17c0.18,0,0.33-0.04,0.5-0.05c4.09,8.5,9,16.99,16.38,22.17c3.61,2.54,7.7,1.92,11.47,3.58
		c10.37,4.55,10.15,11.3,15.84,18.88c7.34,9.78,19.85,11.64,31.14,13.04c0.48,0.06,0.92,0.05,1.34,0.01
		c1.34,3.58,3.09,6.92,5.11,10.2c2.12,3.44,10.33,10.95,10.59,14.79c0.57,8.58-13.42,14.65-19.35,21.34
		c0.03-3.78-0.14-7.59-0.49-11.47c-1.4-15.96-6.09-25.08-20.88-31.76c-6.96-3.14-13.5-7.13-20.28-10.58c0.3-2.96-1.41-5.99-5.2-5.69
		c-3.16,0.25-6.21,0.24-9.18,0.2c-0.12-0.04-0.23-0.07-0.35-0.1c-6.08-1.83-10.36-4.82-15.88-7.63c-2.66-1.35-5.73-1.71-8.43-2.83
		c0.71-1.11,0.96-2.54,0.43-4.2c-0.88-2.77,0.38-5.55,0.97-8.27c0.73-3.34,1.01-6.65-0.02-9.96c-2.09-6.71-12.66-3.84-10.56,2.91
		c0.86,2.77-0.41,5.56-1,8.28c-0.08,0.37-0.13,0.74-0.2,1.11c-0.08-0.09-0.14-0.18-0.23-0.27c-6.93-7.88-15.97-14.33-23.88-21.19
		c-5.3-4.59-13.08,3.12-7.74,7.74c6.88,5.96,14.33,11.63,20.77,18.06c4.63,4.62,7.26,10.88,13.05,14.23
		c3.59,2.08,7.36,3.79,11.23,5.34c-0.18,0.09-0.37,0.16-0.55,0.25c-8.32,4.19-13.47,6.31-23.4,5.43c-6.1-0.54-10.01-1.75-16.11-0.23
		c-6.83,1.71-3.94,12.27,2.91,10.56c6.78-1.7,14.26,1.62,21.19,1.16c5.4-0.36,10.7-1.97,15.72-3.88c5.56-2.12,4.87-4.73,12.85-5.95
		c2.22-0.34,4.51-0.33,6.83-0.21c4.92,1.88,9.73,3.95,14.2,6.63c6.32,3.79,12.58,6.42,19.25,9.43c7.54,3.41,10.86,8.37,12.43,14.41
		c-9.8-7-18.15-12.45-32.95-11.37c-1.53,0.11-3.09,0.1-4.64,0.04c-0.01-0.4-0.06-0.8-0.16-1.21c-0.69-2.86-1.94-5.65-3.71-7.99
		c-1.72-2.28-4.8-3.7-7.49-1.96c-2.25,1.45-3.81,5.05-1.96,7.49c0.71,0.93,1.33,1.91,1.85,2.96c0.02,0.04,0.03,0.08,0.05,0.11
		c-1.86-0.01-3.7,0.09-5.5,0.41c-6.47,1.12-9.74,6.39-15.32,9.28c-1.96,1.02-3.34,4.04-2.52,6.18c0.08,0.21,0.16,0.41,0.24,0.62
		c1.15,2.99,3.55,4.35,6.74,3.82c0.17-0.03,0.34-0.06,0.52-0.09c2.17-0.36,3.38-1.65,3.79-3.2c1.55-1.18,3-2.41,4.73-3.45
		c5.21-3.12,14.33-1.18,20.57-1.62c8.33-0.58,15.68-0.9,23.33,3.3c5.24,2.88,9.29,7.42,14.02,11.05
		c0.71,19.65-9.49,37.25-8.31,56.85c0.4,6.64,10.26,7.01,10.91,1.02c2.86-3.22,5.77-6.39,8.7-9.54c3.25,1.08,7.42-0.56,7.21-4.96
		c-0.91-19.61,6.01-33.07,24.86-39.05c9.31-2.95,19.32-5.14,26.79-11.9c10.12-9.17,13.8-20.92,26.93-27.48
		c4.51-2.25,9.37-3.74,13.51-6.67c0.85,0.58,1.86,0.93,2.95,0.94c0.11,0.1,0.23,0.21,0.38,0.35c0.47,0.45,0.94,0.85,1.46,1.23
		c1.3,0.97,2.66,1.59,4.19,2.16c1.06,0.39,4.07,0.68,4.7,1.62c3.88,5.84,13.37,0.36,9.46-5.53c-2.86-4.31-6.63-4.53-10.88-6.52
		c-1.58-0.74-2.5-2.3-4-3.25c-0.08-0.05-0.16-0.08-0.24-0.13c3.44-4.56,7.14-9.03,11.03-9.08c7.04-0.09,7.06-11.04,0-10.95
		c-5.85,0.08-10.06,1.9-14.18,6.17c-6.85,7.1-9.18,13.62-18.83,17.95c-6.92,3.11-13.31,6.58-18.85,11.82
		c-4.5,4.25-7.39,10.04-11.11,14.93c2.02-7.6,2.53-15.52,4.57-22.92c1.93,1.56,4.67,1.87,6.76-0.6
		c8.86-10.51,25.34-12.64,31.69-24.85c1.39,0.72,3.11,0.76,4.87-0.43c2.38-1.61,5.09-1.38,7.72-2.32c2.37-0.85,4.18-2.31,6.12-3.83
		c5.98-4.68,11.24-5.1,18.64-4.88c5.68,0.17,6.77-6.9,3.3-9.76c-0.01-0.41-0.05-0.83-0.16-1.25c-0.01-0.02-0.01-0.02-0.01-0.04
		c0-0.02,0-0.03,0-0.05c0.01-0.05,0.02-0.11,0.04-0.17c0.01-0.02,0.02-0.02,0.03-0.05c0.15-0.24,0.14-0.25,0-0.06
		c0-0.01,0.01-0.02,0.01-0.04c1.58-2.21,1.94-5.34-0.26-7.37c-2.01-1.84-5.81-2.37-7.74,0c-1.93,2.36-3,5.01-2.97,7.89
		c-4.25,0.26-8.45,1.06-12.22,3.12c-2.91,1.59-5.02,4.25-7.97,5.7c-2.31,1.14-4.67,1.43-6.97,2.2c-0.16-3.14-0.83-6.25-1.38-9.37
		c0.9,0.04,1.86-0.13,2.84-0.65c7.35-3.87,18.53-2.51,23.92-9.56c2.18-2.84,2.57-6.08,3.75-9.34c2.14-5.94,7.65-8.2,12.79-11.43
		C288.56,109.75,283.08,100.27,277.09,104.04z M160.31,199.76c-6.82-10-7.16-19.1-11.16-29.8c1.01-0.88,1.65-2.21,1.52-4.02
		c-0.35-4.88,0.35-9.34,2.12-13.9c2.3-5.91-6.92-9.4-10.01-4.22c-1.05,1.76-2.1,3.52-3.15,5.28c-1.27-2.39-2.35-4.94-2.93-7.91
		c0.32-0.88,0.44-1.87,0.24-2.98c-1.75-9.41,7.51-11.16,11.9-17.11c2.74-3.72,3.17-8.18,5.84-11.86c3.71,3.75,4.27,10.75,7.3,14.49
		c1.48,1.83,3.21,2.14,4.66,3.77c8.59,9.65,4.36,13.58-0.31,22.79c-3.17,6.25-4.17,11.93-3.19,18.93
		c1.67,11.91,4.41,21.18,1.48,32.09C163.08,203.39,161.52,201.55,160.31,199.76z M234.14,112.69c0.52,7.1-5.39,13.51-6.32,20.43
		c-0.67,4.93,0.45,9.61,1.14,14.45c1.7,11.97-4.19,18.01-14.25,23.19c-2.44,1.26-4.68,2.46-6.77,3.78
		c5.48-9.61,7.39-19.54,2.73-31.03c-0.42-1.03-0.84-2-1.26-2.93c2.37,0.26,4.82-0.87,5.58-3.86c2.01-7.93,5.58-15.09,11.43-20.91
		c2.49-2.48,5.31-4.19,8.21-5.75C234.27,110.77,234.07,111.64,234.14,112.69z"/>
	<path class="st3" d="M126.08,297.6c-0.07,0-0.14,0-0.21,0c-3.53-0.08-7.24-2.54-7.52-7.07c-0.62-10.29,1.81-20.08,4.17-29.54
		c2.13-8.57,4.33-17.42,4.16-26.47c-1.47-1.17-2.89-2.42-4.3-3.66c-2.87-2.53-5.58-4.92-8.75-6.66c-6.95-3.82-13.61-3.69-22.27-3.07
		c-2.07,0.15-4.36,0.05-6.77-0.06c-4.86-0.21-9.88-0.43-12.95,1.41c-1.19,0.71-2.25,1.54-3.37,2.42l-0.71,0.55
		c-0.81,2.11-2.64,3.53-5.12,3.94l-0.54,0.09c-4.04,0.68-7.34-1.21-8.82-5.03l-0.24-0.62c-1.15-2.96,0.48-7.06,3.43-8.58
		c1.99-1.03,3.67-2.39,5.44-3.83c2.94-2.39,5.98-4.86,10.43-5.63c0.79-0.14,1.61-0.24,2.48-0.31c-0.03-0.04-0.06-0.08-0.08-0.11
		c-1.03-1.35-1.42-3.08-1.1-4.88c0.38-2.16,1.74-4.23,3.55-5.39c3.63-2.34,7.81-0.56,10.06,2.42c1.84,2.43,3.22,5.35,4,8.48
		c0.95,0,1.9-0.01,2.84-0.08c12.39-0.91,20.43,2.53,28.82,8.01c-1.98-3.17-4.89-5.55-8.96-7.38l-3.1-1.39
		c-5.62-2.51-10.93-4.88-16.35-8.14c-4.67-2.8-9.69-4.87-13.61-6.38c-1.77-0.08-4-0.12-6.15,0.21c-4.34,0.66-5.68,1.67-7.39,2.95
		c-1.22,0.92-2.61,1.96-5.06,2.9c-3.98,1.51-10,3.58-16.28,4c-3.19,0.21-6.44-0.32-9.58-0.82c-4-0.65-7.78-1.26-11.27-0.39
		c-2.63,0.65-5.16-0.03-6.95-1.9c-1.95-2.01-2.72-5.01-1.96-7.65c0.68-2.38,2.53-4.11,5.08-4.74c5-1.25,8.6-0.8,12.75-0.27
		c1.25,0.16,2.56,0.32,3.99,0.45c7.98,0.71,12.56-0.53,19.13-3.64c-2.81-1.24-5.26-2.48-7.54-3.8c-3.94-2.29-6.5-5.73-8.96-9.07
		c-1.45-1.97-2.83-3.83-4.48-5.47c-4.29-4.28-9.13-8.3-13.82-12.19c-2.31-1.92-4.61-3.83-6.85-5.77c-3.04-2.63-3.3-6.62-0.63-9.7
		c2.49-2.88,7.16-4.2,10.9-0.95c2.33,2.01,4.75,4,7.19,5.99c4.99,4.08,10.12,8.27,14.62,12.94c0.47-1.73,0.86-3.37,0.4-4.82
		c-1.37-4.41,1.36-7.79,4.76-8.85c3.52-1.1,8.05,0.21,9.47,4.79c1,3.22,1.02,6.59,0.06,10.94c-0.15,0.66-0.33,1.32-0.51,1.99
		c-0.52,1.9-1.01,3.7-0.51,5.29c0.45,1.41,0.45,2.62,0.25,3.63c0.56,0.17,1.13,0.33,1.71,0.48c1.68,0.46,3.42,0.94,5.09,1.79
		c1.6,0.82,3.1,1.65,4.57,2.46c3.52,1.95,6.85,3.79,10.99,5.04c2.83,0.05,5.79,0.06,8.82-0.18c2.73-0.22,4.42,0.89,5.36,1.86
		c1.16,1.18,1.83,2.81,1.94,4.59c2.25,1.17,4.48,2.39,6.71,3.61c4.03,2.2,8.19,4.48,12.41,6.39c16.54,7.47,20.68,18.3,22.01,33.35
		c0.22,2.52,0.36,4.9,0.44,7.2c1.45-1.22,3.06-2.43,4.71-3.67c5.49-4.13,11.15-8.41,10.84-13.1c-0.12-1.85-3.82-6.09-6.27-8.89
		c-1.72-1.98-3.21-3.68-4.03-5.02c-2-3.25-3.57-6.3-4.78-9.27c-0.09-0.01-0.18-0.02-0.27-0.03c-10.28-1.27-24.36-3.02-32.44-13.8
		c-1.9-2.54-3.2-5.02-4.34-7.21c-2.4-4.6-4.29-8.24-10.74-11.06c-1.38-0.6-2.85-0.87-4.41-1.15c-2.32-0.42-4.94-0.9-7.39-2.61
		c-7.6-5.34-12.59-13.89-16.46-21.77c-1.37,0.02-2.79,0.08-4.23,0.15c-3.95,0.17-8.04,0.36-11.79-0.36
		c-2.87-0.55-4.95-1.93-6.37-4.2c-0.54-0.86-0.77-1.64-0.95-2.21c-0.02-0.05-0.03-0.11-0.05-0.15c-0.09,0.01-0.21,0.03-0.34,0.05
		c-4.8,0.82-8.35-2.74-9-6.63c-0.65-3.9,1.59-7.07,5.46-7.72c4.15-0.69,8.54-0.98,12.51,1.65c2.2,1.46,3.1,3.19,3.79,4.77
		c0.49-0.02,0.99-0.05,1.47-0.07c0.69-0.04,1.34-0.08,1.92-0.08h0.65c-2.06-3.99-4.22-7.03-6.67-9.44
		c-3.66-3.59-5.38-4.16-7.38-4.81c-1.49-0.49-3.18-1.04-5.55-2.74c-4.51-3.23-5.97-5.26-7.46-10.36c-0.74-2.54-0.18-5.02,1.55-6.82
		c1.9-1.99,4.9-2.84,7.6-2.18c2.5,0.61,4.36,2.44,5.11,5.02c0.42,1.11,4.86,3.29,7.25,4.46c2.62,1.28,4.88,2.39,6.15,3.53
		c4.37,3.92,8.04,9.04,9.84,11.74c3,4.51,5.24,9.37,7.41,14.07c3.03,6.57,5.89,12.77,10.67,18.18c2.84,3.2,6.58,4.28,10.59,5.18
		c-0.14-2.37-0.03-4.72,0.09-7.17l0.12-2.86c0.27-7.89-3.25-12.61-7.71-18.59c-0.74-1-1.51-2.02-2.27-3.08
		c-4.98-6.92-8.84-13.71-11.47-20.18c-0.73-1.79-1.24-3.6-1.65-5.35c-0.09,0.02-0.18,0.03-0.27,0.04
		c-10.12,1.42-18.98-0.47-26.27-5.61c-1.57-1.11-3.01-2.29-4.43-3.46c-2-1.65-3.89-3.2-6.12-4.52l-0.94-0.54
		c-1.34-0.76-2.73-1.55-3.99-2.85c-0.3-0.32-0.58-0.75-1.08-1.56c-0.28-0.45-0.8-1.3-1.15-1.75c-2.4-0.23-4.4-1.5-5.55-3.56
		c-1.36-2.44-1.33-5.54,0.09-7.9c1.26-2.11,3.46-3.31,6.04-3.31c0.04,0,0.08,0,0.13,0c3.09,0.05,6.37,0.53,9.38,3.72
		c2.53,2.67,4.3,4.31,7.47,6.39c2.07,1.36,3.9,2.79,5.66,4.16c5.36,4.19,9.59,7.48,17.33,6.41c0.05-0.01,0.09-0.01,0.14-0.02
		c-0.36-0.82-0.75-1.57-1.18-2.28c-3.28-5.34-8.39-8.86-13.81-12.59c-6.26-4.31-12.72-8.76-16.34-16.3
		c-1.09-2.28-1.53-4.59-1.95-6.83l-0.23-1.15c-3.87-3.55-6.51-7.28-8.79-12.37c-1.99-4.48,0.57-8.83,4.2-10.44
		c3.58-1.59,7.18-0.21,8.77,3.34c0.27,0.61,1.38,1.24,2.52,1.81c0.65-1.4,1.22-2.73,1.73-4.08c1.72-4.52,6.54-5.79,10.21-4.39
		c3.72,1.41,5.35,4.98,3.94,8.67c-1.95,5.13-4.2,9.78-6.88,14.17c0.48,3.36,0.99,6.53,3.04,9.4c2.37,3.32,6.4,5.84,10.29,8.29
		c2.49,1.56,5.06,3.17,7.23,5.01c1.96,1.65,3.76,3.43,5.41,5.32c-0.51-0.96-0.84-2.05-0.99-3.23c-0.08-0.34-0.83-1.27-1.19-1.71
		c-0.31-0.38-0.6-0.74-0.8-1.04c-0.96-1.42-1.76-2.83-2.44-4.32C72.88,47.16,72,43.88,71.5,39.7c-0.31-2.57,1.17-5.18,3.77-6.66
		c2.6-1.48,5.49-1.42,7.56,0.18c1.25,0.97,2.62,2.13,3.52,3.92c0.24-0.74,0.4-1.37,0.36-1.7c-0.39-2.84,0.7-5.5,2.98-7.27
		c2.27-1.76,5.26-2.28,7.64-1.31c2.08,0.85,3.41,2.67,3.75,5.15c0.67,4.82-0.6,9.2-1.83,13.43c-0.59,2.04-1.2,4.14-1.57,6.24
		c-0.39,2.19-0.81,4.32-1.22,6.42c-0.94,4.81-1.86,9.45-2.28,14.23c1.27-2.06,3.63-3.49,6.21-3.7c2.72-0.2,5.2,0.97,6.77,3.25
		c2.33,3.37,4.07,6.69,5.75,9.91c2.36,4.49,4.6,8.78,8.22,12.6c0.3-3.43,0.82-6.74,1.36-10.18l0.59-3.89
		c0.72-4.88-0.12-6.37-1.95-9.62c-0.65-1.15-1.38-2.46-2.16-4.12c-4.41-9.35-4.02-19.83,1.12-30.31c1.77-3.61,5.56-4.87,9.2-3.08
		c3.42,1.68,5.88,5.86,3.71,10.3c-3.15,6.43-3.01,13.1,0.41,18.78c0.62,1.03,1.37,1.96,2.16,2.93c1.63,2.01,3.31,4.09,3.9,7.15
		c0.59,3.05-0.34,5.97-1.16,8.54c-0.33,1.01-0.65,2.02-0.87,3.02c-1.43,6.52-1.98,12.39-1.74,18.47c0.07,1.85-0.46,3.48-1.51,4.74
		c1.39,2.16,2.43,4.48,3.19,7.05c0.3,1,0.54,2.04,0.74,3.13c0.97-1.5,1.64-3.2,2.34-4.98c1.04-2.63,2.11-5.36,4.23-7.72
		c0.94-1.04,3.75-4.17,4.73-6.67c0.06-0.33,0.15-0.68,0.26-1.03c0.04-0.27,0.01-0.44,0-0.45c-0.15-0.42-0.26-0.84-0.33-1.29
		c-0.93-1.36-1.77-2.74-2.49-4.11c-1.12-0.97-1.88-2.2-2.21-3.57l-0.85-3.54c-0.96-4,1.32-7.98,5.18-9.04
		c1.33-0.36,2.67-0.35,3.92,0.02c0.29-2.49,0.72-4.96,1.15-7.36c0.52-2.98,1.02-5.81,1.27-8.68c-0.48-0.2-0.97-0.39-1.45-0.59
		c-1.64-0.65-3.34-1.33-4.93-2.18c-0.04-0.02-3.13-1.72-4.31-3.97c-1.24-0.46-2.43-1.22-3.39-2.17c-1.4-1.41-1.88-3-2.25-4.43
		c-1.15-1-2.45-2.14-3.1-4.46c-0.88-3.05-0.12-5.98,2.18-8.49c1.86-2.03,4.37-2.81,6.86-2.09c2.55,0.73,4.64,2.86,5.39,5.44
		c0.37,0.33,0.76,0.72,1.09,1.19c0.53,0.74,0.8,1.48,0.98,2.15c0.3,0.12,0.59,0.24,0.88,0.37c-2.24-8.19-6.14-16.97-11.63-26.2
		c-2.41-4.05-0.5-8.05,2.64-9.91c3.19-1.9,7.69-1.67,10.12,2.42c9.36,15.72,14.66,31.27,15.74,46.23c0.41,5.68-0.43,10.69-1.32,16
		c-0.3,1.77-0.6,3.57-0.85,5.41c-0.4,2.89-0.6,5.82-0.79,8.64c-0.38,5.5-0.77,11.19-2.64,16.81c-0.23,1.69-0.72,3.43-1.47,5.19
		c1.62,1.69,2.98,3.54,4.11,5.25c2.02-1.77,4.78-4.26,5.37-6.21c0.17-0.56,0.23-1.21,0.3-1.9c0.1-1.05,0.21-2.24,0.73-3.49
		c0.73-1.74,1.78-3.29,3.31-4.86c3.28-3.37,7.62-2.55,10.23-0.02c2.66,2.6,3.61,7.02,0.27,10.44c-0.19,0.2-0.23,0.6-0.27,1.41
		c-0.02,0.55-0.05,1.1-0.16,1.65c-0.37,1.94-1.19,3.73-2.58,5.64c-2.43,3.32-5.26,6.44-8.42,9.28c-0.24,0.21-0.49,0.41-0.74,0.59
		c0.71,0.83,1.44,1.63,2.15,2.42c3.39,3.71,6.89,7.55,7.51,14.49c0.54,6.12-1.42,10.64-4.25,16.35c-0.47,0.94-0.99,1.91-1.53,2.9
		c-1.65,3.03-3.35,6.16-3.6,9.18c-0.26,3.16,0.76,6.9,1.73,10.52c0.52,1.93,1.06,3.93,1.39,5.8c2.01,11.52,0.28,22.9-5.28,34.79
		c-0.31,0.65-0.68,1.22-1.13,1.74c-0.32,1.75-0.94,3.48-1.9,5.21c2.83-0.8,5.73-1.62,8.48-2.61c-0.29-1.63,0.04-3.33,0.98-4.9
		c3.78-6.29,4.63-13.02,5.54-20.14c0.64-5.06,1.31-10.29,3.12-15.31c-0.61-2.13-0.77-4.22-0.93-6.24c-0.12-1.5-0.23-3.04-0.54-4.59
		c-0.38-1.95-1.2-3.71-2.07-5.57c-0.92-1.98-1.87-4.02-2.34-6.41l-0.73-2.19l0.44-0.04c-0.1-3.38,1.92-5.98,5.24-6.7
		c3.43-0.74,7.85,0.88,9.27,4.89c0.76,2.13,1.69,4.18,2.79,6.14c0.93-3.17,0.95-6.25,0.1-9.62c-0.72-2.87-2.44-5.28-4.26-7.84
		c-2.12-2.98-4.32-6.06-5.06-10.09c-0.82-4.43-0.43-9.1-0.05-13.6c0.3-3.55,0.57-6.91,0.31-10.12c-0.48-5.78,0.08-10.9,0.75-15.56
		c1.06-7.31,0.08-11.61-4.04-17.66c-0.5-0.74-1.1-1.38-1.69-2.01c-0.89-0.96-1.81-1.96-2.55-3.28c-1.72-3.06-2.45-5.8-2.34-8.78
		c-0.13-0.23-0.26-0.47-0.37-0.74c-1.03-2.4-2.36-4.57-3.64-6.67c-2.25-3.69-4.58-7.51-5.42-12.63c-1.3-7.96,0.32-15.96,1.75-23.01
		c0.8-3.95,4.18-6.13,8.16-5.32c3.72,0.76,7.15,4.17,6.17,9l-0.13,0.63c-0.26,1.27-0.52,2.56-0.76,3.86
		c0.65-0.27,1.35-0.43,2.09-0.48c2.16-0.13,4.46,0.64,6.03,2.07c2.97,2.74,2.58,6.88,0.67,9.72c-0.11,0.22-0.24,0.44-0.41,0.67
		l-0.27,0.77c-0.11,2-1.01,3.89-2.49,5.21c-0.09,0.67-0.23,1.34-0.39,2.02c2.93-1.93,6.4-4.28,7.5-6.59
		c0.99-2.08,0.22-4.67-0.59-7.41c-0.33-1.12-0.65-2.21-0.85-3.26c-1.4-7.12,2.25-12.69,5.79-18.09c1.65-2.52,4.02-3.73,6.71-3.6
		c2.82,0.16,5.43,1.82,6.65,4.23c1.08,2.14,0.89,4.61-0.53,6.78c-0.33,0.5-0.73,1.06-1.16,1.65c-1.04,1.43-2.34,3.2-2.61,4.51
		c-0.3,1.41,0.24,3.57,0.71,5.46c0.22,0.88,0.42,1.71,0.55,2.45c0.78,4.4,0.77,8.04-0.03,11.14c-1.76,6.79-8.2,11.12-13.88,14.93
		c-1.42,0.95-2.78,1.87-4,2.78c-0.02,0.02-0.05,0.03-0.07,0.05c0.52,2.06,2.96,5.08,4.98,7.56c1.24,1.53,2.44,3.01,3.4,4.44
		c0.54-0.51,1.09-1.01,1.66-1.48c1.79-1.49,3.59-2.67,5.32-3.8c4.25-2.78,7.61-4.98,9.17-10.43c0.67-2.34,0.85-5.61,1.05-9.08
		c0.5-8.87,1.12-19.91,10.98-22.33c2.64-0.65,5.18,0.07,6.98,1.94c1.94,2.02,2.7,5.03,1.93,7.66c-0.58,2.01-2.01,3.54-3.99,4.34
		c-0.25,1.23-0.65,3.67-1.04,6.09c2.8,0.21,5.71-0.26,8.9-1.44c1.69-0.62,3.58-0.48,5.32,0.42c1.92,0.99,3.4,2.74,3.94,4.7
		c1.04,3.79-1.07,7.59-5.01,9.05c-4.86,1.8-9.97,2.38-15.56,1.78c-1.07,5.74-1.63,7.33-2.06,8.1c-2.81,5.17-7.19,8.25-11.44,11.23
		c-4.49,3.16-8.74,6.14-10.91,11.42c-0.73,1.77-2.01,3.14-3.67,3.97l-0.13,0.9c-0.67,4.96-0.32,9.89,0.06,15.11
		c0.22,3.07,0.45,6.25,0.44,9.4c0,0.03,0,0.06,0,0.09c3.28-7.29,7.87-13.54,13.7-18.66c2.92-2.55,6.09-4.31,9.17-6
		c1.67-0.92,3.35-1.84,5-2.91c6.07-3.91,5.82-9.85,5.52-16.73c-0.05-1.21-0.11-2.43-0.12-3.66c-0.07-4.68,3.56-7.19,7.18-7.24
		c0.05,0,0.09,0,0.13,0c3.69,0,7.41,2.45,7.48,7.18l0.07,2.98c0.05,2.01,0.11,4.08,0.09,6.17l7.56,0.3
		c4.82,0.19,7.27,4.23,7.12,7.94c-0.14,3.54-2.74,6.99-7.27,6.86l-10.14-0.4c-1.36,2.82-3.22,5.08-5.65,6.89
		c-0.66,0.49-1.33,0.95-1.98,1.37c1.6,1.16,2.81,2.98,2.99,5.5c0.39,5.42-1.53,9.84-3.39,14.11c-0.45,1.04-0.9,2.06-1.3,3.07
		c2.7-1.01,5.39-1.75,8.15-2.26c4.85-0.88,5.65-2.04,7.25-7.04c2.7-8.46,8.96-12.28,15.59-16.33c0.91-0.55,1.83-1.11,2.75-1.69l0,0
		c3.92-2.46,7.89-0.7,9.78,2.32c1.97,3.13,1.86,7.83-2.2,10.39c-0.91,0.57-1.83,1.12-2.75,1.66c-4.15,2.44-7.73,4.55-9.26,8.8
		c-0.33,0.91-0.59,1.81-0.85,2.7c-0.7,2.39-1.42,4.86-3.18,7.16c-3.75,4.9-9.67,6.15-15.41,7.35c-3.37,0.71-6.55,1.38-9.15,2.74
		c-0.48,0.26-0.97,0.45-1.48,0.6c0.32,1.71,0.63,3.46,0.85,5.23c0.11-0.03,0.23-0.06,0.34-0.09c1.43-0.36,2.78-0.71,4.06-1.34
		c1.34-0.66,2.54-1.65,3.8-2.7c1.25-1.04,2.55-2.12,4.1-2.96c3.19-1.74,6.83-2.78,11.32-3.21c0.33-2.6,1.44-5.05,3.3-7.32
		c1.09-1.33,2.7-2.14,4.53-2.27c2.17-0.13,4.45,0.64,6,2.07c2.22,2.04,2.76,5.15,1.56,8.06l0.1,0.07l-0.76,1.26
		c0.01,0.06,0.02,0.11,0.02,0.17c1.96,2.09,2.6,5.31,1.54,8.15c-1.08,2.86-3.62,4.39-6.76,4.42c-7.61-0.23-12.18,0.39-17.39,4.47
		c-0.29,0.22-0.57,0.44-0.85,0.66c0.33-0.02,0.66-0.04,1-0.02c4.62,0,7.08,3.62,7.12,7.22c0.05,3.72-2.41,7.52-7.19,7.58
		c-2.64,0.03-5.63,3.29-8.36,6.79c0.23,0.21,0.45,0.42,0.65,0.63c0.6,0.59,1.13,1.1,1.71,1.38c1.08,0.51,2.12,0.89,3.12,1.26
		c3,1.11,6.09,2.25,8.55,5.94c2.63,3.95,0.8,7.76-2.01,9.63c-3.13,2.09-7.93,2.1-10.64-1.97c-0.16-0.04-1.45-0.32-2.08-0.45
		c-0.68-0.15-1.3-0.29-1.69-0.44c-1.4-0.52-3.05-1.21-4.67-2.42c-0.53-0.4-1.03-0.8-1.51-1.26c-0.7-0.08-1.38-0.27-2.03-0.56
		c-2.61,1.67-5.41,2.88-8.13,4.05c-1.55,0.67-3.1,1.33-4.62,2.09c-7.66,3.82-11.96,9.55-16.52,15.6c-2.93,3.89-5.95,7.92-9.99,11.58
		c-6.63,6-15.03,8.53-23.15,10.98c-1.45,0.44-2.9,0.88-4.34,1.33c-16.98,5.39-24.45,17.18-23.53,37.13c0.11,2.41-0.8,4.47-2.57,5.82
		c-1.62,1.23-3.8,1.72-5.92,1.36c-2.54,2.73-5.06,5.47-7.54,8.26C132.35,295.46,129.61,297.6,126.08,297.6z M98.71,216.94
		c5.39,0,11.08,0.76,16.78,3.88c3.54,1.95,6.54,4.59,9.44,7.15c1.58,1.39,3.16,2.78,4.82,4.06l0.72,0.55l0.03,0.91
		c0.36,9.9-1.98,19.31-4.25,28.42c-2.39,9.61-4.65,18.68-4.06,28.38c0.16,2.66,2.44,3.43,3.77,3.46c1.33-0.03,3.1-0.61,3.31-2.53
		l0.06-0.61l0.41-0.46c2.87-3.23,5.79-6.42,8.74-9.58l0.84-0.9l1.17,0.39c1.27,0.42,2.7,0.24,3.64-0.47
		c0.75-0.57,1.1-1.44,1.05-2.57c-1.01-21.66,7.56-35.06,26.2-40.97c1.45-0.46,2.92-0.9,4.4-1.34c7.72-2.33,15.7-4.73,21.68-10.14
		c3.77-3.42,6.68-7.29,9.5-11.05c4.62-6.15,9.4-12.5,17.87-16.73c1.58-0.79,3.2-1.48,4.82-2.18c3.03-1.3,5.89-2.53,8.44-4.33
		l1.09-0.77l1.1,0.75c0.58,0.4,1.21,0.6,1.88,0.6l0.75,0l0.95,0.88c0.41,0.4,0.83,0.74,1.28,1.09c0.99,0.74,2.06,1.29,3.71,1.9
		c0.27,0.1,0.7,0.18,1.16,0.28c1.77,0.38,3.6,0.78,4.46,2.08c1.62,2.44,4.19,1.65,5.31,0.9c0.62-0.41,2.51-1.93,0.94-4.29
		c-1.76-2.64-3.93-3.45-6.68-4.46c-1.1-0.41-2.24-0.83-3.42-1.38c-1.18-0.55-2.02-1.38-2.77-2.12c-0.49-0.48-0.95-0.94-1.45-1.25
		l-1.76-1.12l1.01-1.79c3.73-4.95,7.78-9.78,12.54-9.84c2.71-0.03,3.41-2.33,3.39-3.68c-0.02-1.59-0.89-3.42-3.28-3.42
		c-0.02,0-0.04,0-0.06,0c-5.35,0.07-9.06,1.69-12.83,5.59c-2.05,2.13-3.69,4.22-5.28,6.23c-3.63,4.6-7.05,8.95-14.14,12.13
		c-5.84,2.63-12.59,6.04-18.32,11.46c-2.76,2.61-4.88,5.82-7.12,9.22c-1.23,1.87-2.46,3.73-3.78,5.48l-5.9,7.77l2.51-9.43
		c0.97-3.65,1.6-7.46,2.21-11.16c0.64-3.89,1.3-7.91,2.37-11.77l0.78-2.83l2.28,1.85c0.68,0.54,2.43,1.6,4.08-0.35
		c4.17-4.95,9.85-8.09,15.34-11.12c6.61-3.66,12.86-7.11,16.11-13.37l0.88-1.7l1.71,0.88c0.92,0.48,1.9,0.37,2.91-0.32
		c1.8-1.22,3.71-1.57,5.39-1.88c0.91-0.17,1.84-0.33,2.75-0.66c1.99-0.72,3.57-1.95,5.39-3.38c6.89-5.4,12.88-5.65,20.08-5.45
		c2.01,0.2,2.7-1.02,3.04-1.93c0.48-1.27,0.27-2.77-0.44-3.8l-1.32,1.63l-0.05-4.52c0-0.01,0-0.02-0.01-0.02l-0.08-0.31l0.44-1.68
		c1.01-1.41,1.44-3.52,0-4.83c-0.78-0.72-2.07-1.13-3.13-1.07c-0.79,0.06-1.4,0.35-1.83,0.87c-1.7,2.08-2.55,4.32-2.54,6.65
		l0.02,1.82l-1.82,0.11c-4.71,0.29-8.34,1.21-11.41,2.88c-1.22,0.67-2.32,1.58-3.49,2.55c-1.38,1.15-2.81,2.33-4.55,3.19
		c-1.64,0.81-3.25,1.22-4.81,1.62c-0.81,0.21-1.61,0.41-2.4,0.68l-2.41,0.81l-0.12-2.53c-0.12-2.42-0.56-4.81-1.03-7.34l-0.75-4.17
		l2.4,0.11c0.63,0,1.25-0.11,1.86-0.43c3.07-1.62,6.67-2.37,10.15-3.1c5.28-1.11,10.26-2.16,13.15-5.92
		c1.33-1.74,1.92-3.76,2.54-5.9c0.28-0.97,0.57-1.95,0.92-2.92c2-5.56,6.54-8.24,10.93-10.82c0.88-0.52,1.77-1.04,2.65-1.59
		c2.07-1.3,1.96-3.55,1-5.08c-0.3-0.47-1.91-2.73-4.47-1.12l0,0c-0.94,0.59-1.87,1.16-2.8,1.72c-6.26,3.82-11.67,7.13-13.93,14.22
		c-1.83,5.75-3.35,8.4-10.22,9.66c-3.77,0.69-7.43,1.87-11.18,3.62l-3.65,1.7l0.97-3.91c0.66-2.68,1.74-5.16,2.79-7.56
		c1.75-4.02,3.41-7.82,3.08-12.3c-0.17-2.43-2.13-3.38-3.75-3.46l-2.28-0.11l-0.79,1.62c-0.24,0.5-0.33,1.04-0.29,1.66l0,0
		c0.33,4.5-1.56,8.58-3.39,12.53c-1.33,2.87-2.58,5.58-2.95,8.3c-0.5,3.66,0.08,7.22,0.69,10.99c0.15,0.97,0.31,1.95,0.45,2.93
		c2.01,14.17-6.15,20.47-15.28,25.17c-2.05,1.06-4.44,2.32-6.63,3.7l-6.49,4.07l3.79-6.66c5.79-10.15,6.63-19.48,2.63-29.36
		c-0.41-1.01-0.82-1.95-1.24-2.86l-1.38-3.06l3.34,0.36c0.83,0.09,2.88,0.04,3.51-2.42c2.23-8.8,6.25-16.14,11.94-21.8
		c2.74-2.72,5.78-4.53,8.65-6.08l5.26-2.83l-0.03,0.05c1.4-0.76,3.13-1.76,4.77-2.98c2.2-1.64,3.81-3.76,4.93-6.5l0.51-1.25
		l12.79,0.5c2.93,0.15,3.26-2.61,3.28-3.16c0.05-1.31-0.6-3.83-3.43-3.94l-11.37-0.45l0.07-1.92c0.1-2.62,0.03-5.27-0.05-7.84
		l-0.07-3.02c-0.04-2.72-2.3-3.47-3.71-3.4c-1.59,0.03-3.43,0.91-3.39,3.34c0.02,1.19,0.07,2.38,0.12,3.55
		c0.32,7.39,0.65,15.02-7.28,20.13c-1.72,1.11-3.48,2.08-5.23,3.05c-3.02,1.67-5.88,3.24-8.48,5.52
		c-7.12,6.24-12.24,14.32-15.25,24.03l-1.91,6.18l-1.77-6.22c-0.79-2.76-1.15-5.4-1.15-8.32c0-3.01-0.22-6.12-0.43-9.12
		c-0.37-5.18-0.76-10.55-0.03-15.9l0.46-3.14l1.17-0.46c1.15-0.35,1.96-1.1,2.43-2.22c2.6-6.32,7.51-9.76,12.25-13.1
		c4.06-2.86,7.9-5.55,10.28-9.93c0.19-0.35,0.76-1.89,1.97-8.74l0.33-1.85l1.85,0.28c5.68,0.86,10.75,0.41,15.51-1.34
		c1.68-0.62,3.22-2.27,2.63-4.42c-0.25-0.91-1.03-1.81-1.98-2.3c-0.45-0.23-1.32-0.56-2.24-0.23c-4.39,1.62-8.43,2.1-12.35,1.44
		l-1.88-0.32l-0.12-1.92c1.67-10.49,1.67-10.49,3.14-10.85c1.22-0.3,2-0.98,2.3-2.04c0.38-1.29-0.04-2.9-1.02-3.92
		c-0.59-0.62-1.64-1.27-3.28-0.87c-6.59,1.62-7.5,8.82-8.06,18.81c-0.21,3.69-0.4,7.17-1.19,9.92c-1.96,6.83-6.43,9.76-10.76,12.59
		c-1.65,1.07-3.35,2.19-4.97,3.54c-1.09,0.91-2.12,1.9-3.05,2.97l-1.94,2.2l-1.24-2.66c-0.8-1.72-2.57-3.9-4.27-6
		c-3.18-3.93-6.19-7.64-5.93-11.15l0.08-1.09l0.98-0.49c0.21-0.11,0.42-0.22,0.63-0.38c1.27-0.95,2.69-1.91,4.17-2.9
		c5.11-3.43,10.91-7.32,12.3-12.7c0.66-2.55,0.65-5.66-0.03-9.5c-0.12-0.66-0.3-1.41-0.5-2.19c-0.57-2.3-1.22-4.91-0.74-7.19
		c0.45-2.11,1.95-4.17,3.26-5.98c0.39-0.53,0.76-1.03,1.06-1.49c0.67-1.03,0.78-2.01,0.31-2.94c-0.59-1.17-2-2.04-3.43-2.12
		c-0.85-0.05-2.17,0.19-3.12,1.64c-3.4,5.19-6.47,9.88-5.38,15.46c0.18,0.94,0.48,1.91,0.77,2.91c0.93,3.16,1.99,6.74,0.38,10.14
		c-1.6,3.39-5.67,6.06-9.25,8.42c-1.07,0.7-2.08,1.37-2.93,1.99l-1.65,1.23l-2.19-3.38l0.26-1.18c0.81-1.88,1.28-3.63,1.45-5.36
		l0.09-0.89l0.74-0.51c0.94-0.65,1.5-1.72,1.59-3.02l0.68-2.22l0.38-0.54l-0.05-0.04c0.99-1.22,1.86-3.58,0.19-5.11
		c-0.78-0.72-2.08-1.11-3.14-1.07c-0.78,0.06-1.39,0.35-1.81,0.86c-0.58,0.71-1.09,1.49-1.62,2.44l-4.32,7.82l0.72-8.9
		c0.28-3.48,0.97-6.89,1.65-10.2l0.13-0.63c0.55-2.69-1.59-4.14-3.16-4.46c-0.72-0.15-3.07-0.41-3.63,2.32
		c-1.36,6.73-2.91,14.36-1.73,21.63c0.71,4.37,2.75,7.71,4.91,11.24c1.35,2.22,2.75,4.5,3.88,7.15c0.11,0.25,0.24,0.47,0.38,0.68
		l0.38,0.56l-0.05,0.68c-0.19,2.47,0.35,4.64,1.82,7.25c0.53,0.93,1.25,1.72,2.03,2.56c0.72,0.78,1.43,1.56,2.04,2.46
		c4.69,6.91,5.87,12.05,4.67,20.38c-0.74,5.14-1.15,9.6-0.73,14.7c0.29,3.54-0.02,7.21-0.31,10.76c-0.37,4.45-0.72,8.66,0,12.59
		c0.59,3.19,2.45,5.79,4.41,8.55c1.95,2.74,3.96,5.56,4.86,9.13c1.36,5.42,0.83,10.4-1.69,15.64l-1.43,2.98l-1.89-2.7
		c-2.19-3.14-3.95-6.57-5.24-10.2c-0.72-2.01-3.02-2.8-4.84-2.42c-1.1,0.24-2.37,0.96-2.19,3.07c0.04,0.43,0.12,0.85,0.2,1.25
		l0.12,0.64c0.5,1.86,1.21,3.38,1.95,4.99c0.92,1.99,1.88,4.05,2.35,6.45c0.35,1.77,0.48,3.43,0.6,5.04
		c0.16,2.09,0.31,4.07,0.95,5.98l0.22,0.65l-0.25,0.64c-1.83,4.78-2.46,9.77-3.14,15.05c-0.92,7.2-1.87,14.65-6.06,21.63
		c-0.66,1.09-0.71,2.15-0.17,3.14l1.04,1.91l-2.02,0.8c-3.58,1.42-7.37,2.48-11.03,3.52c-1.6,0.45-3.19,0.89-4.78,1.37l-6.42,1.94
		l4.41-5.05c2.58-2.95,4.02-5.73,4.4-8.48l0.09-0.68l0.5-0.47c0.32-0.3,0.56-0.64,0.76-1.06c5.22-11.14,6.85-21.77,4.98-32.49
		c-0.3-1.69-0.79-3.52-1.31-5.46c-1.06-3.94-2.16-8.02-1.85-11.84c0.31-3.83,2.3-7.48,4.05-10.71c0.51-0.94,1.02-1.87,1.46-2.77
		c2.63-5.31,4.32-9.18,3.87-14.31c-0.5-5.65-3.29-8.7-6.51-12.23c-1.3-1.42-2.64-2.9-3.89-4.6l-1.72-2.36l2.84-0.65
		c0.61-0.14,1.14-0.42,1.63-0.86c2.96-2.66,5.61-5.58,7.88-8.69c1.06-1.45,1.65-2.71,1.91-4.1c0.07-0.36,0.08-0.72,0.09-1.08
		c0.05-1.12,0.12-2.66,1.36-3.93c1.89-1.95,0.76-4.06-0.21-5c-1.15-1.12-3.09-1.8-4.78-0.06c-1.18,1.22-1.98,2.38-2.52,3.66
		c-0.29,0.71-0.36,1.47-0.45,2.36c-0.08,0.81-0.16,1.73-0.45,2.67c-0.96,3.13-4.41,6.14-6.92,8.33l-2.8,2.57l-1.37-1.86
		c-1.38-2.25-3.27-5.12-5.69-7.39l-1.04-0.98l0.63-1.28c0.93-1.86,1.5-3.69,1.71-5.41l0.09-0.39c1.77-5.21,2.13-10.46,2.51-16.02
		c0.2-2.89,0.4-5.88,0.82-8.9c0.26-1.88,0.56-3.71,0.87-5.52c0.85-5.07,1.66-9.86,1.28-15.08c-1.04-14.36-6.16-29.34-15.21-44.54
		c-1.38-2.31-3.69-1.77-4.85-1.08c-1.39,0.82-2.55,2.53-1.3,4.64c7.17,12.04,11.73,23.41,13.52,33.79l0.64,3.69l-3.37-1.63
		c-0.3-0.15-0.59-0.31-0.88-0.48l-0.46-0.27l-0.73-1.08c-0.41-0.75-0.76-1.4-1.27-1.89c-0.44-0.42-1.18-0.68-1.97-0.96l-0.97-0.35
		l-0.54-1.11c-0.23-0.94-0.34-1.43-0.64-1.85c-0.21-0.3-0.55-0.59-0.88-0.86l-0.54-0.44l-0.13-0.69c-0.27-1.45-1.47-2.78-2.84-3.17
		c-1.09-0.31-2.09,0.03-2.98,0.99c-1.38,1.51-1.81,3.1-1.31,4.84c0.35,1.24,0.95,1.76,1.94,2.63l0.89,0.8l0.14,0.56
		c0.39,1.52,0.64,2.49,1.4,3.25c0.59,0.58,1.39,1.07,2.25,1.37l1.22,0.37l0.59,1.39c0.18,0.48,1.76,1.81,2.73,2.33
		c1.41,0.75,3,1.39,4.55,2.01c0.8,0.32,1.59,0.63,2.36,0.97l1.24,0.53l0.37,1.5c-0.19,3.58-0.82,7.1-1.42,10.52
		c-0.44,2.49-0.88,4.97-1.15,7.48c-0.08,0.74-0.14,1.46-0.2,2.18l-0.31,3.93l-2.93-2.38c-0.54-0.49-1.68-1.26-3.24-0.83
		c-1.86,0.51-2.94,2.46-2.46,4.43l0.85,3.54c0.2,0.82,0.74,1.38,1.17,1.71l0.53,0.64c0.76,1.48,1.66,2.96,2.68,4.41l0.29,0.41
		l0.05,0.5c0.04,0.35,0.1,0.63,0.2,0.92c0.36,1,0.22,2.01,0.09,2.69c-0.12,0.41-0.18,0.61-0.2,0.8l-0.1,0.42
		c-1.05,2.89-3.67,6-5.55,8.09c-1.66,1.85-2.56,4.14-3.51,6.56c-1.12,2.85-2.28,5.8-4.76,8.21c-0.44,0.43-0.88,0.82-1.31,1.19
		l-2.93,2.55l-0.25-3.88c-0.16-2.46-0.51-4.61-1.09-6.55c-0.8-2.71-1.98-5.1-3.59-7.3l-1.21-1.64l1.71-1.11
		c0.88-0.57,1.3-1.48,1.25-2.69c-0.25-6.41,0.33-12.59,1.83-19.44c0.24-1.11,0.6-2.24,0.96-3.37c0.75-2.34,1.46-4.55,1.05-6.64
		c-0.41-2.12-1.66-3.67-3.11-5.46c-0.84-1.04-1.71-2.12-2.47-3.38c-4.11-6.84-4.31-14.81-0.56-22.45c1.22-2.49-0.5-4.44-1.94-5.15
		c-0.64-0.31-2.84-1.16-4.06,1.32c-3.21,6.56-6.01,16.56-1.09,26.99c0.73,1.56,1.43,2.78,2.04,3.87c1.93,3.42,3.32,5.88,2.41,12.07
		l-0.6,3.92c-0.73,4.68-1.42,9.1-1.56,13.83l-0.11,3.91l-3.03-2.48c-6.03-4.93-8.97-10.54-12.08-16.48
		c-1.63-3.11-3.31-6.33-5.51-9.5c-1.01-1.47-2.34-1.67-3.3-1.6c-1.45,0.12-2.84,1-3.38,2.15c-0.42,0.88-0.29,1.82,0.39,2.8
		c2.32,3.35,3.95,7.13,5.52,10.79c2.26,5.24,4.39,10.18,8.35,13.86c1.72,1.6,3.57,2.74,5.36,3.85c3.78,2.33,7.69,4.74,9.85,11.11
		c1.37,4.04,1.17,8.28,0.98,12.38l-0.08,1.92c-0.05,1.21-0.1,2.42-0.16,3.63c-0.4,8.46-0.77,16.46,3.4,23.66
		c1.21,2.08,2.64,3.95,4.02,5.76c2.55,3.32,5.18,6.76,6.53,11.61c0.35,1.26,0.63,2.54,0.89,3.82l0.53,2.65l-2.68-0.36
		c-11.41-1.55-20.06-4.79-25.22-15.56c-0.67-1.41-1.11-2.82-1.53-4.19c-0.6-1.93-1.16-3.75-2.32-5.3l-0.68-0.91l0.26-1.28
		c0.28-0.62,0.25-1.32-0.09-2.13c-2.43-5.8-2.45-11.35-2.46-16.71c-0.02-6.6-0.03-12.84-4.58-19.19c-1.29-1.8-2.63-3.55-3.97-5.3
		c-3.76-4.92-7.65-10-10.26-15.99c-1.19-2.73-1.89-5.52-2.37-7.64l-0.4-1.77l1.75-0.5c1.44-0.41,2.09-1.42,1.95-2.99
		c-0.8-9.09,0.75-16.95,2.38-25.27c0.41-2.07,0.82-4.18,1.21-6.34c0.41-2.31,1.05-4.51,1.66-6.64c1.16-4.03,2.27-7.83,1.71-11.84
		c-0.15-1.1-0.6-1.79-1.39-2.11c-1.1-0.45-2.66-0.12-3.83,0.79c-0.69,0.54-1.8,1.73-1.53,3.71c0.24,1.72-0.57,3.83-1.84,6.86
		l-1.41,3.41l-2.03-1.9c-0.25-0.23-0.51-0.44-0.8-0.62l-0.88-0.53l-0.04-1.03c-0.02-0.39-0.13-0.95-0.31-1.52
		c-0.44-1.35-1.33-2.24-2.73-3.31c-0.97-0.74-2.39-0.4-3.31,0.12c-1.02,0.58-1.99,1.69-1.85,2.86c0.45,3.76,1.23,6.69,2.51,9.5
		c0.59,1.3,1.28,2.52,2.12,3.76c0.15,0.23,0.37,0.49,0.61,0.78c0.86,1.07,1.84,2.28,2.02,3.65c0.14,1.12,0.55,2.1,1.16,2.77
		l0.63,0.7l-0.16,0.92c-0.29,1.68-0.54,3.35-0.74,5.03l-0.6,5.09l-2.9-4.23c-2.24-3.28-4.97-6.29-8.12-8.95
		c-1.96-1.66-4.31-3.13-6.79-4.69c-4.21-2.64-8.57-5.37-11.38-9.31c-2.66-3.72-3.25-7.8-3.76-11.39l-0.15-1.08l0.37-0.6
		c2.7-4.37,4.97-8.98,6.91-14.11c0.92-2.41-0.89-3.4-1.71-3.71c-1.49-0.56-4.25-0.48-5.24,2.16c-0.77,2.01-1.63,3.97-2.72,6.15
		l-0.86,1.73l-2.7-1.36c-2.06-1-4.18-2.04-5.08-4.06c-0.98-2.21-2.74-1.82-3.69-1.4c-1.49,0.66-3.42,2.7-2.24,5.36
		c2.13,4.76,4.61,8.21,8.31,11.5l0.47,0.42l0.13,0.62c0.13,0.6,0.24,1.21,0.36,1.83c0.39,2.09,0.76,4.05,1.64,5.88
		c3.17,6.61,8.94,10.59,15.05,14.79c5.51,3.79,11.2,7.71,14.9,13.75c1.04,1.69,1.89,3.63,2.59,5.91l1.11,3.6l-3.57-1.21
		c-0.61-0.21-1.22-0.27-1.84-0.18c-9.38,1.32-14.64-2.82-20.23-7.19c-1.71-1.33-3.46-2.7-5.41-3.98c-3.47-2.28-5.47-4.13-8.15-6.95
		c-1.71-1.81-3.45-2.46-6.65-2.52c-1.32,0.01-2.22,0.46-2.8,1.43c-0.7,1.17-0.71,2.84-0.03,4.05c0.41,0.73,1.23,1.59,2.89,1.62
		c1.55,0.02,2.51,1.57,3.72,3.54c0.25,0.41,0.47,0.77,0.61,0.95c0.83,0.86,1.87,1.45,3.08,2.13l1,0.58c2.48,1.47,4.58,3.19,6.6,4.85
		c1.35,1.11,2.71,2.23,4.21,3.29c6.46,4.55,14.37,6.22,23.52,4.94c0.46-0.06,0.87-0.2,1.23-0.42l2.33-1.38l0.54,2.65
		c0.45,2.22,1,4.58,1.91,6.82c2.48,6.1,6.3,12.81,11.03,19.39c0.75,1.04,1.5,2.05,2.23,3.03c4.72,6.32,8.79,11.78,8.48,21.02
		l-0.13,2.91c-0.16,3.34-0.29,6.21,0.16,9.15l0.43,2.79l-4.02-0.9c-4.91-1.07-9.99-2.18-13.96-6.68
		c-5.15-5.83-8.27-12.58-11.28-19.12c-2.11-4.57-4.28-9.29-7.12-13.55c-1.7-2.55-5.15-7.37-9.21-11.02
		c-0.87-0.79-3.11-1.88-5.27-2.94c-5.27-2.58-8.52-4.33-9.25-6.84c-0.46-1.59-1.52-2.16-2.33-2.35c-1.37-0.34-2.96,0.12-3.9,1.1
		c-0.78,0.82-0.99,1.85-0.63,3.09c1.24,4.26,2.19,5.58,6,8.31c1.89,1.35,3.16,1.77,4.5,2.21c2.25,0.74,4.58,1.5,8.88,5.73
		c3.23,3.17,5.96,7.25,8.57,12.82l1.47,3.16L62,124.66l-3.73,0c-0.5,0-1.09,0.03-1.69,0.07c-0.99,0.06-2.04,0.11-3.04,0.08
		l-1.19-0.05l-0.79-1.78c-0.65-1.51-1.12-2.59-2.6-3.57c-2.7-1.79-5.84-1.71-9.75-1.07c-2.5,0.42-2.44,2.44-2.3,3.29
		c0.27,1.59,1.81,3.93,4.57,3.47c3.23-0.54,4.17,1.01,4.7,2.78c0.14,0.45,0.27,0.87,0.53,1.3c0.85,1.35,2.03,2.11,3.84,2.46
		c3.32,0.64,7.16,0.47,10.89,0.3c1.74-0.08,3.49-0.21,5.09-0.15l1.33-0.12l0.9,1.16c3.73,7.74,8.51,16.34,15.75,21.43
		c1.75,1.23,3.75,1.59,5.87,1.98c1.71,0.31,3.48,0.63,5.27,1.42c7.69,3.37,10.08,7.96,12.6,12.81c1.12,2.16,2.28,4.38,4,6.67
		c6.57,8.75,17.4,10.74,29.84,12.29c0.29,0.03,0.58,0.03,0.9,0l1.48-0.16l0.52,1.4c1.18,3.14,2.8,6.36,4.94,9.87
		c0.66,1.06,2.12,2.74,3.66,4.5c4.1,4.7,7.01,8.24,7.21,11.17c0.45,6.77-6.07,11.68-12.37,16.43c-2.89,2.18-5.62,4.23-7.46,6.31
		l-3.41,3.85l0.05-5.14c0.03-3.54-0.12-7.23-0.48-11.28c-1.44-16.34-6.61-24.24-19.76-30.17c-4.35-1.97-8.58-4.28-12.67-6.52
		c-2.55-1.4-5.1-2.79-7.68-4.11l-1.18-0.6l0.14-1.31c0.12-1.15-0.2-2.22-0.83-2.87c-0.54-0.55-1.31-0.77-2.31-0.71
		c-3.2,0.26-6.25,0.25-9.35,0.21l-0.91-0.19c-4.51-1.36-8.01-3.3-11.73-5.35c-1.43-0.79-2.89-1.6-4.45-2.4
		c-1.32-0.67-2.8-1.07-4.37-1.51c-1.29-0.36-2.63-0.73-3.93-1.26l-2.12-0.88l1.23-1.93c0.46-0.72,0.53-1.59,0.22-2.59
		c-0.85-2.67-0.15-5.23,0.47-7.47c0.17-0.6,0.33-1.2,0.46-1.8c0.8-3.66,0.81-6.42,0.02-8.97c-0.72-2.33-2.92-2.8-4.65-2.27
		c-0.53,0.17-3.13,1.14-2.23,4.03c0.83,2.66,0.13,5.19-0.48,7.43c-0.17,0.61-0.34,1.22-0.47,1.83l-0.92,5.06l-2.63-3.13
		c-4.97-5.67-10.9-10.51-16.62-15.19c-2.46-2.02-4.92-4.02-7.27-6.06c-2.09-1.8-4.41-0.66-5.47,0.56c-0.47,0.54-1.85,2.46,0.24,4.28
		c2.22,1.92,4.5,3.82,6.79,5.72c4.75,3.95,9.67,8.03,14.08,12.44c1.85,1.84,3.37,3.91,4.85,5.9c2.34,3.16,4.54,6.14,7.8,8.03
		c3.12,1.81,6.61,3.47,10.97,5.22l4.02,1.61l-3.89,1.9l-1.08-1.14l-0.06,0.16l0.62,1.22c-8.94,4.5-14.27,6.53-24.43,5.62
		c-1.49-0.13-2.84-0.3-4.14-0.47c-3.93-0.49-7.04-0.89-11.34,0.19c-1.22,0.3-2,1-2.31,2.07c-0.37,1.3,0.05,2.91,1.03,3.92
		c0.59,0.6,1.62,1.25,3.26,0.84c4.24-1.06,8.6-0.35,12.82,0.33c3.06,0.49,5.95,0.97,8.71,0.78c5.76-0.38,11.41-2.33,15.17-3.76
		c1.95-0.74,3.01-1.54,4.12-2.37c1.88-1.41,3.82-2.87,9.12-3.68c2.62-0.39,5.23-0.33,7.22-0.23l0.59,0.12
		c4.1,1.57,9.46,3.75,14.5,6.78c5.23,3.14,10.44,5.47,15.94,7.93l3.11,1.4c7.28,3.29,11.57,8.27,13.5,15.68l1.34,5.13l-4.32-3.08
		c-10.23-7.31-17.94-12.06-31.69-11.02c-1.76,0.13-3.52,0.09-4.85,0.05l-1.81-0.06l-0.05-1.81c-0.01-0.3-0.04-0.57-0.1-0.82
		c-0.65-2.7-1.82-5.21-3.38-7.28c-0.83-1.09-2.91-2.8-4.91-1.51c-0.91,0.59-1.66,1.72-1.85,2.83c-0.13,0.74,0,1.38,0.38,1.88
		c0.83,1.1,1.5,2.17,2.04,3.27l1.36,2.78l-3.05,0.11c-2.12,0-3.65,0.12-5.17,0.38c-3.46,0.6-5.99,2.65-8.66,4.82
		c-1.85,1.5-3.76,3.06-6.1,4.27c-1.17,0.6-2.04,2.65-1.6,3.78l0.24,0.63c0.82,2.13,2.33,2.99,4.62,2.61l0.49-0.08
		c1.25-0.21,2.01-0.81,2.27-1.8l0.17-0.64l1.67-1.28c1.16-0.91,2.37-1.85,3.76-2.68c4.06-2.44,9.67-2.19,15.1-1.95
		c2.3,0.1,4.47,0.2,6.33,0.07C93.54,217.12,96.09,216.94,98.71,216.94z M201.1,193.49c-0.68,2.92-1.17,5.92-1.69,9.05
		c-0.11,0.68-0.22,1.36-0.34,2.04c1.76-2.59,3.66-5.15,5.98-7.34c6.15-5.82,13.25-9.42,19.39-12.18c6.23-2.8,9.22-6.6,12.69-11
		c1.65-2.09,3.35-4.26,5.54-6.53c0.2-0.21,0.4-0.41,0.6-0.6c-1.33,0.65-2.75,0.86-4.1,0.6c-3.93,6.38-10.49,10.01-16.85,13.52
		c-5.18,2.87-10.54,5.83-14.26,10.24C206.2,193.51,203.58,194.26,201.1,193.49z M114.61,155.32c1.35,2.04,1.95,3.99,2.54,5.88
		c0.4,1.3,0.78,2.52,1.33,3.67c4.03,8.42,10.5,11.44,19.52,13c-0.07-0.28-0.14-0.56-0.22-0.84c-1.15-4.13-3.45-7.13-5.88-10.3
		c-1.46-1.9-2.97-3.87-4.3-6.17c-4.74-8.19-4.32-17.13-3.91-25.78c0.06-1.19,0.11-2.39,0.15-3.58l0.08-1.96
		c0.17-3.75,0.35-7.62-0.79-10.97c-1.71-5.05-4.59-6.83-8.22-9.07c-1.95-1.2-3.96-2.45-5.96-4.31c-4.55-4.23-6.95-9.79-9.26-15.16
		c-1.57-3.64-3.05-7.08-5.15-10.12c-0.23-0.33-0.42-0.66-0.59-1c0.02,1.21,0.08,2.44,0.19,3.69c0.24,2.75-0.89,5.03-3.02,6.29
		c0.42,1.66,0.98,3.57,1.78,5.4c2.43,5.56,6,10.24,9.79,15.19c1.36,1.78,2.73,3.57,4.03,5.39c5.26,7.34,5.28,14.5,5.3,21.42
		c0.02,5.21,0.03,10.14,2.16,15.23C114.76,152.62,114.91,154.02,114.61,155.32z M212.22,142.2c0.08,0.19,0.15,0.38,0.23,0.57
		c3.71,9.16,3.73,17.87-0.04,27c0.48-0.26,0.96-0.5,1.42-0.73c9.34-4.81,14.81-10.04,13.22-21.21c-0.14-0.96-0.29-1.91-0.44-2.86
		c-0.63-3.88-1.27-7.9-0.7-12.12c0.44-3.3,1.88-6.4,3.27-9.4c1.57-3.38,3.05-6.59,3.07-9.82c-1.56,0.99-3.08,2.13-4.48,3.52
		c-5.26,5.24-8.84,11.79-10.93,20.02C216.21,139.7,214.48,141.51,212.22,142.2z M46.59,157.31l1.89,0.35L46.59,157.31z
		 M165.47,209.49l-3.42-4.28c-1.2-1.5-2.37-2.95-3.34-4.37v0c-4.68-6.86-6.39-13.19-8.21-19.9c-0.9-3.31-1.83-6.74-3.16-10.3
		l-0.47-1.25l1.01-0.88c0.64-0.55,0.93-1.37,0.86-2.43c-0.37-5.15,0.34-9.84,2.25-14.73c0.85-2.17-0.84-3.28-1.6-3.65
		c-1.34-0.65-3.76-0.89-4.96,1.11l-4.9,8.22l-1.6-3.02c-1.58-2.98-2.58-5.66-3.12-8.44l-0.11-0.53l0.18-0.5
		c0.23-0.64,0.28-1.28,0.15-1.97c-1.39-7.47,3.2-10.97,7.25-14.05c1.9-1.45,3.7-2.82,4.99-4.56c1.23-1.67,1.96-3.56,2.72-5.56
		c0.81-2.1,1.64-4.27,3.11-6.29l1.33-1.83l1.59,1.61c2.31,2.33,3.47,5.53,4.59,8.63c0.85,2.34,1.65,4.55,2.84,6.01
		c0.59,0.72,1.25,1.14,2.02,1.63c0.81,0.51,1.72,1.1,2.58,2.07c8.35,9.38,5.58,14.5,1.74,21.58c-0.56,1.04-1.16,2.16-1.77,3.35
		c-3.02,5.96-3.91,11.28-3.01,17.8c0.33,2.39,0.71,4.68,1.08,6.9c1.5,9.05,2.8,16.86,0.35,25.96L165.47,209.49z M161.89,198.67
		c0.5,0.74,1.07,1.49,1.66,2.25c1.02-6.8-0.04-13.21-1.24-20.45c-0.37-2.24-0.76-4.56-1.1-6.99c-1.03-7.36-0.02-13.36,3.38-20.07
		c0.63-1.24,1.24-2.38,1.83-3.45c3.66-6.75,5.32-9.83-1.24-17.2c-0.51-0.57-1.1-0.94-1.78-1.38c-0.92-0.58-1.95-1.25-2.93-2.45
		c-1.59-1.97-2.54-4.59-3.46-7.12c-0.64-1.77-1.3-3.58-2.16-5.1c-0.46,0.97-0.86,2-1.26,3.05c-0.83,2.15-1.68,4.37-3.22,6.46
		c-1.61,2.19-3.72,3.79-5.75,5.34c-4.19,3.19-6.71,5.39-5.8,10.28c0.22,1.17,0.17,2.33-0.14,3.44c0.27,1.25,0.65,2.46,1.15,3.72
		l1.29-2.17c2.24-3.75,6.8-4.15,9.95-2.6c3.42,1.67,4.83,5.09,3.5,8.5c-1.69,4.35-2.32,8.5-1.99,13.07
		c0.12,1.75-0.31,3.34-1.23,4.59c1.18,3.32,2.03,6.48,2.86,9.54C155.95,186.31,157.58,192.35,161.89,198.67L161.89,198.67z"/>
</g>
</svg>
