<?xml version="1.0" encoding="utf-8"?>
<!-- Generator: Adobe Illustrator 23.1.1, SVG Export Plug-In . SVG Version: 6.00 Build 0)  -->
<svg version="1.1" id="Layer_1" xmlns="http://www.w3.org/2000/svg" xmlns:xlink="http://www.w3.org/1999/xlink" x="0px" y="0px"
	 viewBox="0 0 300 300" style="enable-background:new 0 0 300 300;" xml:space="preserve">
<style type="text/css">
	.st0{fill:#F4914F;}
	.st1{fill:#FFFFFF;}
	.st2{fill:#2B2341;}
	.st3{fill:#E1617C;}
	.st4{fill:#A93A5C;}
	.st5{fill:#F6BC90;}
	.st6{fill:#F7ADA5;}
	.st7{fill:#57A1CC;}
	.st8{fill:#F49088;}
	.st9{fill:#F9AD58;}
	.st10{fill:#B8693C;}
	.st11{fill:#FAC490;}
	.st12{fill:none;stroke:#2B2341;stroke-width:4;stroke-linecap:round;stroke-miterlimit:10;}
	.st13{fill:#717DA3;}
	.st14{fill:#7393CA;}
	.st15{fill:none;stroke:#F4914F;stroke-width:4;stroke-linecap:round;stroke-miterlimit:10;}
	.st16{fill:#BD426F;}
</style>
<g>
	<g>
		<path class="st6" d="M283.29,98.45c-0.44-9.4-8-12.42-9.91-20.64c-2.19-9.44-5.92-13.72-14.15-17.29
			c0.65-5.45-2.2-10.64-8.07-13.02c-6.03-2.45-12.12-0.11-17.75,2.08c-11.22,4.38-17.22-3.48-26.9-7.38
			c-7.82-3.15-10.39,1.14-17.8-5.66c-3.41-3.13-7.04-6.47-12.03-6.52c-3.55-0.03-6.14,1.48-8.57,3.87
			c-10.48,10.28-3.17,21.46-25.42,22.2c-7.18,0.24-17-2.7-18.16,8.14c-0.24,2.24,1.19,4.04,1.31,6.02c0.09,1.47-0.02,2.7-0.26,3.8
			c-1.07,1.32-2.01,2.73-2.77,4.23c-1.85,1.15-4.53,1.53-8.2,1.16C101,78.03,99.75,63.68,92.81,55
			c-5.33-6.67-15.62-11.27-23.17-5.23c-10.03,8.02-2.64,20.29-1.79,30.66c-11.65-1.44-27.29-3.26-35.73,3.73
			c-6.31,5.23-5.76,13.44-8.98,20.36c-2.49,5.36-10.39,9.32-11.26,15.16c-0.47,3.14,0.97,4.87,2.31,7.48
			c3.61,7.03,4.21-7.12,8.19,11.09c0.64,2.93-0.22,6.37,0.1,9.38c0.46,4.34,1.5,8.26,4.3,11.69c1.31,1.61,2.29,2.22,3.27,2.72
			c0.04,2.48,0.04,4.99-0.63,7.51c-0.65,2.43-1.01,4.8-1.17,7.15c-2.45,0.06-4.98-0.48-7.61-1.67c-4.42-1.8-8.84,3.06-6.03,7.19
			c3.84,3.31,5.05,6.79,3.75,10.44c-5.56,2.85-10.84,6.2-11.2,13.32c-0.23,4.49,1.63,6.3,3.96,9.64c4.06,5.8,5.81,11.09,8.4,17.69
			c3.22,8.22,8.38,15.09,17.07,17.95c6.1,2,11.88,0.95,17.7,0.28c3.37,1.93,6.86,3.58,10.95,3.57c6.49-0.03,11.2-2.76,17.78,1.15
			c4.17,2.47,6.52,5.96,11.38,7.67c3.37,1.18,6.79,1.49,10.34,1.54c6.5,0.1,11.27-0.59,17.31,1.45c8.31,2.81,12.16,0.45,20.77,0.19
			c10.24-0.31,15.16,6,24.85,0.87c4.84-2.56,7.17-5.03,12.43-5.81c1.76-0.26,4.15,0.32,6.04,0.22c0.69,0.32,1.49,0.49,2.43,0.41
			c13.52-1.2,17.81-11.55,27.87-19.26c4.65-3.57,9.99-5.64,14.19-9.89c5.52-5.57,9.01-12.32,15.01-17.49
			c11.17-9.62,26.06-14,35.12-26.18c8.21-11.03,4.9-23.54,9.33-35.84c2.26-6.25,4.94-11.69-0.11-17.52
			c-1.33-1.53-3.92-2.09-5.12-3.48c-3.26-3.77-4.19-9.78-4.11-15.03C280.85,111.54,283.6,105.07,283.29,98.45z"/>
		<path class="st6" d="M160.17,272.68c-2.86,0-5.44-0.71-7.97-1.41c-2.82-0.78-5.78-1.59-9.31-1.48c-2.63,0.08-4.78,0.36-6.86,0.63
			c-4.64,0.61-8.63,1.13-14.85-0.97c-4.24-1.43-7.75-1.39-12.24-1.33c-1.34,0.02-2.75,0.03-4.24,0.02
			c-3.28-0.05-7.18-0.29-11.19-1.69c-3.4-1.19-5.67-3.08-7.86-4.9c-1.31-1.09-2.54-2.12-4.01-2.99c-3.8-2.26-6.8-1.83-10.58-1.3
			c-1.81,0.26-3.69,0.52-5.81,0.53c-0.03,0-0.06,0-0.09,0c-4.37,0-8.08-1.62-11.42-3.48l-1.02,0.13
			c-5.38,0.67-10.94,1.36-16.97-0.62c-8.43-2.77-14.74-9.34-18.73-19.52L16,231.63c-2.1-5.44-3.76-9.73-7.07-14.47l-0.89-1.24
			c-1.96-2.7-3.81-5.24-3.56-10.08c0.4-8.1,6.03-12.07,11.61-15.03c0.3-1.6-0.05-3.81-3.24-6.56l-0.47-0.52
			c-1.9-2.81-1.77-6.29,0.34-8.89c2.17-2.68,5.76-3.59,8.94-2.3c1.45,0.65,2.85,1.09,4.18,1.3c0.23-1.7,0.56-3.35,0.99-4.99
			c0.45-1.68,0.55-3.41,0.55-5.29c-0.85-0.59-1.71-1.37-2.69-2.57c-3.56-4.35-4.48-9.28-4.89-13.1c-0.16-1.55-0.07-3.09,0.03-4.58
			c0.1-1.66,0.2-3.23-0.07-4.5c-0.88-4.03-1.53-6.09-1.94-7.14c-0.7,0.28-1.56,0.44-2.53,0.16c-1.8-0.51-2.86-2.22-3.49-3.46
			l-0.68-1.26c-1.13-2.05-2.41-4.36-1.89-7.84c0.62-4.2,3.74-7.26,6.76-10.23c1.97-1.95,3.84-3.78,4.71-5.66
			c1.02-2.2,1.64-4.58,2.28-7.09c1.3-5.04,2.65-10.25,7.43-14.21C38.96,75,53.2,76,64.7,77.34c-0.3-1.61-0.71-3.27-1.12-5
			c-2-8.32-4.27-17.76,4.37-24.67c4.13-3.3,9.4-4.24,14.85-2.63c4.55,1.33,8.96,4.35,12.1,8.28c2.34,2.93,4.04,6.36,5.68,9.68
			c3.44,6.94,6.4,12.93,14.3,13.75c2.6,0.27,4.59,0.11,5.94-0.47c0.63-1.16,1.38-2.29,2.23-3.39c0.12-0.79,0.15-1.62,0.1-2.49
			c-0.03-0.47-0.25-1.09-0.49-1.75c-0.45-1.26-1.01-2.82-0.81-4.71c1.21-11.34,10.56-10.91,16.75-10.63c1.37,0.06,2.73,0.13,4,0.08
			c12.72-0.42,14.15-3.98,16.52-9.88c1.35-3.37,3.04-7.56,7.11-11.55c2.03-1.99,5.31-4.64,10.34-4.64c0.04,0,0.08,0,0.13,0
			c6.01,0.06,10.15,3.86,13.8,7.22c3.73,3.42,5.66,3.49,8.58,3.58c2.17,0.07,4.86,0.15,8.42,1.59c2.94,1.19,5.49,2.67,7.94,4.1
			c5.68,3.31,10.17,5.93,16.98,3.27c5.65-2.2,12.69-4.93,19.74-2.07c6.07,2.46,9.78,7.76,9.84,13.82
			c8.04,3.89,11.78,8.88,13.99,18.36c0.72,3.11,2.47,5.44,4.32,7.91c2.52,3.36,5.38,7.18,5.66,13.22c0.19,3.89-0.57,7.62-1.31,11.23
			c-0.61,2.98-1.18,5.81-1.22,8.6c-0.05,3.39,0.33,9.62,3.46,13.24c0.26,0.29,1.01,0.69,1.67,1.03c1.14,0.6,2.44,1.28,3.46,2.45
			c5.66,6.52,3.28,12.95,1.19,18.61l-0.58,1.57c-1.67,4.61-2.19,9.44-2.7,14.11c-0.81,7.47-1.65,15.2-7.01,22.41
			c-5.77,7.76-13.72,12.49-21.4,17.06c-4.85,2.88-9.86,5.87-14.13,9.54c-3.14,2.7-5.55,5.88-8.11,9.26
			c-2.05,2.71-4.18,5.51-6.73,8.09c-2.76,2.79-5.89,4.68-8.92,6.5c-1.96,1.18-3.8,2.3-5.54,3.63c-3.02,2.31-5.54,4.92-7.98,7.45
			c-5.43,5.63-11.04,11.45-21.3,12.36c-1.11,0.09-2.17-0.03-3.16-0.38c-0.8-0.01-1.65-0.08-2.51-0.16c-0.99-0.1-2.01-0.21-2.65-0.09
			c-3.17,0.47-5.06,1.63-7.67,3.25c-1.17,0.72-2.42,1.49-3.9,2.28C165.64,272.08,162.78,272.68,160.17,272.68z M143.54,264.41
			c4,0,7.23,0.89,10.09,1.68c4.54,1.25,7.8,2.15,12.78-0.49c1.36-0.72,2.52-1.44,3.59-2.1c2.8-1.73,5.44-3.36,9.71-3.99
			c1.31-0.2,2.65-0.06,3.95,0.06c0.8,0.08,1.56,0.15,2.34,0.13l0.67-0.04l0.61,0.28c0.31,0.15,0.65,0.18,1.06,0.16
			c8.25-0.73,12.51-5.14,17.9-10.74c2.57-2.66,5.24-5.42,8.57-7.98c1.98-1.52,4.04-2.76,6.04-3.97c2.87-1.73,5.59-3.37,7.88-5.68
			c2.31-2.33,4.24-4.87,6.28-7.56c2.61-3.45,5.31-7.01,8.88-10.08c4.62-3.98,9.84-7.09,14.88-10.09c7.56-4.5,14.71-8.76,19.84-15.65
			c4.49-6.04,5.22-12.71,5.98-19.78c0.54-4.99,1.1-10.14,2.98-15.36l0.59-1.62c2.22-5.98,3.21-9.29-0.2-13.23
			c-0.35-0.4-1.13-0.81-1.89-1.21c-1.09-0.57-2.31-1.21-3.24-2.28c-4.08-4.72-4.84-11.76-4.77-16.83c0.05-3.29,0.7-6.49,1.33-9.59
			c0.7-3.44,1.36-6.69,1.21-9.91l0,0c-0.21-4.39-2.24-7.11-4.6-10.25c-2-2.67-4.27-5.7-5.25-9.91c-1.95-8.39-5.01-12.14-12.6-15.43
			l-1.84-0.8l0.24-1.99c0.53-4.47-1.93-8.39-6.42-10.22c-5.09-2.07-10.52,0.05-15.76,2.1c-9.22,3.6-15.53-0.07-21.63-3.63
			c-2.29-1.33-4.66-2.72-7.24-3.75c-2.69-1.08-4.58-1.14-6.59-1.2c-3.37-0.11-6.85-0.22-12.03-4.98c-3.25-2.98-6.29-5.77-10.24-5.82
			c-2.6-0.22-4.39,0.88-6.66,3.1c-3.27,3.2-4.6,6.51-5.88,9.72c-2.63,6.53-5.11,12.71-21.33,13.25c-1.4,0.05-2.91-0.02-4.42-0.09
			c-7.46-0.35-10.54,0.09-11.17,5.84c-0.07,0.66,0.2,1.43,0.52,2.32c0.34,0.94,0.72,2.01,0.8,3.24c0.09,1.58-0.01,3.06-0.31,4.51
			l-0.13,0.64l-0.41,0.51c-0.99,1.21-1.81,2.46-2.45,3.73l-0.34,0.68l-0.65,0.4c-2.38,1.48-5.62,2.01-9.89,1.55
			c-10.85-1.11-14.95-9.39-18.56-16.7c-1.59-3.2-3.08-6.23-5.07-8.71c-2.43-3.05-5.95-5.47-9.41-6.49
			c-2.64-0.78-6.52-1.11-9.99,1.67c-5.58,4.46-4.67,10.24-2.51,19.23c0.72,3,1.47,6.1,1.71,9.11l0.27,3.29l-3.28-0.4
			c-10.35-1.27-26.02-3.2-33.68,3.13c-3.44,2.84-4.46,6.81-5.65,11.41c-0.68,2.64-1.38,5.36-2.62,8.01
			c-1.28,2.76-3.59,5.03-5.82,7.23c-2.5,2.45-4.86,4.78-5.22,7.2c-0.24,1.61,0.22,2.53,1.28,4.44l0.77,1.42
			c0.05,0.1,0.1,0.19,0.15,0.28c0.83-0.4,1.93-0.7,3.18-0.17c1.91,0.82,3.16,2.77,5.1,11.63c0.44,2.01,0.31,4.03,0.19,5.98
			c-0.08,1.25-0.17,2.51-0.05,3.69c0.49,4.62,1.6,7.68,3.71,10.26c1.03,1.26,1.71,1.67,2.42,2.03l1.44,0.73l0.03,1.62
			c0.04,2.76,0.02,5.46-0.72,8.24c-0.57,2.14-0.93,4.32-1.09,6.64l-0.17,2.44l-2.44,0.06c-2.84,0.13-5.81-0.57-8.78-1.9
			c-1.1-0.45-2.13,0.1-2.65,0.74c-0.33,0.41-0.77,1.22-0.21,2.24c5.55,4.97,5.36,9.85,4.21,13.09l-0.36,1.01l-0.95,0.49
			c-5.97,3.06-9.48,5.85-9.74,11.07c-0.15,2.95,0.76,4.18,2.55,6.66l0.93,1.31c3.7,5.28,5.54,10.07,7.69,15.63l1.02,2.62
			c3.42,8.74,8.46,14.1,15.4,16.38c4.87,1.59,9.61,1.01,14.63,0.39l2.79-0.34l0.77,0.44c3.36,1.92,6.27,3.21,9.53,3.21
			c0.02,0,0.04,0,0.06,0c1.76-0.01,3.45-0.25,5.09-0.48c4.26-0.59,8.66-1.22,14.08,2c1.83,1.09,3.29,2.3,4.7,3.48
			c1.99,1.66,3.71,3.09,6.19,3.96c3.28,1.15,6.64,1.35,9.49,1.39c1.42,0.02,2.79,0.01,4.1-0.02c4.59-0.06,8.92-0.12,14.03,1.61
			c5.03,1.7,8.14,1.3,12.42,0.73c2.11-0.28,4.5-0.59,7.41-0.68C143,264.41,143.27,264.41,143.54,264.41z"/>
	</g>
	<g>
		<path class="st3" d="M267.87,146.67c-5.88,2.06-9.93,3.8-14.34,8.26c-6.28,6.37-13.78,8.77-22.18,10.88
			c-0.13-0.75-0.16-1.97-0.02-4.12c0.42-6.39,2.66-6.31,5.38-11.43c2.82-5.31,2.9-10.58,2.51-16.46c-0.74-10.89,2.38-18.32,4-28.67
			c0.86-5.52-4.9-15.31-1.9-19.56c2.39-3.38-2.55-7.56-4.96-4.15c-2.81,3.97-2.25,5.61-2.11,10.1c0.22,7.33,0.07,14.24-1.04,21.62
			c-0.29,1.93-1.01,3.83-1.24,5.8c-0.52,4.54,0.48,8.65,0.6,13.15c0.2,7.79-2.05,13.59-5.62,20.18c-2.34,4.32-5.93,7.17-4.9,12.77
			c0.33,1.82,1.56,3.17,2.16,4.75c2.33,6.15,2.8,6.88,1.28,14.31c-3.14,15.35-8.29,32.12-21.51,41.22
			c-5.45,3.75-10.11,7.12-13.77,11.07c0.07-0.26,0.17-0.51,0.17-0.81c0.2-13.93-8.9-22.67-16.54-33.28
			c-2.34-4.74-3.67-9.83-3.98-15.27c0.01-0.25,0.05-0.49,0-0.77c-0.04-0.21-0.04-0.43-0.05-0.65c0-0.2-0.02-0.4-0.02-0.6
			c0.18-5.65,7.51-13.18,11.21-16.37c2.44-2.1,5.36-3.52,7.57-5.91c2.12-2.29,4.18-4.83,5.18-7.86c1.63-4.97-0.5-8.07-0.37-12.92
			c0.16-5.75,4.94-11.31,4.6-16.97c-0.53-8.93-12.14-9.97-11.54-19.7c0.23-3.72,3.68-7.16,3.87-11.25
			c0.27-5.99-3.6-10.65-2.52-16.88c0.71-4.11-5.65-5.29-6.36-1.18c-1.01,5.82,0.44,10.48,0.59,16.52c0.16,6.43-2.39,9.43-2.92,15.26
			c-1.01,11.19,11.33,11.28,10.56,22.23c-0.19,2.68-2.61,5.6-2.9,8.51c-0.8,8,1.89,5.82-2.13,14.88c-3.24,7.3-3.98,7.34-9.54,11.46
			c-3.8,2.82-7.13,5.71-9.32,9.12c-0.65-8.3-1.15-16.75-4.16-24.58c-1.76-4.59-3.49-10.06-7.2-13.5c-2.25-2.09-5.45-2.01-7.3-3.25
			c-9.25-6.19-5.22-17.01-5.97-25.82c-0.5-5.92-7.34-16.64-6.52-21.26c0.72-4.11-5.64-5.29-6.36-1.18
			c-0.95,5.41-0.08,3.24,0.74,8.51c0.74,1.47,1.59,2.87,2.55,4.2c2.17,6.1,2.84,12.27,2.04,18.52c1.23,9.15,2.9,15.6,9.15,22.78
			c1,1.15,2.26,1.62,3.74,1.18c13.68-4.04,12.38,48.46,15.66,55.97c1.55,3.53,3.67,6.77,5.99,9.89c0.88,1.75,1.9,3.43,3,5.08
			c-0.02,0.62,0.09,1.26,0.55,1.91c7.04,9.83,10.31,21.1,9.53,33.07c-5.64-5.67-13.97-8.8-21.82-13.24
			c-10.86-6.15-12.94-15.74-19.87-24.71c-6-7.77-12.65-9.89-13.76-21.2c-0.5-5.07,0.45-10.33,0.51-15.35
			c0.2-16.88-6.72-26.11-18.38-37.54c-3.89-3.81-8.25-7.37-11.28-11.96c-3.75-5.69-3.44-10.89-5.41-16.9
			c-1.63-4.97-2.62-7.5-7.55-9.45c-3.86-1.53-6.64,4.32-2.76,5.85c4.53,1.79,5.89,16.1,8.06,20.34c2.8,5.46,7.24,9.8,11.56,14.06
			c5.96,5.88,13.14,11.48,16.81,19.21c-4.36-2.9-9.09-2.1-15.41-3.58c-4.56-1.06-8.35-4.9-12.89-5.95
			c-5.8-1.33-10.82,0.22-16.67-1.57c-7.97-2.44-20.2-8.93-23.71-16.01c-3.5-7.05-4.21-11.23-11.73-15.47
			c-3.63-2.05-6.37,3.82-2.76,5.85c10.33,5.83,6.3,16.6,13.55,23.28c4.38,4.03,13.72,5.99,18.72,8.19
			c8.61,3.79,16.77,1.72,26.02,4.78c5.12,1.69,20.69,4.29,23.46,7.99c1.03,1.38,2.53,1.51,3.77,1c1.02,8.63-1.15,17.73-0.06,26.3
			c1.86,14.58,13.99,22.5,21.59,34.02c3.02,4.57,5.04,8.02,9.58,11.26c8.06,5.77,20.51,8.04,26.8,16
			c-27.49-1.12-61.61,0.26-78.29-25.64c-4.54-7.06-7.03-11.32-13.73-16.24c-6.12-4.5-11.01-9.51-15.58-14.93
			c-2.93-3.48-2.12-4.28-5.89-6.97c-3.37-2.4-7.55,2.54-4.15,4.96c4.85,3.46,6.01,11.43,10.41,15.69c2.48,2.4,5.64,3.54,8.59,5.19
			c6.84,3.82,11.13,9.83,15.49,15.89c-8.68,5.28-18.07,5.47-26.97,0.57c-4.14-2.28-7.09-4.69-11.99-4.98
			c-2.09-0.12-4.11,0.64-6.15,0.65c-4.95,0.03-7.94-2.6-11.31-4.81c-2.95-1.93-3.38-2.94-7.07-2.29c-4.07,0.72-3.6,7.18,0.49,6.45
			c1.63-0.29,7.35,6.64,10.36,7.36c2.74,0.66,5.31-0.14,8.02-0.26c6.39-0.28,9.06,0.51,14.25,3.49c11.08,6.35,23.46,5.67,34.23-0.96
			c2.82,3.62,5.95,7.04,9.99,9.76c20.86,14.04,48.53,12.46,72.58,13.64c0.23,0.89,0.41,1.83,0.52,2.83
			c0.46,4.14,6.92,3.65,6.45-0.49c-0.01-0.07-0.02-0.13-0.03-0.19c0.15-0.32,0.28-0.67,0.31-1.11c1.06-16.27,9.63-20.43,21.89-28.65
			c4.81-3.22,8.03-5.99,10.85-11.22c4.41-8.18,6.36-18.43,9.14-27.2c2.37-7.48,4.45-12.35,3.75-19.31
			c6.25-1.55,12.6-3.28,18.05-6.83c2.61-1.7,4.56-3.78,6.72-5.95c3.55-3.56,6.97-4.72,11.56-6.33
			C273.99,151.38,271.8,145.3,267.87,146.67z"/>
	</g>
</g>
</svg>
