<?xml version="1.0" encoding="utf-8"?>
<!-- Generator: Adobe Illustrator 23.1.1, SVG Export Plug-In . SVG Version: 6.00 Build 0)  -->
<svg version="1.1" id="Layer_1" xmlns="http://www.w3.org/2000/svg" xmlns:xlink="http://www.w3.org/1999/xlink" x="0px" y="0px"
	 viewBox="0 0 300 300" style="enable-background:new 0 0 300 300;" xml:space="preserve">
<style type="text/css">
	.st0{fill:#F4914F;}
	.st1{fill:#FFFFFF;}
	.st2{fill:#2B2341;}
	.st3{fill:#E1617C;}
	.st4{fill:#A93A5C;}
	.st5{fill:#F6BC90;}
	.st6{fill:#F7ADA5;}
	.st7{fill:#57A1CC;}
	.st8{fill:#F49088;}
	.st9{fill:#F9AD58;}
	.st10{fill:#B8693C;}
	.st11{fill:#FAC490;}
	.st12{fill:none;stroke:#2B2341;stroke-width:4;stroke-linecap:round;stroke-miterlimit:10;}
	.st13{fill:#717DA3;}
	.st14{fill:#7393CA;}
	.st15{fill:none;stroke:#F4914F;stroke-width:4;stroke-linecap:round;stroke-miterlimit:10;}
	.st16{fill:#BD426F;}
</style>
<g>
	<path class="st13" d="M95.78,167.02c0,0-58.92,0.69-68.22-30.32s41.34-52.71,41.34-52.71s17.57-8.27,31.01,0
		s41.34,20.67,49.61,47.55S95.78,167.02,95.78,167.02z"/>
	<path class="st14" d="M79.04,205.7c-1.26-3.7-1.82-7.74-1.9-11.63c-1.69-85.89,149.71-104.54,192.47-45.39
		c2.35,3.25,4.53,7.11,3.84,11.06c-0.7,3.99-4.08,6.87-7.24,9.39c-9.83,7.84-19.66,15.68-29.49,23.53
		c-14.95,11.93-31.84,24.51-50.93,23.34c-15.88-0.97-30.6-11.53-46.4-9.68c-9.25,1.08-17.41,6.31-26,9.92s-19.1,5.44-26.76,0.15
		C82.92,213.82,80.51,209.99,79.04,205.7z"/>
</g>
</svg>
