<?xml version="1.0" encoding="utf-8"?>
<!-- Generator: Adobe Illustrator 23.1.1, SVG Export Plug-In . SVG Version: 6.00 Build 0)  -->
<svg version="1.1" id="Layer_1" xmlns="http://www.w3.org/2000/svg" xmlns:xlink="http://www.w3.org/1999/xlink" x="0px" y="0px"
	 viewBox="0 0 300 300" style="enable-background:new 0 0 300 300;" xml:space="preserve">
<style type="text/css">
	.st0{fill:#F4914F;}
	.st1{fill:#FFFFFF;}
	.st2{fill:#2B2341;}
	.st3{fill:#E1617C;}
	.st4{fill:#A93A5C;}
	.st5{fill:#F6BC90;}
	.st6{fill:#F7ADA5;}
	.st7{fill:#57A1CC;}
	.st8{fill:#F49088;}
	.st9{fill:#F9AD58;}
	.st10{fill:#B8693C;}
	.st11{fill:#FAC490;}
	.st12{fill:none;stroke:#2B2341;stroke-width:4;stroke-linecap:round;stroke-miterlimit:10;}
	.st13{fill:#717DA3;}
	.st14{fill:#7393CA;}
	.st15{fill:none;stroke:#F4914F;stroke-width:4;stroke-linecap:round;stroke-miterlimit:10;}
	.st16{fill:#BD426F;}
</style>
<g>
	<path class="st9" d="M188.45,127.64c10.25-10.98,21.78-21.24,20-37.7c-0.15-1.4-0.36-2.96,0.46-4.1c0.64-0.89,1.74-1.29,2.74-1.75
		c9.9-4.49,7.21-18.04,17.05-20.88c10.52-3.04,27.33,6.18,36.04,11.46c6.59,3.99,12.16,11.57,10.07,18.98
		c-1.38,4.9-5.67,8.3-9.07,12.09c-12.16,13.53-12.48,33.16-24.24,47.12c-3.66,4.34-8.12,8.5-9.22,14.07
		c-1.83,9.2-1.28,16.72-4.75,26.17c-5.26,14.33-12.54,27.82-19.19,41.53l-19.9,24.03c0,0-31.11,14.12-50.11-5.92
		s35.54-119.33,35.54-119.33L188.45,127.64z"/>
	
		<ellipse transform="matrix(0.4588 -0.8885 0.8885 0.4588 62.16 263.7132)" class="st10" cx="247.56" cy="80.83" rx="6.26" ry="20.39"/>
	<path class="st11" d="M107.66,120.18c0,0,12.8-42.06,13.23-43.47c4.2-13.79,1.79-28.42,7.12-42.24
		c4.4-11.42,12.86-21.76,24.33-26.04c13.77-5.14,29.07-0.98,43.16,3.22c1.96,0.58,3.95,1.18,5.72,2.22
		c6.95,4.09,8.39,13.83,6.21,21.6c-2.18,7.76-7.04,14.48-10.12,21.93c-10.68,25.82-3.97,56.88-11.55,84.06l-8.64,36.75l-12.45,56.44
		l-2.67,38.33l-26.27,21l-36.96-5.74L107.66,120.18z"/>
	
		<ellipse transform="matrix(0.1979 -0.9802 0.9802 0.1979 112.981 192.1039)" class="st10" cx="173.88" cy="27.01" rx="8.91" ry="24.7"/>
	<path class="st9" d="M93.22,234.63c-7.95-15.36-15.02-31.18-21.41-47.25c-9.17-23.07-10.51-48.55-20.65-71.23
		c-6.01-13.44-15.19-25.27-21.29-38.67c-4.19-9.2-6.87-19.74-3.84-29.37c5.05-16.05,23.36-23.4,39.77-27.13
		c4.56-1.04,9.59-1.9,13.73,0.29c6.21,3.3,7.3,11.47,9.48,18.16c2.88,8.85,8.7,16.38,13.13,24.56
		c9.78,18.07,12.56,38.76,20.21,57.66c6.19,15.3,13.96,30.15,20.6,45.33c0,0,7.76,119.94-22.06,91.69
		c-29.82-28.24-29.82-28.24-29.82-28.24"/>
	
		<ellipse transform="matrix(0.9025 -0.4307 0.4307 0.9025 -12.7631 28.2456)" class="st10" cx="56" cy="42.31" rx="21.71" ry="6.71"/>
	<path class="st0" d="M64.7,283.35c0,0-1.23-40.69,20.96-82.6c0,0,8.61-25.83,8.63-25.89c1.57-4.7-4.46-14.02-3.7-19.86
		c0.92-7.02,6.53-15.22,11.04-20.5c8.6-10.04,24.61-10.85,37.04-8.14c11.56,2.52,22.16,8.25,32.16,14.57
		c2.2,1.39,4.5,2.94,5.56,5.32c0.85,1.9,0.8,4.08,0.54,6.15c-0.88,6.94-3.98,13.58-8.72,18.73c-3.38,3.66-7.64,6.68-9.81,11.16
		c-1.97,4.07-1.94,8.78-2.49,13.27c-0.9,7.27-3.43,14.23-5.39,21.29c-5.12,18.41-4.8,37.36-6.76,56.14
		C143.75,272.97,132.51,298.66,64.7,283.35z"/>
	
		<ellipse transform="matrix(0.1979 -0.9802 0.9802 0.1979 -33.9245 249.8553)" class="st10" cx="135.71" cy="145.66" rx="6.71" ry="21.71"/>
	<circle class="st10" cx="40.12" cy="70.07" r="2.78"/>
	<circle class="st10" cx="85.03" cy="66.32" r="3.71"/>
	<circle class="st10" cx="67.79" cy="90.52" r="3.1"/>
	<circle class="st10" cx="88.08" cy="111.14" r="3.05"/>
	<circle class="st10" cx="222.41" cy="88.09" r="1.72"/>
	<circle class="st10" cx="243.74" cy="103.06" r="1.85"/>
	<circle class="st10" cx="222.41" cy="106.63" r="1.72"/>
	<circle class="st10" cx="237.91" cy="145.41" r="3.97"/>
	<circle class="st10" cx="199.89" cy="143.42" r="1.99"/>
	<circle class="st10" cx="208.24" cy="185.2" r="3.45"/>
	<circle class="st10" cx="188.63" cy="195.79" r="0.79"/>
	<circle class="st10" cx="183.46" cy="229.31" r="3.05"/>
	<circle class="st10" cx="200.88" cy="219.84" r="0.99"/>
	<circle class="st10" cx="73.2" cy="145.86" r="2.32"/>
	<circle class="st10" cx="100.99" cy="156.46" r="2.24"/>
	<circle class="st10" cx="125.98" cy="177.36" r="0.81"/>
	<circle class="st10" cx="100.4" cy="204.98" r="1.64"/>
	<circle class="st10" cx="132.45" cy="210.66" r="4.04"/>
	<circle class="st10" cx="74.73" cy="259.13" r="3.84"/>
	<circle class="st10" cx="100.61" cy="276.61" r="1.42"/>
	<circle class="st10" cx="104.73" cy="235.05" r="2.69"/>
	<circle class="st10" cx="130.43" cy="252.04" r="2.02"/>
	<circle class="st10" cx="138.97" cy="34.1" r="2.47"/>
	<circle class="st10" cx="172.64" cy="47.35" r="2.74"/>
	<circle class="st10" cx="148.41" cy="76.24" r="1.22"/>
	<circle class="st10" cx="177.1" cy="82.36" r="1.53"/>
	<circle class="st10" cx="131.37" cy="101.1" r="2.95"/>
	<circle class="st10" cx="158.8" cy="115.65" r="1.46"/>
	<circle class="st10" cx="161.99" cy="183.47" r="1.72"/>
	<circle class="st10" cx="181.67" cy="122.88" r="1.22"/>
	<circle class="st10" cx="151.59" cy="237.01" r="1.96"/>
</g>
</svg>
