<?xml version="1.0" encoding="utf-8"?>
<!-- Generator: Adobe Illustrator 23.1.1, SVG Export Plug-In . SVG Version: 6.00 Build 0)  -->
<svg version="1.1" id="Layer_1" xmlns="http://www.w3.org/2000/svg" xmlns:xlink="http://www.w3.org/1999/xlink" x="0px" y="0px"
	 viewBox="0 0 500 500" style="enable-background:new 0 0 500 500;" xml:space="preserve">
<style type="text/css">
	.st0{fill:#F2D3BD;}
	.st1{opacity:0.2;}
	.st2{fill:#5365A6;}
</style>
<g>
	<g>
		<path class="st0" d="M500,468.88l-23.18,11.65c-26.47,9.86-53.02,5.64-79.9,11.64c-17.51,3.91-34.87-9.8-53.29-6.49
			c-4.25,0.76-17.45,7.33-21.06,4.79c-13.61-9.55-25.14,4.4-38.09-2.28c-2.34-1.2-4.39-3.29-6.63-4.84
			c-7.83-5.4-17.09-3.7-25.5-0.63c-16.91,6.19-28.82,6.51-45.84,2.76c-20.55-8.41-39.08,2.2-60.02,1.35
			c-7.78-0.33-15.49-1.94-23.26-2.35c-15.38-0.83-30.89,6.55-46.02,4.06c-6.14-1.01-12.44-3.76-18.64-3.41
			c-4.94,0.28-7.63,3.43-12.19,4.63c-9.24,2.44-17.45-6.23-26.45-7.21c-6.59-0.73-13.36-0.38-19.93,0.75V500h500V468.88z"/>
	</g>
	<g class="st1">
		<path class="st2" d="M500,468.88l-23.18,11.65c-26.47,9.86-53.02,5.64-79.9,11.64c-17.51,3.91-34.87-9.8-53.29-6.49
			c-4.25,0.76-17.45,7.33-21.06,4.79c-13.61-9.55-25.14,4.4-38.09-2.28c-2.34-1.2-4.39-3.29-6.63-4.84
			c-7.83-5.4-17.09-3.7-25.5-0.63c-16.91,6.19-28.82,6.51-45.84,2.76c-20.55-8.41-39.08,2.2-60.02,1.35
			c-7.78-0.33-15.49-1.94-23.26-2.35c-15.38-0.83-30.89,6.55-46.02,4.06c-6.14-1.01-12.44-3.76-18.64-3.41
			c-4.94,0.28-7.63,3.43-12.19,4.63c-9.24,2.44-17.45-6.23-26.45-7.21c-6.59-0.73-13.36-0.38-19.93,0.75V500h500V468.88z"/>
	</g>
</g>
</svg>
