<?xml version="1.0" encoding="utf-8"?>
<!-- Generator: Adobe Illustrator 21.0.2, SVG Export Plug-In . SVG Version: 6.00 Build 0)  -->
<!DOCTYPE svg PUBLIC "-//W3C//DTD SVG 1.1//EN" "http://www.w3.org/Graphics/SVG/1.1/DTD/svg11.dtd">
<svg version="1.1" id="Layer_1" xmlns="http://www.w3.org/2000/svg" xmlns:xlink="http://www.w3.org/1999/xlink" x="0px" y="0px"
	 viewBox="0 0 500 500" style="enable-background:new 0 0 500 500;" xml:space="preserve">
<style type="text/css">
	.st0{fill:#FFFFFF;}
</style>
<g>
	<path class="st0" d="M500,500v-91.9l-15.1-2.8c0,0-11.1,1.4-17.3,0.3c-6.2-1.1-18.2,4.5-18.2,4.5c-10.8-1.1-24.8,0.2-24.8,0.2
		c-3.4-4.1-16-9.9-16-9.9s-11.4-2.9-16.3-5.6c-4.9-2.7-10.7,2.2-10.7,2.2l-9,2.4l-9,6.3c-5.6-0.5-8.5,6.2-8.5,6.2l-14,3.8
		c0,0-34.4,3-41.6-2.6s-12.9-2.3-12.9-2.3l-12.1,2.3l-18.9-17.8l-11.9-11.7l-8.9-3c-13.6-1.1-20.6,4.8-20.6,4.8
		c-8.6,0-17.2,8-17.2,8l-32,13.5l-26,4.1l-13.5-0.7l-21,9.7l-59.2-9c-30-15-45.4,2.2-45.4,2.2V500H500z"/>
	<path d="M501,501H-1v-88.2l0.3-0.3c0.2-0.2,4.1-4.5,11.9-7c7.1-2.3,18.8-3.3,34.5,4.5l58.7,8.9l20.9-9.7l13.6,0.8l25.8-4.1
		l31.7-13.4c1.2-1,9.1-7.9,17.4-8.1c1.5-1.1,8.5-5.9,21-4.8l0.2,0l9.1,3.1l12,11.9l18.5,17.4l11.5-2.1c1.1-0.6,6.8-3.1,13.8,2.4
		c5.6,4.4,31.3,3.3,40.8,2.4l13.5-3.6c0.8-1.6,3.8-6.6,8.9-6.4l8.8-6.2l8.9-2.4c1.1-0.8,6.7-4.9,11.6-2.1c4.7,2.6,15.9,5.5,16,5.5
		l0.2,0.1c0.5,0.2,12.1,5.6,16,9.8c2.6-0.2,14.6-1.1,24.2-0.1c1.8-0.8,12.5-5.6,18.5-4.5c6,1.1,16.9-0.3,17-0.3l0.2,0l16.1,3V501z
		 M1,499h498v-90l-14.2-2.7c-1.4,0.2-11.5,1.3-17.5,0.3c-5.9-1.1-17.4,4.4-17.6,4.5l-0.3,0.1l-0.3,0c-10.6-1.1-24.5,0.2-24.6,0.2
		l-0.5,0l-0.3-0.4c-3.1-3.7-14.5-9.1-15.6-9.6c-1.2-0.3-11.7-3-16.4-5.7c-4.2-2.3-9.5,2-9.6,2.1l-0.2,0.1l-9,2.4l-9.1,6.4l-0.4,0
		c-4.8-0.4-7.5,5.5-7.5,5.6l-0.2,0.4l-14.6,3.9c-1.4,0.1-34.9,3-42.3-2.9c-6.6-5.2-11.7-2.2-11.7-2.2l-0.2,0.1l-12.8,2.4L255,396
		l-11.7-11.6l-8.6-2.9c-12.9-1-19.7,4.5-19.7,4.6l-0.3,0.2l-0.4,0c-8.1,0-16.5,7.7-16.5,7.7l-0.1,0.1l-32.4,13.7l-26.1,4.2l-0.1,0
		l-13.2-0.7l-21,9.8l-0.3,0l-59.4-9l-0.1-0.1c-27.2-13.6-41.8-0.4-43.9,1.8V499z"/>
</g>
</svg>
