<svg id="Layer_1" data-name="Layer 1" xmlns="http://www.w3.org/2000/svg" xmlns:xlink="http://www.w3.org/1999/xlink" viewBox="0 0 399.94 399.97"><defs><style>.cls-1{fill:none;}.cls-2{clip-path:url(#clip-path);}.cls-3{fill:#668cc7;}.cls-4{fill:#668dc8;}.cls-5{fill:#668ec8;}.cls-6{fill:#668fc9;}.cls-7{fill:#6690c9;}.cls-8{fill:#6691ca;}.cls-9{fill:#6792cb;}.cls-10{fill:#6793cc;}.cls-11{fill:#6794cc;}.cls-12{fill:#6795cd;}.cls-13{fill:#6796ce;}.cls-14{fill:#6797ce;}.cls-15{fill:#6798cf;}.cls-16{fill:#6799cf;}.cls-17{fill:#6799d0;}.cls-18{fill:#679ad1;}.cls-19{fill:#679bd1;}.cls-20{fill:#689cd2;}.cls-21{fill:#689dd2;}.cls-22{fill:#689dd3;}.cls-23{fill:#689ed3;}.cls-24{fill:#689fd4;}.cls-25{fill:#68a0d4;}.cls-26{fill:#68a0d5;}.cls-27{fill:#68a1d5;}.cls-28{fill:#68a2d6;}.cls-29{fill:#68a3d6;}.cls-30{fill:#68a3d7;}.cls-31{fill:#68a4d7;}.cls-32{fill:#68a5d8;}.cls-33{fill:#69a6d9;}.cls-34{fill:#69a7da;}.cls-35{fill:#69a8da;}.cls-36{fill:#69a9db;}.cls-37{fill:#69aadc;}.cls-38{fill:#69abdc;}.cls-39{fill:#69acdd;}.cls-40{fill:#69addd;}.cls-41{fill:#6aadde;}.cls-42{fill:#6aaede;}.cls-43{fill:#6aafdf;}.cls-44{fill:#6ab0e0;}.cls-45{fill:#6ab1e0;}.cls-46{fill:#6ab1e1;}.cls-47{fill:#6ab2e1;}.cls-48{fill:#6ab3e2;}.cls-49{fill:#6ab4e2;}.cls-50{fill:#6ab5e3;}.cls-51{fill:#6bb5e3;}.cls-52{fill:#6bb6e4;}.cls-53{fill:#6bb7e4;}.cls-54{fill:#6bb8e5;}.cls-55{fill:#6bb9e6;}.cls-56{fill:#6bbae6;}.cls-57{fill:#6bbae7;}.cls-58{fill:#6bbbe7;}.cls-59{fill:#6cbce8;}.cls-60{fill:#6cbde8;}.cls-61{fill:#6cbde9;}.cls-62{fill:#6cbee9;}.cls-63{fill:#6cbfea;}.cls-64{fill:#6cc0ea;}.cls-65{fill:#6cc0eb;}.cls-66{fill:#6cc1eb;}.cls-67{opacity:0.5;}</style><clipPath id="clip-path" transform="translate(-0.07)"><rect class="cls-1" x="0.08" width="399.92" height="399.97"/></clipPath></defs><g class="cls-2"><rect class="cls-3" x="0.01" width="399.92" height="399.97"/></g><g class="cls-2"><circle class="cls-3" cx="199.97" cy="199.99" r="199.97"/></g><g class="cls-2"><circle class="cls-4" cx="199.97" cy="199.99" r="198.73"/></g><g class="cls-2"><circle class="cls-5" cx="199.97" cy="199.99" r="197.49"/></g><g class="cls-2"><circle class="cls-6" cx="199.97" cy="199.99" r="196.25"/></g><g class="cls-2"><circle class="cls-7" cx="199.97" cy="199.99" r="195.01"/></g><g class="cls-2"><circle class="cls-8" cx="199.97" cy="199.99" r="193.77"/></g><g class="cls-2"><circle class="cls-8" cx="199.97" cy="199.99" r="192.52"/></g><g class="cls-2"><circle class="cls-9" cx="199.97" cy="199.99" r="191.28"/></g><g class="cls-2"><circle class="cls-10" cx="199.97" cy="199.99" r="190.04"/></g><g class="cls-2"><circle class="cls-11" cx="199.97" cy="199.99" r="188.8"/></g><g class="cls-2"><circle class="cls-12" cx="199.97" cy="199.99" r="187.56"/></g><g class="cls-2"><circle class="cls-12" cx="199.97" cy="199.99" r="186.32"/></g><g class="cls-2"><circle class="cls-13" cx="199.97" cy="199.99" r="185.08"/></g><g class="cls-2"><circle class="cls-14" cx="199.97" cy="199.99" r="183.83"/></g><g class="cls-2"><circle class="cls-15" cx="199.97" cy="199.99" r="182.59"/></g><g class="cls-2"><circle class="cls-16" cx="199.97" cy="199.99" r="181.35"/></g><g class="cls-2"><circle class="cls-17" cx="199.97" cy="199.99" r="180.11"/></g><g class="cls-2"><circle class="cls-18" cx="199.97" cy="199.99" r="178.87"/></g><g class="cls-2"><circle class="cls-19" cx="199.97" cy="199.99" r="177.63"/></g><g class="cls-2"><circle class="cls-20" cx="199.97" cy="199.99" r="176.38"/></g><g class="cls-2"><circle class="cls-21" cx="199.97" cy="199.99" r="175.14"/></g><g class="cls-2"><circle class="cls-22" cx="199.97" cy="199.99" r="173.9"/></g><g class="cls-2"><circle class="cls-23" cx="199.97" cy="199.99" r="172.66"/></g><g class="cls-2"><circle class="cls-24" cx="199.97" cy="199.99" r="171.42"/></g><g class="cls-2"><circle class="cls-25" cx="199.97" cy="199.99" r="170.18"/></g><g class="cls-2"><circle class="cls-26" cx="199.97" cy="199.99" r="168.94"/></g><g class="cls-2"><circle class="cls-27" cx="199.97" cy="199.99" r="167.69"/></g><g class="cls-2"><circle class="cls-28" cx="199.97" cy="199.99" r="166.45"/></g><g class="cls-2"><circle class="cls-29" cx="199.97" cy="199.99" r="165.21"/></g><g class="cls-2"><circle class="cls-30" cx="199.97" cy="199.99" r="163.97"/></g><g class="cls-2"><circle class="cls-31" cx="199.97" cy="199.99" r="162.73"/></g><g class="cls-2"><circle class="cls-32" cx="199.97" cy="199.99" r="161.49"/></g><g class="cls-2"><circle class="cls-33" cx="199.97" cy="199.99" r="160.24"/></g><g class="cls-2"><circle class="cls-33" cx="199.97" cy="199.99" r="159"/></g><g class="cls-2"><circle class="cls-34" cx="199.97" cy="199.99" r="157.76"/></g><g class="cls-2"><circle class="cls-35" cx="199.97" cy="199.99" r="156.52"/></g><g class="cls-2"><circle class="cls-36" cx="199.97" cy="199.99" r="155.28"/></g><g class="cls-2"><circle class="cls-36" cx="199.97" cy="199.99" r="154.04"/></g><g class="cls-2"><circle class="cls-37" cx="199.97" cy="199.99" r="152.79"/></g><g class="cls-2"><circle class="cls-38" cx="199.97" cy="199.99" r="151.55"/></g><g class="cls-2"><circle class="cls-38" cx="199.97" cy="199.99" r="150.31"/></g><g class="cls-2"><circle class="cls-39" cx="199.97" cy="199.99" r="149.07"/></g><g class="cls-2"><circle class="cls-40" cx="199.97" cy="199.99" r="147.83"/></g><g class="cls-2"><circle class="cls-41" cx="199.97" cy="199.99" r="146.59"/></g><g class="cls-2"><circle class="cls-42" cx="199.97" cy="199.99" r="145.35"/></g><g class="cls-2"><circle class="cls-43" cx="199.97" cy="199.99" r="144.1"/></g><g class="cls-2"><circle class="cls-43" cx="199.97" cy="199.99" r="142.86"/></g><g class="cls-2"><circle class="cls-44" cx="199.97" cy="199.99" r="141.62"/></g><g class="cls-2"><circle class="cls-45" cx="199.97" cy="199.99" r="140.38"/></g><g class="cls-2"><circle class="cls-46" cx="199.97" cy="199.99" r="139.14"/></g><g class="cls-2"><circle class="cls-47" cx="199.97" cy="199.99" r="137.9"/></g><g class="cls-2"><circle class="cls-48" cx="199.97" cy="199.99" r="136.65"/></g><g class="cls-2"><circle class="cls-48" cx="199.97" cy="199.99" r="135.41"/></g><g class="cls-2"><circle class="cls-49" cx="199.97" cy="199.99" r="134.17"/></g><g class="cls-2"><circle class="cls-50" cx="199.97" cy="199.99" r="132.93"/></g><g class="cls-2"><circle class="cls-51" cx="199.97" cy="199.99" r="131.69"/></g><g class="cls-2"><circle class="cls-52" cx="199.97" cy="199.99" r="130.45"/></g><g class="cls-2"><circle class="cls-52" cx="199.97" cy="199.99" r="129.21"/></g><g class="cls-2"><circle class="cls-53" cx="199.97" cy="199.99" r="127.96"/></g><g class="cls-2"><circle class="cls-54" cx="199.97" cy="199.99" r="126.72"/></g><g class="cls-2"><circle class="cls-54" cx="199.97" cy="199.99" r="125.48"/></g><g class="cls-2"><circle class="cls-55" cx="199.97" cy="199.99" r="124.24"/></g><g class="cls-2"><circle class="cls-55" cx="199.97" cy="199.99" r="123"/></g><g class="cls-2"><circle class="cls-56" cx="199.97" cy="199.99" r="121.76"/></g><g class="cls-2"><circle class="cls-57" cx="199.97" cy="199.99" r="120.51"/></g><g class="cls-2"><circle class="cls-58" cx="199.97" cy="199.99" r="119.27"/></g><g class="cls-2"><circle class="cls-58" cx="199.97" cy="199.99" r="118.03"/></g><g class="cls-2"><circle class="cls-59" cx="199.97" cy="199.99" r="116.79"/></g><g class="cls-2"><circle class="cls-60" cx="199.97" cy="199.99" r="115.55"/></g><g class="cls-2"><circle class="cls-61" cx="199.97" cy="199.99" r="114.31"/></g><g class="cls-2"><circle class="cls-62" cx="199.97" cy="199.99" r="113.07"/></g><g class="cls-2"><circle class="cls-62" cx="199.97" cy="199.99" r="111.82"/></g><g class="cls-2"><circle class="cls-62" cx="199.97" cy="199.99" r="110.58"/></g><g class="cls-2"><circle class="cls-63" cx="199.97" cy="199.99" r="109.34"/></g><g class="cls-2"><circle class="cls-63" cx="199.97" cy="199.99" r="108.1"/></g><g class="cls-2"><circle class="cls-64" cx="199.97" cy="199.99" r="106.86"/></g><g class="cls-2"><circle class="cls-65" cx="199.97" cy="199.99" r="105.62"/></g><g class="cls-2"><circle class="cls-65" cx="199.97" cy="199.99" r="104.37"/></g><g class="cls-2"><circle class="cls-66" cx="199.97" cy="199.99" r="103.13"/></g><g class="cls-2"><circle class="cls-66" cx="199.97" cy="199.99" r="101.89"/></g><g class="cls-2"><circle class="cls-66" cx="199.97" cy="199.99" r="100.65"/></g></svg>