<?xml version="1.0" encoding="utf-8"?>
<!-- Generator: Adobe Illustrator 23.1.1, SVG Export Plug-In . SVG Version: 6.00 Build 0)  -->
<svg version="1.1" id="Layer_1" xmlns="http://www.w3.org/2000/svg" xmlns:xlink="http://www.w3.org/1999/xlink" x="0px" y="0px"
	 viewBox="0 0 300 300" style="enable-background:new 0 0 300 300;" xml:space="preserve">
<style type="text/css">
	.st0{fill:#F4914F;}
	.st1{fill:#FFFFFF;}
	.st2{fill:#2B2341;}
	.st3{fill:#E1617C;}
	.st4{fill:#A93A5C;}
	.st5{fill:#F6BC90;}
	.st6{fill:#F7ADA5;}
	.st7{fill:#57A1CC;}
	.st8{fill:#F49088;}
	.st9{fill:#F9AD58;}
	.st10{fill:#B8693C;}
	.st11{fill:#FAC490;}
	.st12{fill:none;stroke:#2B2341;stroke-width:4;stroke-linecap:round;stroke-miterlimit:10;}
	.st13{fill:#717DA3;}
	.st14{fill:#7393CA;}
	.st15{fill:none;stroke:#F4914F;stroke-width:4;stroke-linecap:round;stroke-miterlimit:10;}
	.st16{fill:#BD426F;}
</style>
<g>
	<g>
		<path class="st7" d="M288.44,61.38C92.97-6.83,11.56,169.01,11.56,169.01c53.68,116.13,210.49,80.16,210.49,80.16
			c-27.5-16.35-49.99-42.52-57.96-72.07c10.95,9.2,36.1,24.38,68.84,6.47l-32.15-31.5l23.8-38.2c-29.98-8.04-49.45,4.92-60.03,16.15
			c0.61-2.04,1.28-4.08,2.06-6.13C184.41,77.28,237.81,43.71,288.44,61.38z"/>
		<path class="st7" d="M203.79,254.97c-43.85,5.26-152.02,7.86-194.83-84.76c-0.35-0.76-0.35-1.64,0-2.41
			C9.78,166.03,93.74-9.59,289.39,58.67c1.49,0.52,2.28,2.16,1.76,3.65c-0.52,1.5-2.16,2.28-3.65,1.76l0,0
			c-0.02-0.01-0.05-0.02-0.07-0.03c-48.3-16.79-97.8,14.91-116.2,56.13c12.12-9.06,29.86-15.6,54.08-9.1
			c0.87,0.23,1.59,0.87,1.92,1.71c0.33,0.84,0.25,1.8-0.23,2.57l-22.58,36.25l30.51,29.89c0.65,0.64,0.96,1.54,0.83,2.44
			c-0.12,0.9-0.67,1.69-1.46,2.12c-28.5,15.61-51.74,6.86-64.8-1.46c9.08,24.31,28.75,47.08,54,62.09c1.01,0.6,1.55,1.75,1.37,2.91
			c-0.18,1.15-1.05,2.09-2.19,2.35C222.35,252.04,215.28,253.6,203.79,254.97z M14.73,169.04c46.12,97.44,168.84,83.8,199.61,78.67
			c-26.24-17.51-45.83-43.18-53.03-69.86c-0.33-1.21,0.17-2.49,1.23-3.16c1.05-0.67,2.43-0.59,3.38,0.22
			c10.89,9.15,33.13,21.95,62.16,7.93l-29.32-28.72c-0.96-0.94-1.14-2.42-0.43-3.57l21.71-34.83c-26.08-5.59-43.36,5.59-53.42,16.26
			c-0.92,0.97-2.37,1.18-3.52,0.52c-1.15-0.67-1.69-2.03-1.31-3.3c0.64-2.11,1.33-4.22,2.13-6.33
			c13.19-34.52,47.23-63.84,85.91-68.48c0.81-0.1,1.61-0.18,2.41-0.26c-80.96-17.32-138.41,9.75-173.78,37.74
			C38.77,123.27,18.32,161.85,14.73,169.04z"/>
	</g>
	<g>
		<path class="st1" d="M155.82,50.91c-13.83,3.24-26.57,7.83-38.28,13.33c-1.11,1.02-54.96,51.18-27.2,177.24
			c15.41,5.83,31.25,9.29,46.38,11.13C125.07,228.99,111.3,170.8,155.82,50.91z"/>
		<path class="st1" d="M137.06,255.46c-0.23,0.03-0.45,0.03-0.69,0c-16.82-2.04-32.64-5.84-47.05-11.29
			c-0.9-0.34-1.58-1.12-1.79-2.06C59.63,115.42,113.3,64.25,115.59,62.14c0.22-0.2,0.46-0.36,0.72-0.49
			c12.5-5.87,25.57-10.42,38.85-13.53c1.04-0.24,2.1,0.1,2.81,0.89c0.7,0.79,0.9,1.9,0.53,2.89
			c-43.94,118.34-30.9,175.75-19.22,199.44c0.46,0.94,0.38,2.06-0.24,2.92C138.58,254.93,137.85,255.36,137.06,255.46z M92.8,239.34
			c12.12,4.46,25.26,7.73,39.17,9.75c-11.16-26.63-20.55-84.26,19.3-194.09c-10.95,2.9-21.72,6.8-32.1,11.64
			C114.41,71.23,67.11,120.49,92.8,239.34z"/>
	</g>
	<g>
		
			<ellipse transform="matrix(0.9929 -0.119 0.119 0.9929 -18.6317 7.1366)" class="st2" cx="50.45" cy="159.6" rx="10.29" ry="13.16"/>
	</g>
</g>
</svg>
