<?xml version="1.0" encoding="utf-8"?>
<!-- Generator: Adobe Illustrator 23.1.1, SVG Export Plug-In . SVG Version: 6.00 Build 0)  -->
<svg version="1.1" id="Layer_1" xmlns="http://www.w3.org/2000/svg" xmlns:xlink="http://www.w3.org/1999/xlink" x="0px" y="0px"
	 viewBox="0 0 300 300" style="enable-background:new 0 0 300 300;" xml:space="preserve">
<style type="text/css">
	.st0{fill:#F4914F;}
	.st1{fill:#FFFFFF;}
	.st2{fill:#2B2341;}
	.st3{fill:#E1617C;}
	.st4{fill:#A93A5C;}
	.st5{fill:#F6BC90;}
	.st6{fill:#F7ADA5;}
	.st7{fill:#57A1CC;}
	.st8{fill:#F49088;}
	.st9{fill:#F9AD58;}
	.st10{fill:#B8693C;}
	.st11{fill:#FAC490;}
	.st12{fill:none;stroke:#2B2341;stroke-width:4;stroke-linecap:round;stroke-miterlimit:10;}
	.st13{fill:#717DA3;}
	.st14{fill:#7393CA;}
	.st15{fill:none;stroke:#F4914F;stroke-width:4;stroke-linecap:round;stroke-miterlimit:10;}
	.st16{fill:#BD426F;}
</style>
<g>
	<g>
		<path class="st7" d="M11.56,61.38C207.03-6.83,288.44,169.01,288.44,169.01c-53.68,116.13-210.49,80.16-210.49,80.16
			c27.5-16.35,49.99-42.52,57.96-72.07c-10.95,9.2-36.1,24.38-68.84,6.47l32.15-31.5l-23.8-38.2c29.98-8.04,49.45,4.92,60.03,16.15
			c-0.61-2.04-1.28-4.08-2.06-6.13C115.59,77.28,62.19,43.71,11.56,61.38z"/>
		<path class="st7" d="M77.32,251.96c-1.14-0.26-2.01-1.19-2.19-2.35c-0.18-1.16,0.36-2.31,1.37-2.91
			c25.26-15.02,44.93-37.78,54-62.09c-13.05,8.32-36.3,17.07-64.8,1.46c-0.79-0.43-1.34-1.22-1.46-2.12
			c-0.12-0.9,0.18-1.8,0.83-2.44l30.51-29.89L73,115.37c-0.48-0.77-0.57-1.72-0.23-2.57c0.33-0.84,1.05-1.48,1.92-1.71
			c24.22-6.5,41.96,0.03,54.08,9.1c-18.4-41.22-67.9-72.93-116.2-56.13c-0.02,0.01-0.05,0.02-0.07,0.03l0,0
			c-1.49,0.52-3.13-0.26-3.65-1.76c-0.52-1.49,0.27-3.13,1.76-3.65C206.26-9.59,290.22,166.03,291.05,167.81
			c0.35,0.76,0.35,1.64,0,2.41c-42.82,92.62-150.98,90.02-194.83,84.76C84.72,253.6,77.65,252.04,77.32,251.96z M221.53,91.86
			c-35.37-27.98-92.82-55.05-173.78-37.74c0.8,0.07,1.61,0.16,2.41,0.26c38.68,4.64,72.72,33.96,85.91,68.48
			c0.81,2.11,1.49,4.22,2.13,6.33c0.38,1.27-0.16,2.64-1.31,3.3c-1.14,0.66-2.6,0.45-3.52-0.52
			c-10.06-10.67-27.34-21.85-53.42-16.26l21.71,34.83c0.71,1.14,0.54,2.62-0.43,3.57l-29.32,28.72
			c29.03,14.02,51.27,1.22,62.16-7.93c0.96-0.81,2.33-0.89,3.38-0.22c1.06,0.67,1.55,1.95,1.23,3.16
			c-7.2,26.68-26.79,52.35-53.03,69.86c30.77,5.13,153.49,18.78,199.61-78.67C281.68,161.85,261.23,123.27,221.53,91.86z"/>
	</g>
	<g>
		<path class="st1" d="M144.18,50.91c13.83,3.24,26.57,7.83,38.28,13.33c1.11,1.02,54.96,51.18,27.2,177.24
			c-15.41,5.83-31.25,9.29-46.38,11.13C174.93,228.99,188.7,170.8,144.18,50.91z"/>
		<path class="st1" d="M160.95,254.27c-0.61-0.86-0.7-1.98-0.24-2.92c11.68-23.68,24.72-81.09-19.22-199.44
			c-0.37-0.99-0.17-2.1,0.53-2.89c0.7-0.79,1.77-1.13,2.81-0.89c13.27,3.11,26.34,7.66,38.85,13.53c0.26,0.12,0.51,0.29,0.72,0.49
			c2.29,2.11,55.96,53.28,28.06,179.96c-0.21,0.94-0.88,1.72-1.79,2.06c-14.41,5.45-30.23,9.25-47.05,11.29
			c-0.23,0.03-0.46,0.03-0.69,0C162.15,255.36,161.42,254.93,160.95,254.27z M180.83,66.64c-10.37-4.84-21.15-8.75-32.1-11.64
			c39.85,109.83,30.46,167.47,19.3,194.09c13.91-2.02,27.05-5.29,39.17-9.75C232.89,120.49,185.59,71.23,180.83,66.64z"/>
	</g>
	<g>
		
			<ellipse transform="matrix(0.119 -0.9929 0.9929 0.119 61.3908 388.387)" class="st2" cx="249.55" cy="159.6" rx="13.16" ry="10.29"/>
	</g>
</g>
</svg>
