<?xml version="1.0" encoding="utf-8"?>
<!-- Generator: Adobe Illustrator 23.1.1, SVG Export Plug-In . SVG Version: 6.00 Build 0)  -->
<svg version="1.1" id="Layer_1" xmlns="http://www.w3.org/2000/svg" xmlns:xlink="http://www.w3.org/1999/xlink" x="0px" y="0px"
	 viewBox="0 0 300 300" style="enable-background:new 0 0 300 300;" xml:space="preserve">
<style type="text/css">
	.st0{fill:#F4914F;}
	.st1{fill:#FFFFFF;}
	.st2{fill:#2B2341;}
	.st3{fill:#E1617C;}
	.st4{fill:#A93A5C;}
	.st5{fill:#F6BC90;}
	.st6{fill:#F7ADA5;}
	.st7{fill:#57A1CC;}
	.st8{fill:#F49088;}
	.st9{fill:#F9AD58;}
	.st10{fill:#B8693C;}
	.st11{fill:#FAC490;}
	.st12{fill:none;stroke:#2B2341;stroke-width:4;stroke-linecap:round;stroke-miterlimit:10;}
	.st13{fill:#717DA3;}
	.st14{fill:#7393CA;}
	.st15{fill:none;stroke:#F4914F;stroke-width:4;stroke-linecap:round;stroke-miterlimit:10;}
	.st16{fill:#BD426F;}
</style>
<g>
	<g>
		<path class="st4" d="M14.25,63.1C205.92-3.78,285.75,168.64,285.75,168.64c-52.64,113.87-206.4,78.6-206.4,78.6
			c26.97-16.03,49.02-41.7,56.84-70.67c-10.74,9.02-35.4,23.9-67.5,6.34l31.53-30.89l-23.34-37.46c29.4-7.89,48.49,4.83,58.86,15.84
			c-0.6-2-1.25-4.01-2.02-6.01C116.26,78.7,63.9,45.77,14.25,63.1z"/>
		<path class="st4" d="M78.73,249.98c-1.12-0.26-1.97-1.17-2.15-2.3c-0.18-1.14,0.35-2.26,1.34-2.85
			c24.77-14.72,44.05-37.05,52.96-60.89c-12.8,8.16-35.59,16.74-63.54,1.43c-0.78-0.42-1.31-1.2-1.43-2.08s0.18-1.77,0.82-2.39
			l29.92-29.31L74.5,116.05c-0.47-0.76-0.55-1.69-0.23-2.52c0.33-0.83,1.02-1.45,1.88-1.68c23.75-6.38,41.15,0.03,53.03,8.92
			C111.14,80.34,62.6,49.26,15.24,65.73c-0.02,0.01-0.05,0.02-0.07,0.02l0,0c-1.46,0.51-3.07-0.26-3.58-1.73
			c-0.51-1.46,0.26-3.07,1.73-3.58C205.17-6.48,287.49,165.72,288.31,167.46c0.35,0.75,0.34,1.61,0,2.36
			c-41.98,90.82-148.05,88.27-191.05,83.11C85.99,251.58,79.05,250.06,78.73,249.98z M220.14,92.99
			c-34.68-27.44-91.01-53.98-170.4-37c0.79,0.07,1.58,0.16,2.37,0.25c37.93,4.54,71.3,33.3,84.24,67.15
			c0.79,2.07,1.47,4.13,2.09,6.21c0.37,1.25-0.16,2.59-1.29,3.24c-1.12,0.65-2.55,0.44-3.45-0.51
			c-9.86-10.46-26.81-21.43-52.38-15.95l21.28,34.16c0.7,1.12,0.53,2.57-0.42,3.5l-28.75,28.16c28.46,13.75,50.27,1.2,60.95-7.77
			c0.94-0.79,2.29-0.88,3.32-0.22c1.04,0.66,1.52,1.91,1.2,3.1c-7.06,26.16-26.27,51.33-52,68.5
			c30.17,5.03,150.51,18.41,195.74-77.14C279.12,161.62,259.07,123.79,220.14,92.99z"/>
	</g>
	<g>
		<path class="st1" d="M144.3,52.84c13.56,3.17,26.05,7.68,37.54,13.07c1.09,1,53.89,50.18,26.67,173.8
			c-15.11,5.72-30.64,9.11-45.48,10.91C174.45,227.46,187.94,170.4,144.3,52.84z"/>
		<path class="st1" d="M160.74,252.24c-0.6-0.85-0.68-1.94-0.23-2.87c11.46-23.22,24.24-79.52-18.84-195.56
			c-0.36-0.97-0.16-2.06,0.52-2.84c0.69-0.78,1.74-1.11,2.75-0.88c13.02,3.05,25.83,7.51,38.09,13.26c0.26,0.12,0.5,0.28,0.71,0.48
			c2.25,2.07,54.87,52.25,27.51,176.46c-0.2,0.93-0.87,1.69-1.75,2.02c-14.13,5.35-29.65,9.07-46.13,11.07
			c-0.23,0.03-0.45,0.03-0.67,0C161.91,253.31,161.2,252.9,160.74,252.24z M180.23,68.26c-10.17-4.74-20.74-8.58-31.47-11.42
			c39.08,107.7,29.87,164.21,18.92,190.32c13.64-1.98,26.52-5.19,38.41-9.56C231.28,121.06,184.9,72.76,180.23,68.26z"/>
	</g>
	<g>
		
			<ellipse transform="matrix(0.119 -0.9929 0.9929 0.119 59.8717 386.3019)" class="st2" cx="247.62" cy="159.41" rx="12.91" ry="10.09"/>
	</g>
</g>
</svg>
