<?xml version="1.0" encoding="utf-8"?>
<!-- Generator: Adobe Illustrator 23.1.1, SVG Export Plug-In . SVG Version: 6.00 Build 0)  -->
<svg version="1.1" id="Layer_1" xmlns="http://www.w3.org/2000/svg" xmlns:xlink="http://www.w3.org/1999/xlink" x="0px" y="0px"
	 viewBox="0 0 300 300" style="enable-background:new 0 0 300 300;" xml:space="preserve">
<style type="text/css">
	.st0{fill:#F4914F;}
	.st1{fill:#FFFFFF;}
	.st2{fill:#2B2341;}
	.st3{fill:#E1617C;}
	.st4{fill:#A93A5C;}
	.st5{fill:#F6BC90;}
	.st6{fill:#F7ADA5;}
	.st7{fill:#57A1CC;}
	.st8{fill:#F49088;}
	.st9{fill:#F9AD58;}
	.st10{fill:#B8693C;}
	.st11{fill:#FAC490;}
	.st12{fill:none;stroke:#2B2341;stroke-width:4;stroke-linecap:round;stroke-miterlimit:10;}
	.st13{fill:#717DA3;}
	.st14{fill:#7393CA;}
	.st15{fill:none;stroke:#F4914F;stroke-width:4;stroke-linecap:round;stroke-miterlimit:10;}
	.st16{fill:#BD426F;}
</style>
<g>
	<g>
		<path class="st4" d="M285.75,63.1C94.08-3.78,14.25,168.64,14.25,168.64c52.64,113.87,206.4,78.6,206.4,78.6
			c-26.97-16.03-49.02-41.7-56.84-70.67c10.74,9.02,35.4,23.9,67.5,6.34l-31.53-30.89l23.34-37.46
			c-29.4-7.89-48.49,4.83-58.86,15.84c0.6-2,1.25-4.01,2.02-6.01C183.74,78.7,236.1,45.77,285.75,63.1z"/>
		<path class="st4" d="M202.74,252.93c-43,5.15-149.06,7.71-191.05-83.11c-0.34-0.75-0.35-1.61,0-2.36
			c0.81-1.74,83.14-173.95,274.98-107.02c1.46,0.51,2.24,2.11,1.73,3.58c-0.51,1.47-2.12,2.24-3.58,1.73l0,0
			c-0.02-0.01-0.05-0.02-0.07-0.02c-47.36-16.47-95.9,14.62-113.94,55.04c11.89-8.89,29.28-15.3,53.03-8.92
			c0.86,0.23,1.56,0.86,1.88,1.68c0.33,0.83,0.24,1.76-0.23,2.52l-22.14,35.55l29.92,29.31c0.64,0.63,0.94,1.51,0.82,2.39
			c-0.12,0.88-0.65,1.65-1.43,2.08c-27.95,15.31-50.74,6.73-63.54-1.43c8.9,23.84,28.19,46.16,52.96,60.89
			c0.99,0.59,1.52,1.71,1.34,2.85c-0.18,1.13-1.03,2.05-2.15,2.3C220.95,250.06,214.01,251.58,202.74,252.93z M17.36,168.67
			c45.22,95.55,165.56,82.17,195.74,77.14c-25.73-17.17-44.94-42.34-52-68.5c-0.32-1.19,0.17-2.44,1.2-3.1
			c1.03-0.66,2.38-0.58,3.32,0.22c10.68,8.97,32.49,21.52,60.95,7.77l-28.75-28.16c-0.95-0.93-1.12-2.37-0.42-3.5l21.28-34.16
			c-25.57-5.48-42.52,5.48-52.38,15.95c-0.9,0.95-2.33,1.15-3.45,0.51c-1.13-0.65-1.66-1.99-1.29-3.24c0.62-2.07,1.3-4.14,2.09-6.21
			c12.93-33.85,46.31-62.6,84.24-67.15c0.79-0.09,1.58-0.18,2.37-0.25c-79.39-16.98-135.72,9.57-170.4,37
			C40.93,123.79,20.88,161.62,17.36,168.67z"/>
	</g>
	<g>
		<path class="st1" d="M155.7,52.84c-13.56,3.17-26.05,7.68-37.54,13.07c-1.09,1-53.89,50.18-26.67,173.8
			c15.11,5.72,30.64,9.11,45.48,10.91C125.55,227.46,112.06,170.4,155.7,52.84z"/>
		<path class="st1" d="M137.31,253.41c-0.22,0.03-0.44,0.03-0.67,0c-16.49-2-32.01-5.73-46.14-11.07c-0.89-0.34-1.55-1.1-1.75-2.02
			C61.39,116.09,114.01,65.92,116.26,63.84c0.21-0.2,0.45-0.36,0.71-0.48c12.26-5.75,25.07-10.22,38.09-13.26
			c1.02-0.23,2.06,0.1,2.75,0.88c0.68,0.78,0.89,1.87,0.52,2.84c-43.08,116.04-30.3,172.34-18.84,195.56
			c0.45,0.92,0.37,2.02-0.23,2.87C138.8,252.9,138.09,253.31,137.31,253.41z M93.91,237.61c11.88,4.37,24.77,7.58,38.41,9.56
			c-10.95-26.11-20.16-82.62,18.92-190.32c-10.74,2.84-21.3,6.67-31.47,11.42C115.1,72.76,68.72,121.06,93.91,237.61z"/>
	</g>
	<g>
		
			<ellipse transform="matrix(0.9929 -0.119 0.119 0.9929 -18.5957 7.3655)" class="st2" cx="52.38" cy="159.41" rx="10.09" ry="12.91"/>
	</g>
</g>
</svg>
