<?xml version="1.0" encoding="utf-8"?>
<!-- Generator: Adobe Illustrator 23.1.1, SVG Export Plug-In . SVG Version: 6.00 Build 0)  -->
<svg version="1.1" id="Layer_1" xmlns="http://www.w3.org/2000/svg" xmlns:xlink="http://www.w3.org/1999/xlink" x="0px" y="0px"
	 viewBox="0 0 400 400" style="enable-background:new 0 0 400 400;" xml:space="preserve">
<style type="text/css">
	.st0{opacity:0;fill:#7392C8;}
	.st1{fill:#7392C8;}
</style>
<circle class="st0" cx="200" cy="200" r="196.48"/>
<g>
	<path class="st1" d="M261.04,22.96c-1.71-0.78-3.62-1.18-5.57-1.26c-0.83-0.57-5.44-3.28-14.09-0.45c0,0,3.9,1.33,4.42,2.92
		c-1.37,0.85-2.56,1.9-3.46,3.13c-0.59,0.8-1.05,1.74-1.04,2.71c0,0,0,0-0.01,0c-0.39,0.01-0.79-0.03-1.17-0.1
		c-0.89-0.17-1.74-0.5-2.62-0.7c-1.91-0.42-3.95-0.2-5.72,0.62c0.38,0.92,1.37,1.38,2.31,1.71c0.93,0.33,1.95,0.64,2.54,1.43
		c0.57,0.77,0.59,1.82,0.47,2.77c-0.14,1.2-0.46,2.37-0.94,3.48c1.34-0.13,2.6-0.77,3.65-1.63c1.05-0.86,1.9-1.92,2.71-3
		c0.14-0.18,0.53-0.74,0.97-1.42c0.37,0.22,0.77,0.39,1.18,0.52c2.02,0.64,4.38,0.49,6.46,0.31c0.01,0,0.02,0,0.03-0.01
		c0.02,0.21,0.61,5.78,4.44-1.15c2.77-1.2,5.1-3.2,6.38-5.76c0.03-0.07,0.07-0.14,0.1-0.21C262.7,25.47,262.8,23.77,261.04,22.96z"
		/>
	<path class="st1" d="M126.85,55.32c-1.76-0.64-3.7-0.88-5.64-0.79c-0.87-0.5-5.68-2.81-14.05,0.71c0,0,3.99,1,4.64,2.54
		c-1.29,0.96-2.39,2.1-3.18,3.39c-0.52,0.85-0.9,1.81-0.81,2.78c0,0,0,0,0,0c-0.39,0.04-0.78,0.04-1.17-0.01
		c-0.9-0.1-1.77-0.35-2.66-0.47c-1.93-0.26-3.94,0.13-5.63,1.09c0.45,0.88,1.48,1.26,2.44,1.51c0.95,0.25,1.99,0.47,2.64,1.22
		c0.63,0.72,0.73,1.76,0.7,2.72c-0.04,1.2-0.26,2.4-0.65,3.54c1.33-0.24,2.52-0.98,3.49-1.92c0.97-0.94,1.73-2.06,2.45-3.2
		c0.12-0.19,0.47-0.77,0.84-1.49c0.39,0.18,0.8,0.32,1.22,0.42c2.06,0.47,4.4,0.13,6.45-0.23c0.01,0,0.02,0,0.03-0.01
		c0.04,0.2,1.09,5.7,4.32-1.51c2.65-1.41,4.81-3.61,5.87-6.26c0.03-0.07,0.06-0.14,0.08-0.22
		C128.71,57.68,128.67,55.98,126.85,55.32z"/>
	<path class="st1" d="M145.7,22.39c-1.7-0.78-3.61-1.18-5.56-1.25c-0.83-0.57-5.43-3.27-14.06-0.45c0,0,3.89,1.33,4.41,2.92
		c-1.37,0.85-2.56,1.89-3.45,3.12c-0.59,0.8-1.05,1.73-1.04,2.7c0,0,0,0-0.01,0c-0.39,0.01-0.79-0.03-1.17-0.1
		c-0.89-0.17-1.74-0.5-2.62-0.69c-1.9-0.42-3.94-0.2-5.71,0.62c0.38,0.91,1.38,1.38,2.3,1.7c0.93,0.33,1.95,0.64,2.53,1.43
		c0.57,0.77,0.58,1.82,0.47,2.77c-0.14,1.2-0.46,2.37-0.94,3.47c1.34-0.13,2.6-0.77,3.64-1.63c1.04-0.86,1.89-1.91,2.7-2.99
		c0.14-0.18,0.53-0.73,0.96-1.41c0.37,0.22,0.77,0.39,1.18,0.52c2.02,0.64,4.37,0.49,6.45,0.31c0.01,0,0.02,0,0.03-0.01
		c0.02,0.2,0.61,5.77,4.43-1.15c2.76-1.19,5.09-3.2,6.36-5.75c0.03-0.07,0.07-0.14,0.1-0.21C147.36,24.89,147.45,23.2,145.7,22.39z"
		/>
	<path class="st1" d="M180.43,21.73c-1.32-0.61-2.8-0.91-4.31-0.97c-0.65-0.44-4.21-2.54-10.9-0.35c0,0,3.01,1.03,3.42,2.26
		c-1.06,0.66-1.98,1.47-2.68,2.42c-0.45,0.62-0.81,1.34-0.8,2.1l0,0c-0.3,0.01-0.61-0.02-0.9-0.08c-0.69-0.13-1.35-0.39-2.03-0.54
		c-1.47-0.33-3.06-0.15-4.42,0.48c0.29,0.71,1.07,1.07,1.79,1.32c0.72,0.25,1.51,0.49,1.96,1.11c0.44,0.6,0.46,1.41,0.36,2.14
		c-0.11,0.92-0.36,1.84-0.72,2.69c1.04-0.1,2.01-0.6,2.82-1.26c0.81-0.66,1.47-1.48,2.09-2.32c0.11-0.14,0.41-0.57,0.75-1.1
		c0.29,0.17,0.59,0.3,0.91,0.4c1.56,0.49,3.39,0.38,4.99,0.24c0.01,0,0.01,0,0.02,0c0.02,0.16,0.47,4.47,3.43-0.89
		c2.14-0.92,3.95-2.48,4.93-4.46c0.03-0.05,0.05-0.11,0.08-0.16C181.72,23.67,181.79,22.36,180.43,21.73z"/>
	<path class="st1" d="M230.91,13.47c-2.2-1.01-4.67-1.52-7.19-1.62c-1.07-0.73-7.03-4.24-18.2-0.59c0,0,5.04,1.72,5.71,3.77
		c-1.77,1.1-3.31,2.45-4.47,4.04c-0.76,1.04-1.36,2.24-1.35,3.5c0,0,0,0-0.01,0c-0.51,0.01-1.02-0.04-1.51-0.14
		c-1.15-0.22-2.25-0.64-3.39-0.9c-2.46-0.55-5.1-0.25-7.38,0.81c0.49,1.18,1.77,1.79,2.98,2.21c1.2,0.42,2.52,0.83,3.28,1.85
		c0.74,1,0.76,2.35,0.61,3.58c-0.18,1.54-0.6,3.06-1.21,4.5c1.74-0.16,3.36-1,4.71-2.1s2.45-2.48,3.5-3.87
		c0.18-0.24,0.69-0.95,1.25-1.83c0.48,0.27,1,0.5,1.52,0.67c2.61,0.83,5.66,0.64,8.34,0.4c0.01,0,0.02,0,0.04-0.01
		c0.03,0.26,0.79,7.47,5.73-1.48c3.57-1.55,6.58-4.14,8.24-7.45c0.04-0.09,0.09-0.18,0.13-0.27
		C233.07,16.71,233.18,14.51,230.91,13.47z"/>
	<path class="st1" d="M174.64,51.54c-1.74-0.8-3.71-1.21-5.7-1.28c-0.85-0.58-5.57-3.36-14.43-0.46c0,0,3.99,1.37,4.53,2.99
		c-1.4,0.87-2.62,1.94-3.54,3.2c-0.6,0.82-1.07,1.78-1.07,2.77c0,0,0,0-0.01,0c-0.4,0.01-0.81-0.03-1.2-0.11
		c-0.91-0.18-1.78-0.51-2.68-0.71c-1.95-0.43-4.04-0.2-5.85,0.64c0.38,0.93,1.41,1.42,2.37,1.75c0.95,0.33,2,0.66,2.6,1.47
		c0.59,0.79,0.6,1.86,0.49,2.84c-0.15,1.23-0.47,2.43-0.96,3.56c1.38-0.13,2.66-0.79,3.73-1.67c1.07-0.88,1.94-1.96,2.77-3.07
		c0.14-0.19,0.55-0.75,0.99-1.45c0.38,0.22,0.79,0.4,1.21,0.53c2.07,0.66,4.49,0.5,6.61,0.32c0.01,0,0.02,0,0.03-0.01
		c0.02,0.21,0.63,5.92,4.54-1.17c2.83-1.22,5.22-3.28,6.53-5.9c0.03-0.07,0.07-0.14,0.1-0.22C176.35,54.1,176.44,52.37,174.64,51.54
		z"/>
	<path class="st1" d="M216.09,45.09c-1.47-0.52-3.08-0.71-4.7-0.63c-0.73-0.41-4.74-2.32-11.69,0.66c0,0,3.32,0.82,3.87,2.09
		c-1.07,0.8-1.98,1.76-2.63,2.84c-0.43,0.71-0.74,1.51-0.66,2.31l0,0c-0.32,0.04-0.65,0.03-0.98,0c-0.75-0.07-1.48-0.29-2.22-0.38
		c-1.61-0.21-3.28,0.12-4.68,0.94c0.37,0.73,1.24,1.04,2.03,1.25c0.79,0.2,1.66,0.39,2.2,1c0.53,0.6,0.62,1.46,0.59,2.26
		c-0.03,1-0.21,2-0.52,2.95c1.1-0.2,2.1-0.83,2.9-1.61c0.8-0.78,1.43-1.73,2.02-2.68c0.1-0.16,0.39-0.65,0.69-1.24
		c0.32,0.15,0.67,0.27,1.01,0.34c1.72,0.38,3.66,0.09,5.36-0.22c0.01,0,0.01,0,0.02-0.01c0.03,0.17,0.93,4.74,3.58-1.27
		c2.2-1.19,3.98-3.02,4.85-5.23c0.02-0.06,0.05-0.12,0.07-0.18C217.65,47.04,217.6,45.63,216.09,45.09z"/>
	<path class="st1" d="M155.25,78.11c-1.16-0.53-2.45-0.8-3.77-0.85c-0.56-0.39-3.68-2.22-9.54-0.31c0,0,2.64,0.9,2.99,1.98
		c-0.93,0.58-1.74,1.28-2.34,2.12c-0.4,0.55-0.71,1.18-0.7,1.84l0,0c-0.27,0.01-0.54-0.02-0.79-0.07c-0.6-0.11-1.18-0.34-1.78-0.47
		c-1.29-0.29-2.67-0.13-3.87,0.42c0.25,0.62,0.93,0.94,1.56,1.16c0.63,0.22,1.32,0.43,1.72,0.97c0.38,0.52,0.4,1.23,0.32,1.88
		c-0.1,0.81-0.31,1.61-0.63,2.36c0.91-0.09,1.76-0.52,2.47-1.1c0.71-0.58,1.29-1.3,1.83-2.03c0.09-0.12,0.36-0.5,0.65-0.96
		c0.25,0.15,0.52,0.27,0.8,0.35c1.37,0.43,2.97,0.34,4.37,0.21c0,0,0.01,0,0.02,0c0.01,0.14,0.42,3.92,3-0.78
		c1.87-0.81,3.45-2.17,4.32-3.9c0.02-0.05,0.04-0.1,0.07-0.14C156.37,79.81,156.44,78.66,155.25,78.11z"/>
</g>
</svg>
