<?xml version="1.0" encoding="utf-8"?>
<!-- Generator: Adobe Illustrator 23.1.1, SVG Export Plug-In . SVG Version: 6.00 Build 0)  -->
<svg version="1.1" id="Layer_1" xmlns="http://www.w3.org/2000/svg" xmlns:xlink="http://www.w3.org/1999/xlink" x="0px" y="0px"
	 viewBox="0 0 300 300" style="enable-background:new 0 0 300 300;" xml:space="preserve">
<style type="text/css">
	.st0{fill:#F4914F;}
	.st1{fill:#FFFFFF;}
	.st2{fill:#2B2341;}
	.st3{fill:#E1617C;}
	.st4{fill:#A93A5C;}
	.st5{fill:#F6BC90;}
	.st6{fill:#F7ADA5;}
	.st7{fill:#57A1CC;}
	.st8{fill:#F49088;}
	.st9{fill:#F9AD58;}
	.st10{fill:#B8693C;}
	.st11{fill:#FAC490;}
	.st12{fill:none;stroke:#2B2341;stroke-width:4;stroke-linecap:round;stroke-miterlimit:10;}
	.st13{fill:#717DA3;}
	.st14{fill:#7393CA;}
	.st15{fill:none;stroke:#F4914F;stroke-width:4;stroke-linecap:round;stroke-miterlimit:10;}
	.st16{fill:#BD426F;}
</style>
<g>
	<g>
		<g>
			<path class="st5" d="M241.51,158.02c0,0-29.42-35.87,44.13-58.85c0,0,5.94,15.92-2.55,24.46c0,0,7.96,15.85,0.65,40.81
				C283.74,164.43,253.7,163.94,241.51,158.02z"/>
		</g>
		<g>
			<path class="st5" d="M283.69,167.82c-1.26-0.02-30.93-0.58-43.66-6.75c-0.44-0.22-0.83-0.52-1.14-0.9
				c-0.4-0.5-9.87-12.28-5.38-27.3c4.59-15.35,21.79-27.79,51.12-36.95c1.7-0.52,3.56,0.36,4.2,2.05
				c0.26,0.69,5.89,16.16-1.79,26.28c2,5.34,6.1,20.22-0.04,41.13c-0.42,1.44-1.75,2.44-3.25,2.44
				C283.72,167.82,283.7,167.82,283.69,167.82z M240.03,134.74c-3.04,10.04,2.09,18.33,3.68,20.56c9.69,4.27,30.2,5.4,37.46,5.66
				c5.6-21.77-1.05-35.67-1.11-35.81c-0.66-1.31-0.4-2.88,0.62-3.92c4.84-4.87,3.74-13.24,2.67-17.77
				C258.71,111.66,243.76,122.43,240.03,134.74z M241.44,158.02h0.07H241.44z"/>
		</g>
	</g>
	<g>
		<g>
			<path class="st0" d="M261.67,131.06c0.21,0,0.42-0.02,0.64-0.06l21.41-4.04c1.84-0.34,3.06-2.12,2.7-3.96
				c-0.35-1.85-2.12-3.06-3.96-2.7l-21.41,4.04c-1.84,0.34-3.06,2.12-2.7,3.96C258.65,129.92,260.08,131.06,261.67,131.06z"/>
		</g>
	</g>
	<g>
		<g>
			<path class="st0" d="M263.97,148.03h22.83c1.88,0,3.39-1.52,3.39-3.39s-1.52-3.39-3.39-3.39h-22.83c-1.88,0-3.39,1.52-3.39,3.39
				S262.1,148.03,263.97,148.03z"/>
		</g>
	</g>
	<g>
		<g>
			<circle class="st0" cx="142.05" cy="150" r="106.07"/>
		</g>
		<g>
			<path class="st0" d="M32.58,150c0-60.36,49.11-109.46,109.47-109.46c60.36,0,109.46,49.11,109.46,109.46
				s-49.11,109.46-109.46,109.46C81.69,259.47,32.58,210.36,32.58,150z M39.37,150c0,56.62,46.07,102.68,102.68,102.68
				S244.73,206.62,244.73,150S198.67,47.32,142.06,47.32S39.37,93.38,39.37,150z"/>
		</g>
	</g>
	<g>
		<g>
			<path class="st5" d="M59.26,121.65c0,0,43.69-27.65-26.08-77.72c0,0-11.86,14.76-5.87,26.77c0,0-13.98,13.98-14.98,42.94
				C12.34,113.65,44.29,123.64,59.26,121.65z"/>
		</g>
		<g>
			<path class="st5" d="M11.33,116.89c-1.46-0.46-2.43-1.83-2.38-3.36C9.8,89.06,19.5,74.8,23.36,70.07
				c-4.69-13.26,6.67-27.63,7.18-28.26c1.13-1.4,3.16-1.68,4.63-0.63c27.71,19.88,41.49,38.95,40.98,56.66
				c-0.5,17.26-14.48,26.3-15.07,26.68c-0.42,0.26-0.88,0.43-1.37,0.49c-1.49,0.21-3.12,0.29-4.87,0.29
				C38.41,125.3,12.53,117.26,11.33,116.89z M69.37,97.55C69.74,83.03,57.53,66.19,34,48.72c-2.75,4.36-7.23,13.26-3.65,20.47
				c0.65,1.29,0.39,2.87-0.63,3.9c-0.13,0.13-12.22,12.69-13.86,38.07c7.54,2.2,30.26,8.4,42.17,7.21
				C60.43,116.63,69.06,109.55,69.37,97.55z"/>
		</g>
	</g>
	<g>
		<g>
			<ellipse class="st2" cx="196.01" cy="121.71" rx="9.4" ry="12.38"/>
		</g>
	</g>
	<g>
		<g>
			
				<ellipse transform="matrix(0.3839 -0.9234 0.9234 0.3839 -19.3155 194.3235)" class="st2" cx="135.97" cy="111.64" rx="12.38" ry="9.4"/>
		</g>
	</g>
	<g>
		<g>
			<path class="st0" d="M45.99,86.31c1.11,0,2.19-0.54,2.84-1.54c1.03-1.56,0.59-3.67-0.98-4.69L29.17,67.86
				c-1.56-1.03-3.67-0.59-4.69,0.98c-1.03,1.56-0.59,3.67,0.98,4.69l18.67,12.22C44.7,86.13,45.34,86.31,45.99,86.31z"/>
		</g>
	</g>
	<g>
		<g>
			<path class="st0" d="M42.56,99.92c1.63,0,3.08-1.19,3.34-2.85c0.3-1.85-0.95-3.59-2.8-3.89l-26.69-4.33
				c-1.78-0.31-3.6,0.95-3.89,2.8c-0.3,1.85,0.95,3.59,2.8,3.89l26.69,4.33C42.2,99.91,42.37,99.92,42.56,99.92z"/>
		</g>
	</g>
	<g>
		<path class="st5" d="M142.02,57.8c0.8,0,1.45-0.65,1.45-1.45l0.07-26.49c0-0.8-0.65-1.45-1.45-1.45h0c-0.8,0-1.45,0.65-1.45,1.45
			l-0.07,26.49C140.57,57.15,141.22,57.79,142.02,57.8L142.02,57.8z"/>
	</g>
	<g>
		<path class="st5" d="M142.02,271.59c0.8,0,1.45-0.65,1.45-1.45l0.07-26.49c0-0.8-0.65-1.45-1.45-1.45h0
			c-0.8,0-1.45,0.65-1.45,1.45l-0.07,26.49C140.57,270.94,141.22,271.59,142.02,271.59L142.02,271.59z"/>
	</g>
	<g>
		<path class="st5" d="M48.4,151.48c0.8,0,1.45-0.65,1.45-1.45c0-0.8-0.65-1.45-1.45-1.45l-26.49-0.03c0,0,0,0,0,0
			c-0.8,0-1.45,0.65-1.45,1.45c0,0.8,0.65,1.45,1.45,1.45L48.4,151.48C48.4,151.48,48.4,151.48,48.4,151.48z"/>
	</g>
	<g>
		<path class="st5" d="M82.22,79.4c0.33,0,0.65-0.11,0.92-0.33c0.62-0.51,0.7-1.42,0.2-2.04L66.47,56.6
			c-0.51-0.62-1.43-0.7-2.04-0.2c-0.62,0.51-0.7,1.42-0.2,2.04L81.1,78.88C81.39,79.23,81.8,79.4,82.22,79.4z"/>
	</g>
	<g>
		<path class="st5" d="M218.75,243.92c0.33,0,0.65-0.11,0.92-0.33c0.62-0.51,0.7-1.42,0.2-2.04l-16.87-20.43
			c-0.51-0.62-1.43-0.71-2.04-0.2c-0.62,0.51-0.7,1.42-0.2,2.04l16.87,20.43C217.92,243.74,218.34,243.92,218.75,243.92z"/>
	</g>
	<g>
		<path class="st5" d="M49.6,228.18c0.33,0,0.65-0.11,0.93-0.33l20.41-16.9c0.61-0.51,0.7-1.42,0.19-2.04
			c-0.51-0.61-1.42-0.7-2.04-0.19l-20.41,16.9c-0.61,0.51-0.7,1.42-0.19,2.04C48.77,228,49.18,228.18,49.6,228.18z"/>
	</g>
	<g>
		<path class="st5" d="M111.94,65.45c0.15,0,0.3-0.02,0.45-0.07c0.76-0.25,1.17-1.07,0.92-1.83l-8.29-25.16
			c-0.25-0.76-1.07-1.18-1.83-0.92c-0.76,0.25-1.17,1.07-0.92,1.83l8.29,25.16C110.77,65.07,111.33,65.45,111.94,65.45z"/>
	</g>
	<g>
		<path class="st5" d="M179.38,268.33c0.15,0,0.3-0.02,0.45-0.07c0.76-0.25,1.17-1.07,0.92-1.83l-8.29-25.16
			c-0.25-0.76-1.07-1.18-1.83-0.92c-0.76,0.25-1.17,1.07-0.92,1.83l8.29,25.16C178.21,267.95,178.78,268.33,179.38,268.33z"/>
	</g>
	<g>
		<path class="st5" d="M27.5,192.21c0.15,0,0.31-0.02,0.46-0.07l25.15-8.33c0.76-0.25,1.17-1.07,0.92-1.83
			c-0.25-0.76-1.07-1.18-1.83-0.92l-25.15,8.33c-0.76,0.25-1.17,1.07-0.92,1.83C26.33,191.83,26.9,192.21,27.5,192.21z"/>
	</g>
	<g>
		<path class="st5" d="M224.86,107.7c0.23,0,0.46-0.05,0.67-0.17l23.45-12.34c0.71-0.37,0.98-1.25,0.61-1.96
			c-0.38-0.71-1.25-0.98-1.96-0.61l-23.45,12.34c-0.71,0.37-0.98,1.25-0.61,1.96C223.84,107.42,224.34,107.7,224.86,107.7z"/>
	</g>
	<g>
		<path class="st5" d="M177.84,64.91c0.57,0,1.11-0.34,1.34-0.89l10.16-24.47c0.31-0.74-0.05-1.58-0.78-1.89
			c-0.73-0.31-1.58,0.05-1.89,0.78L176.5,62.9c-0.31,0.74,0.05,1.58,0.78,1.89C177.47,64.87,177.65,64.91,177.84,64.91z"/>
	</g>
	<g>
		<path class="st5" d="M205.97,81.04c0.38,0,0.76-0.15,1.04-0.44l18.36-19.11c0.55-0.58,0.54-1.49-0.04-2.05
			c-0.58-0.55-1.5-0.53-2.05,0.04l-18.36,19.11c-0.55,0.58-0.54,1.49,0.04,2.05C205.25,80.9,205.61,81.04,205.97,81.04z"/>
	</g>
	<g>
		<path class="st5" d="M244.34,214.47c0.48,0,0.96-0.24,1.23-0.69c0.42-0.68,0.21-1.57-0.47-2l-22.54-13.92
			c-0.68-0.41-1.57-0.21-2,0.47c-0.42,0.68-0.21,1.57,0.47,2l22.54,13.92C243.82,214.4,244.08,214.47,244.34,214.47z"/>
	</g>
	<g>
		<path class="st5" d="M260.96,176.83c0.66,0,1.25-0.45,1.41-1.12c0.18-0.78-0.3-1.56-1.08-1.74l-25.78-6.1
			c-0.79-0.2-1.56,0.3-1.74,1.08c-0.18,0.78,0.3,1.56,1.08,1.74l25.78,6.1C260.74,176.82,260.85,176.83,260.96,176.83z"/>
	</g>
	<g>
		<path class="st5" d="M96.61,259.92c0.56,0,1.09-0.33,1.33-0.87l10.59-24.29c0.32-0.74-0.01-1.59-0.75-1.91
			c-0.73-0.32-1.59,0.01-1.91,0.75l-10.59,24.29c-0.32,0.74,0.01,1.59,0.75,1.91C96.22,259.88,96.42,259.92,96.61,259.92z"/>
	</g>
	<circle class="st3" cx="210.4" cy="144.05" r="9.96"/>
	<circle class="st3" cx="113.39" cy="121.91" r="9.96"/>
	<path class="st12" d="M156.49,128.17c0,0,16.25-18.8,17.06,4.04"/>
</g>
</svg>
