<?xml version="1.0" encoding="utf-8"?>
<!-- Generator: Adobe Illustrator 23.1.1, SVG Export Plug-In . SVG Version: 6.00 Build 0)  -->
<svg version="1.1" id="Layer_1" xmlns="http://www.w3.org/2000/svg" xmlns:xlink="http://www.w3.org/1999/xlink" x="0px" y="0px"
	 viewBox="0 0 300 300" style="enable-background:new 0 0 300 300;" xml:space="preserve">
<style type="text/css">
	.st0{fill:#F4914F;}
	.st1{fill:#FFFFFF;}
	.st2{fill:#2B2341;}
	.st3{fill:#E1617C;}
	.st4{fill:#A93A5C;}
	.st5{fill:#F6BC90;}
	.st6{fill:#F7ADA5;}
	.st7{fill:#57A1CC;}
	.st8{fill:#F49088;}
	.st9{fill:#F9AD58;}
	.st10{fill:#B8693C;}
	.st11{fill:#FAC490;}
	.st12{fill:none;stroke:#2B2341;stroke-width:4;stroke-linecap:round;stroke-miterlimit:10;}
	.st13{fill:#717DA3;}
	.st14{fill:#7393CA;}
	.st15{fill:none;stroke:#F4914F;stroke-width:4;stroke-linecap:round;stroke-miterlimit:10;}
	.st16{fill:#BD426F;}
</style>
<g>
	<g>
		<g>
			<path class="st0" d="M58.49,158.02c0,0,29.42-35.87-44.13-58.85c0,0-5.94,15.92,2.55,24.46c0,0-7.96,15.85-0.65,40.81
				C16.26,164.43,46.3,163.94,58.49,158.02z"/>
		</g>
		<g>
			<path class="st0" d="M16.26,167.82c-1.5,0-2.83-0.99-3.25-2.44c-6.14-20.91-2.03-35.79-0.04-41.13
				c-7.68-10.12-2.05-25.59-1.79-26.28c0.64-1.69,2.5-2.58,4.2-2.05c29.33,9.17,46.53,21.6,51.12,36.95
				c4.49,15.02-4.98,26.8-5.38,27.3c-0.31,0.38-0.7,0.68-1.14,0.9c-12.73,6.17-42.4,6.73-43.66,6.75
				C16.3,167.82,16.28,167.82,16.26,167.82z M16.65,103.46c-1.07,4.53-2.17,12.9,2.67,17.77c1.03,1.03,1.28,2.61,0.62,3.92
				c-0.06,0.13-6.71,14.04-1.11,35.81c7.26-0.27,27.77-1.39,37.46-5.66c1.59-2.23,6.72-10.52,3.68-20.56
				C56.24,122.43,41.29,111.66,16.65,103.46z M58.49,158.02h0.07H58.49z"/>
		</g>
	</g>
	<g>
		<g>
			<path class="st5" d="M38.33,131.06c-0.21,0-0.42-0.02-0.64-0.06l-21.41-4.04c-1.84-0.34-3.06-2.12-2.7-3.96
				c0.35-1.85,2.12-3.06,3.96-2.7l21.41,4.04c1.84,0.34,3.06,2.12,2.7,3.96C41.35,129.92,39.92,131.06,38.33,131.06z"/>
		</g>
	</g>
	<g>
		<g>
			<path class="st5" d="M36.03,148.03H13.19c-1.88,0-3.39-1.52-3.39-3.39s1.52-3.39,3.39-3.39h22.83c1.88,0,3.39,1.52,3.39,3.39
				S37.9,148.03,36.03,148.03z"/>
		</g>
	</g>
	<g>
		<g>
			<circle class="st5" cx="157.95" cy="150" r="106.07"/>
		</g>
		<g>
			<path class="st5" d="M157.94,259.47c-60.36,0-109.46-49.11-109.46-109.46S97.59,40.54,157.94,40.54
				c60.36,0,109.47,49.11,109.47,109.46S218.31,259.47,157.94,259.47z M157.94,47.32C101.33,47.32,55.27,93.38,55.27,150
				s46.06,102.68,102.68,102.68S260.63,206.62,260.63,150S214.56,47.32,157.94,47.32z"/>
		</g>
	</g>
	<g>
		<g>
			<path class="st0" d="M240.74,121.65c0,0-43.69-27.65,26.08-77.72c0,0,11.86,14.76,5.87,26.77c0,0,13.98,13.98,14.98,42.94
				C287.66,113.65,255.71,123.64,240.74,121.65z"/>
		</g>
		<g>
			<path class="st0" d="M245.15,125.3c-1.74,0-3.37-0.09-4.87-0.29c-0.48-0.06-0.95-0.23-1.37-0.49
				c-0.6-0.38-14.57-9.42-15.07-26.68c-0.51-17.72,13.28-36.78,40.98-56.66c1.47-1.05,3.49-0.77,4.63,0.63
				c0.51,0.64,11.87,15.01,7.18,28.26c3.86,4.74,13.57,19,14.42,43.46c0.05,1.53-0.92,2.9-2.38,3.36
				C287.47,117.26,261.59,125.3,245.15,125.3z M241.97,118.37c11.9,1.19,34.63-5.01,42.17-7.21c-1.64-25.37-13.73-37.94-13.86-38.07
				c-1.02-1.03-1.28-2.61-0.63-3.9c3.59-7.2-0.89-16.11-3.65-20.47c-23.53,17.47-35.75,34.31-35.37,48.83
				C230.94,109.55,239.57,116.63,241.97,118.37z"/>
		</g>
	</g>
	<g>
		<g>
			<ellipse class="st2" cx="103.99" cy="121.71" rx="9.4" ry="12.38"/>
		</g>
	</g>
	<g>
		<g>
			
				<ellipse transform="matrix(0.9234 -0.3839 0.3839 0.9234 -30.2893 71.5318)" class="st2" cx="164.03" cy="111.64" rx="9.4" ry="12.38"/>
		</g>
	</g>
	<g>
		<g>
			<path class="st5" d="M254.01,86.31c-1.11,0-2.19-0.54-2.84-1.54c-1.03-1.56-0.59-3.67,0.98-4.69l18.67-12.22
				c1.56-1.03,3.67-0.59,4.69,0.98c1.03,1.56,0.59,3.67-0.98,4.69l-18.67,12.22C255.3,86.13,254.66,86.31,254.01,86.31z"/>
		</g>
	</g>
	<g>
		<g>
			<path class="st5" d="M257.44,99.92c-1.63,0-3.08-1.19-3.34-2.85c-0.3-1.85,0.95-3.59,2.8-3.89l26.69-4.33
				c1.78-0.31,3.6,0.95,3.89,2.8c0.3,1.85-0.95,3.59-2.8,3.89l-26.69,4.33C257.8,99.91,257.63,99.92,257.44,99.92z"/>
		</g>
	</g>
	<circle class="st8" cx="89.6" cy="144.05" r="9.96"/>
	<circle class="st8" cx="186.61" cy="121.91" r="9.96"/>
	<path class="st2" d="M135.61,120.23c-8.95,0-16.24,7.28-16.24,16.23c0,8.95,7.28,16.24,16.24,16.24c8.95,0,16.23-7.28,16.23-16.24
		C151.84,127.52,144.56,120.23,135.61,120.23z"/>
	<path class="st3" d="M151.84,136.47c0,8.95-7.28,16.23-16.23,16.23c-2.96,0-5.74-0.79-8.13-2.18c2.83-10.92,12.2-19.02,23.44-19.44
		C151.52,132.77,151.84,134.58,151.84,136.47z"/>
	<g>
		<path class="st0" d="M157.98,57.8c-0.8,0-1.45-0.65-1.45-1.45l-0.07-26.49c0-0.8,0.65-1.45,1.45-1.45h0c0.8,0,1.45,0.65,1.45,1.45
			l0.07,26.49C159.43,57.15,158.78,57.79,157.98,57.8L157.98,57.8z"/>
	</g>
	<g>
		<path class="st0" d="M157.98,271.59c-0.8,0-1.45-0.65-1.45-1.45l-0.07-26.49c0-0.8,0.65-1.45,1.45-1.45h0
			c0.8,0,1.45,0.65,1.45,1.45l0.07,26.49C159.43,270.94,158.78,271.59,157.98,271.59L157.98,271.59z"/>
	</g>
	<g>
		<path class="st0" d="M251.6,151.48c-0.8,0-1.45-0.65-1.45-1.45c0-0.8,0.65-1.45,1.45-1.45l26.49-0.03c0,0,0,0,0,0
			c0.8,0,1.45,0.65,1.45,1.45c0,0.8-0.65,1.45-1.45,1.45L251.6,151.48C251.6,151.48,251.6,151.48,251.6,151.48z"/>
	</g>
	<g>
		<path class="st0" d="M217.78,79.4c-0.33,0-0.65-0.11-0.92-0.33c-0.62-0.51-0.7-1.42-0.2-2.04l16.87-20.43
			c0.51-0.62,1.43-0.7,2.04-0.2c0.62,0.51,0.7,1.42,0.2,2.04L218.9,78.88C218.61,79.23,218.2,79.4,217.78,79.4z"/>
	</g>
	<g>
		<path class="st0" d="M81.25,243.92c-0.33,0-0.65-0.11-0.92-0.33c-0.62-0.51-0.7-1.42-0.2-2.04l16.87-20.43
			c0.51-0.62,1.43-0.71,2.04-0.2c0.62,0.51,0.7,1.42,0.2,2.04L82.36,243.4C82.08,243.74,81.66,243.92,81.25,243.92z"/>
	</g>
	<g>
		<path class="st0" d="M250.4,228.18c-0.33,0-0.65-0.11-0.93-0.33l-20.41-16.9c-0.61-0.51-0.7-1.42-0.19-2.04
			c0.51-0.61,1.42-0.7,2.04-0.19l20.41,16.9c0.61,0.51,0.7,1.42,0.19,2.04C251.23,228,250.82,228.18,250.4,228.18z"/>
	</g>
	<g>
		<path class="st0" d="M188.06,65.45c-0.15,0-0.3-0.02-0.45-0.07c-0.76-0.25-1.17-1.07-0.92-1.83l8.29-25.16
			c0.25-0.76,1.07-1.18,1.83-0.92c0.76,0.25,1.17,1.07,0.92,1.83l-8.29,25.16C189.23,65.07,188.67,65.45,188.06,65.45z"/>
	</g>
	<g>
		<path class="st0" d="M120.62,268.33c-0.15,0-0.3-0.02-0.45-0.07c-0.76-0.25-1.17-1.07-0.92-1.83l8.29-25.16
			c0.25-0.76,1.07-1.18,1.83-0.92c0.76,0.25,1.17,1.07,0.92,1.83l-8.29,25.16C121.79,267.95,121.22,268.33,120.62,268.33z"/>
	</g>
	<g>
		<path class="st0" d="M272.5,192.21c-0.15,0-0.31-0.02-0.46-0.07l-25.15-8.33c-0.76-0.25-1.17-1.07-0.92-1.83
			c0.25-0.76,1.07-1.18,1.83-0.92l25.15,8.33c0.76,0.25,1.17,1.07,0.92,1.83C273.67,191.83,273.1,192.21,272.5,192.21z"/>
	</g>
	<g>
		<path class="st0" d="M75.14,107.7c-0.23,0-0.46-0.05-0.67-0.17L51.02,95.2c-0.71-0.37-0.98-1.25-0.61-1.96
			c0.38-0.71,1.25-0.98,1.96-0.61l23.45,12.34c0.71,0.37,0.98,1.25,0.61,1.96C76.16,107.42,75.66,107.7,75.14,107.7z"/>
	</g>
	<g>
		<path class="st0" d="M122.16,64.91c-0.57,0-1.11-0.34-1.34-0.89l-10.16-24.47c-0.31-0.74,0.05-1.58,0.78-1.89
			c0.73-0.31,1.58,0.05,1.89,0.78L123.5,62.9c0.31,0.74-0.05,1.58-0.78,1.89C122.53,64.87,122.35,64.91,122.16,64.91z"/>
	</g>
	<g>
		<path class="st0" d="M94.03,81.04c-0.38,0-0.76-0.15-1.04-0.44L74.63,61.49c-0.55-0.58-0.54-1.49,0.04-2.05
			c0.58-0.55,1.5-0.53,2.05,0.04l18.36,19.11c0.55,0.58,0.54,1.49-0.04,2.05C94.75,80.9,94.39,81.04,94.03,81.04z"/>
	</g>
	<g>
		<path class="st0" d="M55.66,214.47c-0.48,0-0.96-0.24-1.23-0.69c-0.42-0.68-0.21-1.57,0.47-2l22.54-13.92
			c0.68-0.41,1.57-0.21,2,0.47c0.42,0.68,0.21,1.57-0.47,2l-22.54,13.92C56.18,214.4,55.92,214.47,55.66,214.47z"/>
	</g>
	<g>
		<path class="st0" d="M39.04,176.83c-0.66,0-1.25-0.45-1.41-1.12c-0.18-0.78,0.3-1.56,1.08-1.74l25.78-6.1
			c0.79-0.2,1.56,0.3,1.74,1.08c0.18,0.78-0.3,1.56-1.08,1.74l-25.78,6.1C39.26,176.82,39.15,176.83,39.04,176.83z"/>
	</g>
	<g>
		<path class="st0" d="M203.39,259.92c-0.56,0-1.09-0.33-1.33-0.87l-10.59-24.29c-0.32-0.74,0.01-1.59,0.75-1.91
			c0.73-0.32,1.59,0.01,1.91,0.75l10.59,24.29c0.32,0.74-0.01,1.59-0.75,1.91C203.78,259.88,203.58,259.92,203.39,259.92z"/>
	</g>
</g>
</svg>
