<?xml version="1.0" encoding="utf-8"?>
<!-- Generator: Adobe Illustrator 23.1.1, SVG Export Plug-In . SVG Version: 6.00 Build 0)  -->
<svg version="1.1" id="Layer_1" xmlns="http://www.w3.org/2000/svg" xmlns:xlink="http://www.w3.org/1999/xlink" x="0px" y="0px"
	 viewBox="0 0 300 300" style="enable-background:new 0 0 300 300;" xml:space="preserve">
<style type="text/css">
	.st0{fill:#F4914F;}
	.st1{fill:#FFFFFF;}
	.st2{fill:#2B2341;}
	.st3{fill:#E1617C;}
	.st4{fill:#A93A5C;}
	.st5{fill:#F6BC90;}
	.st6{fill:#F7ADA5;}
	.st7{fill:#57A1CC;}
	.st8{fill:#F49088;}
	.st9{fill:#F9AD58;}
	.st10{fill:#B8693C;}
	.st11{fill:#FAC490;}
	.st12{fill:none;stroke:#2B2341;stroke-width:4;stroke-linecap:round;stroke-miterlimit:10;}
	.st13{fill:#717DA3;}
	.st14{fill:#7393CA;}
	.st15{fill:none;stroke:#F4914F;stroke-width:4;stroke-linecap:round;stroke-miterlimit:10;}
	.st16{fill:#BD426F;}
</style>
<g>
	<g>
		<path class="st0" d="M281.45,120.41c0,0-26.99-21.16-67.41-29.9c-5.24-8.56-19.23-26.49-42.15-21.53
			c-15.98,3.46-17.15,12.21-14.79,19.58c-9.14,1.41-18.54,3.73-28.13,7.18c-8.21-6-22.33-11.39-41.04,0.07
			c-14.35,8.79-9.73,20.11-0.71,29.69c0,0-10.88,7.75-24.28,4.56c-15.07-11.21-36.45-21.53-47.65-1.42
			c-17.04,30.62-4.56,95.62,58.69,50.65l0,0c0,0,14.73-7.69,23.42-7.87c-6.15,8.96-7.67,18.82-2.97,25.71
			c7.06,10.37,25.48,10.13,41.14-0.53c3.91-2.66,7.28-5.73,10.03-8.98c11.64,1.39,23.86,1.55,36.06,0.65
			c-3.15,9.32-1.21,18.7,5.42,22.84c8.21,5.12,20.49,0.26,27.43-10.86c3.7-5.92,5.13-12.43,4.43-17.99
			c31.9-8.02,59.05-22.75,69.04-40.63C288,141.64,294.87,129.2,281.45,120.41z"/>
		<path class="st0" d="M194.46,216.81c-3.34,0-6.51-0.87-9.28-2.6c-6.75-4.21-9.78-12.67-8.23-22c-10.34,0.55-20.35,0.27-29.84-0.75
			c-2.76,3.02-5.93,5.76-9.46,8.16c-8.16,5.55-17.32,8.68-25.8,8.79c-9.05,0.07-16.28-3.16-20.41-9.23
			c-4.19-6.14-4.42-14.44-0.9-22.79c-5.78,1.74-12.14,4.71-14.84,6.12c-31.29,22.32-49.12,17.07-58.47,8.69
			c-15.63-14-15.58-45.51-5.1-64.35c3.91-7.04,9.29-11.34,15.99-12.78c9.84-2.14,22.12,2.1,36.39,12.58c7,1.45,13.28-0.5,17.01-2.19
			c-4.88-6.18-6.99-12.04-6.26-17.47c0.74-5.55,4.37-10.36,10.78-14.3c19.9-12.19,35.27-6.43,43.49-1.02
			c7.59-2.63,15.36-4.66,23.17-6.08c-0.51-3.8,0.1-7.23,1.83-10.23c2.79-4.82,8.37-8.17,16.6-9.95
			c24.1-5.19,39.16,12.55,45.19,21.86c38.97,8.78,64.99,28.42,67.26,30.17c12.71,8.42,10.55,20.65,7.61,25.95
			c-9.67,17.32-35.13,32.77-68.4,41.64c0.01,5.74-1.77,11.72-5.16,17.14c-3.76,6.04-9.09,10.65-14.99,12.99
			C199.86,216.26,197.1,216.81,194.46,216.81z M181.69,184.62c1.12,0,2.19,0.52,2.89,1.42c0.74,0.97,0.96,2.24,0.57,3.4
			c-2.66,7.85-1.05,15.49,3.89,18.58c2.96,1.84,6.84,1.99,10.92,0.37c4.47-1.77,8.54-5.34,11.49-10.06
			c3.11-4.98,4.53-10.66,3.91-15.6c-0.23-1.83,0.94-3.54,2.73-3.99c32.81-8.25,57.76-22.79,66.75-38.87
			c0.5-0.94,4.79-9.73-5.36-16.39c-0.09-0.05-0.17-0.11-0.26-0.18c-0.27-0.21-26.88-20.77-65.92-29.21
			c-0.98-0.21-1.82-0.81-2.34-1.66c-5.69-9.28-18.22-24.23-38.27-19.86c-6.13,1.33-10.1,3.5-11.82,6.47
			c-1.26,2.19-1.35,5.02-0.26,8.42c0.32,1.02,0.19,2.12-0.37,3.03c-0.57,0.91-1.49,1.53-2.55,1.69c-9.26,1.43-18.5,3.79-27.46,7.01
			c-1.15,0.41-2.41,0.22-3.39-0.49c-7.61-5.57-20.19-10.03-36.98,0.24c-4.45,2.73-6.92,5.77-7.36,9.04
			c-0.55,4.11,2.01,9.31,7.4,15.03c0.72,0.77,1.08,1.81,0.97,2.86c-0.1,1.05-0.66,2-1.51,2.62c-0.5,0.35-12.4,8.68-27.24,5.14
			c-0.48-0.11-0.94-0.33-1.33-0.62c-12.6-9.36-23.37-13.43-31.13-11.76c-4.62,0.99-8.26,4-11.15,9.18
			c-8.96,16.1-9.34,43.79,3.59,55.37c10.39,9.31,28.08,5.96,49.8-9.46c1.06-0.59,16.02-8.34,25.46-8.54
			c1.5,0.03,2.63,0.71,3.29,1.92c0.65,1.2,0.57,2.66-0.2,3.79c-5.47,7.98-6.61,16.26-2.97,21.6c2.71,3.97,7.82,5.81,14.29,6.03
			c7.06-0.1,14.8-2.77,21.79-7.53c3.55-2.41,6.68-5.22,9.29-8.31c0.79-0.95,1.94-1.43,3.22-1.27c11.09,1.31,22.99,1.54,35.37,0.63
			C181.51,184.62,181.6,184.62,181.69,184.62z"/>
	</g>
	<path class="st1" d="M128.98,95.74c0,0,21.97,52.69,16.64,91.88c0,0,23.69,3.68,33.71,0.81c0,0,5.89-68.33-22.22-99.87
		L128.98,95.74z"/>
	<path class="st2" d="M168.41,193.16c-10.72,0-22.65-1.82-23.35-1.94c-1.96-0.3-3.32-2.12-3.05-4.1
		c5.13-37.73-16.18-89.47-16.4-89.99c-0.41-0.97-0.37-2.08,0.1-3.03s1.34-1.64,2.36-1.91l28.14-7.18c1.32-0.34,2.72,0.08,3.63,1.11
		c28.82,32.34,23.37,99.76,23.14,102.61c-0.13,1.51-1.18,2.77-2.63,3.19C177.19,192.84,172.91,193.16,168.41,193.16z M149.65,184.51
		c7.08,0.9,19.08,2,26.23,0.93c0.67-12.52,2.1-65.66-20.07-92.78l-21.92,5.59C138.73,110.89,152.82,151.2,149.65,184.51z"/>
	<path class="st1" d="M236.04,96.79c0,0-37.59,40.52,6.72,77.89l14.48-6.58c0,0-27.93-42.55,7.89-58.14L236.04,96.79z"/>
	<path class="st2" d="M242.75,178.32c-0.85,0-1.68-0.29-2.36-0.86c-14.21-12-21.88-25.62-22.8-40.47
		c-1.46-23.83,15.05-41.93,15.75-42.68c1.08-1.16,2.77-1.49,4.18-0.85l29.09,13.17c1.32,0.6,2.16,1.91,2.15,3.35
		c-0.01,1.44-0.87,2.74-2.19,3.32c-7.94,3.46-12.99,8.64-15,15.41c-4.88,16.4,8.58,37.17,8.71,37.38c0.59,0.89,0.75,2,0.46,3.02
		c-0.29,1.03-1.03,1.86-2,2.31L244.27,178C243.78,178.21,243.27,178.32,242.75,178.32z M237.07,101.26
		c-3.89,5-13.22,18.84-12.18,35.35c0.76,12.17,6.97,23.52,18.48,33.77l8.66-3.93c-4.07-7.38-11.99-24.59-7.45-39.82
		c2-6.73,6.15-12.21,12.35-16.37L237.07,101.26z"/>
	<path class="st0" d="M211.17,136.62c-12.44-11.7-32.56-16.72-43.68-0.12c-7.5,11.2-2.86,24.42,8.22,31.05
		c14.48,8.67,29.84,1.88,40.7-9.26"/>
	<path class="st2" d="M189.61,175.15c-5.45,0-10.78-1.46-15.77-4.46c-6.75-4.04-11.52-10.39-13.09-17.41
		c-1.43-6.41-0.11-13.09,3.72-18.81c4.7-7.02,11.31-11.19,19.1-12.08c9.87-1.17,21.21,3.2,30.11,11.57
		c1.47,1.38,1.54,3.69,0.16,5.15c-1.38,1.47-3.69,1.55-5.16,0.16c-7.27-6.82-16.58-10.53-24.3-9.63
		c-5.67,0.65-10.34,3.63-13.85,8.89c-2.75,4.1-3.66,8.65-2.65,13.16c1.13,5.07,4.67,9.72,9.71,12.74
		c15.82,9.44,30.6-2.92,36.22-8.68c1.41-1.43,3.72-1.47,5.16-0.07c1.44,1.41,1.47,3.72,0.07,5.16
		C209.84,170.27,199.54,175.15,189.61,175.15z"/>
	<path class="st1" d="M87.24,125.49c0,0-10.88,7.75-24.28,4.56c0,0,13.78,39.53,11.04,49.24c0,0,14.73-7.69,23.42-7.87
		C97.43,171.42,87.76,143.86,87.24,125.49z"/>
	<path class="st2" d="M74,182.94c-0.82,0-1.63-0.28-2.3-0.82c-1.13-0.92-1.61-2.42-1.21-3.82c1.67-5.94-5.42-31.09-10.98-47.04
		c-0.44-1.26-0.16-2.66,0.74-3.65c0.89-0.99,2.25-1.41,3.55-1.1c11.62,2.77,21.22-3.92,21.31-3.99c1.1-0.78,2.55-0.88,3.74-0.29
		c1.21,0.6,1.99,1.82,2.02,3.16c0.49,17.57,9.89,44.55,9.99,44.83c0.38,1.1,0.22,2.33-0.45,3.29c-0.67,0.96-1.75,1.54-2.92,1.57
		c-6.42,0.13-17.92,5.43-21.81,7.45C75.16,182.8,74.58,182.94,74,182.94z M68.3,134.45c3.21,9.74,8.73,27.76,9.57,38.96
		c4.03-1.79,9.63-3.99,14.7-5.04c-2.41-7.49-7.14-23.4-8.58-37C80.21,133.02,74.71,134.71,68.3,134.45z"/>
	<ellipse class="st2" cx="263.67" cy="132.49" rx="6.74" ry="8.14"/>
</g>
</svg>
