<?xml version="1.0" encoding="utf-8"?>
<!-- Generator: Adobe Illustrator 23.1.1, SVG Export Plug-In . SVG Version: 6.00 Build 0)  -->
<svg version="1.1" id="Layer_1" xmlns="http://www.w3.org/2000/svg" xmlns:xlink="http://www.w3.org/1999/xlink" x="0px" y="0px"
	 viewBox="0 0 300 300" style="enable-background:new 0 0 300 300;" xml:space="preserve">
<style type="text/css">
	.st0{fill:#F4914F;}
	.st1{fill:#FFFFFF;}
	.st2{fill:#2B2341;}
	.st3{fill:#E1617C;}
	.st4{fill:#A93A5C;}
	.st5{fill:#F6BC90;}
	.st6{fill:#F7ADA5;}
	.st7{fill:#57A1CC;}
	.st8{fill:#F49088;}
	.st9{fill:#F9AD58;}
	.st10{fill:#B8693C;}
	.st11{fill:#FAC490;}
	.st12{fill:none;stroke:#2B2341;stroke-width:4;stroke-linecap:round;stroke-miterlimit:10;}
	.st13{fill:#717DA3;}
	.st14{fill:#7393CA;}
	.st15{fill:none;stroke:#F4914F;stroke-width:4;stroke-linecap:round;stroke-miterlimit:10;}
	.st16{fill:#BD426F;}
</style>
<g>
	<path class="st16" d="M234.5,171.66c0,0,33.58-2.53,32.78-41.1l-11.1-5.14c0,0,2.03,27.12-27.16,31.56L234.5,171.66z"/>
	<path class="st16" d="M232.51,174.78l-7.53-20.17l3.6-0.55c26.05-3.96,24.72-27.43,24.65-28.43l-0.34-4.99l17.31,8.01l0.04,1.84
		c0.85,40.9-35.15,44.08-35.51,44.11L232.51,174.78z M233.02,159.23l3.43,9.17c6.9-1.26,27.62-7.43,27.89-35.95l-5.38-2.5
		C258.08,138.16,253.71,154.48,233.02,159.23z"/>
	<path class="st16" d="M149.74,132.44c0,0-84.18-9.99-88.21,65.04c0,0,4.47,45.07,88.21,45.07c83.74,0,88.21-45.07,88.21-45.07
		C233.92,122.45,149.74,132.44,149.74,132.44z"/>
	<path class="st16" d="M149.74,245.51c-85.44,0-90.96-45.79-91.16-47.74c1.14-21.89,8.77-38.68,22.67-50.38
		c25.83-21.73,64.14-18.39,68.48-17.93c4.33-0.46,42.64-3.81,68.48,17.93c13.9,11.69,21.53,28.49,22.68,49.94
		C240.7,199.73,235.19,245.51,149.74,245.51z M140.31,134.97c-13.14,0-37.75,2.21-55.27,16.96c-12.58,10.6-19.49,25.98-20.56,45.7
		c0.18,1.27,5.52,41.96,85.26,41.96s85.08-40.69,85.27-42.42c-1.07-19.28-8-34.66-20.6-45.26c-24.9-20.94-63.94-16.59-64.32-16.54
		l-0.35,0.05l-0.35-0.05C149.28,135.36,145.8,134.97,140.31,134.97z"/>
	<path class="st16" d="M64.98,171.66c0,0-33.58-2.53-32.78-41.1l11.1-5.14c0,0-2.03,27.12,27.16,31.56L64.98,171.66z"/>
	<path class="st16" d="M66.97,174.78l-2.21-0.16c-0.36-0.03-36.36-3.21-35.51-44.11l0.04-1.84l17.31-8.02l-0.35,5
		c-0.07,0.99-1.4,24.46,24.65,28.43l3.6,0.55L66.97,174.78z M35.15,132.46c0.26,28.64,20.98,34.73,27.88,35.96l3.43-9.18
		c-20.68-4.75-25.06-21.08-25.93-29.27L35.15,132.46z"/>
	<path class="st16" d="M60.08,193.43c0,0-30.2,6.82-31.11,32.45c0,0,25.45-18.16,37.15-16.23L60.08,193.43z"/>
	<path class="st16" d="M28.97,228.84c-0.48,0-0.96-0.12-1.4-0.35c-0.99-0.53-1.6-1.58-1.56-2.71c0.98-27.59,33.09-35.16,33.42-35.23
		c1.47-0.35,2.91,0.47,3.43,1.85l6.04,16.23c0.37,0.99,0.18,2.1-0.49,2.92c-0.67,0.81-1.74,1.22-2.77,1.03
		c-8.59-1.4-28.14,10.86-34.95,15.72C30.17,228.65,29.57,228.84,28.97,228.84z M58.25,197c-6.09,1.91-21.41,8.09-25.39,22.69
		c7.21-4.63,19.66-11.81,29-12.97L58.25,197z"/>
	<path class="st16" d="M72.56,218.37c0,0-22.58,1.4-25.02,31.05c0,0,18.33-19.48,38.1-19.96L72.56,218.37z"/>
	<path class="st16" d="M47.54,252.37c-0.4,0-0.81-0.09-1.2-0.25c-1.15-0.51-1.85-1.69-1.74-2.95c2.62-31.83,27.53-33.74,27.78-33.76
		c0.73-0.09,1.51,0.2,2.1,0.69l13.08,11.08c0.94,0.8,1.29,2.09,0.88,3.24c-0.41,1.16-1.49,1.95-2.72,1.98
		c-18.28,0.44-35.84,18.85-36.02,19.03C49.12,252.05,48.33,252.37,47.54,252.37z M71.64,221.46c-3.72,0.64-15.49,3.9-19.77,19.97
		c6.07-5.01,15.82-11.73,26.72-14.09L71.64,221.46z"/>
	<path class="st16" d="M113.09,134.93c0,0-14.54-13.02-8.31-48.46h11.47c0,0-2.62,29.97,10.15,48.46
		C126.4,134.93,121.58,152.84,113.09,134.93z"/>
	<path class="st16" d="M120.28,145.85c-4.55,0-7.64-5.06-9.63-9.17c-2.63-2.71-14.65-17.27-8.78-50.72
		c0.25-1.41,1.47-2.44,2.91-2.44h11.47c0.83,0,1.62,0.35,2.18,0.96c0.56,0.61,0.84,1.43,0.77,2.25c-0.02,0.29-2.37,29.15,9.64,46.52
		c0.5,0.72,0.65,1.61,0.42,2.45c-0.43,1.6-2.86,9.62-8.41,10.13C120.65,145.84,120.47,145.85,120.28,145.85z M107.29,89.43
		c-4.77,31.27,7.66,43.2,7.79,43.31c0.28,0.26,0.52,0.58,0.68,0.92c2.81,5.94,4.53,6.27,4.55,6.27c0.65-0.11,1.99-2.18,2.84-4.54
		c-10.06-15.66-10.33-37.74-10.03-45.96H107.29z"/>
	<circle class="st1" cx="108.22" cy="68.77" r="18.18"/>
	<path class="st16" d="M108.22,89.91c-11.66,0-21.14-9.48-21.14-21.14s9.48-21.14,21.14-21.14s21.14,9.48,21.14,21.14
		S119.88,89.91,108.22,89.91z M108.22,53.54C99.83,53.54,93,60.37,93,68.77s6.83,15.23,15.23,15.23s15.22-6.83,15.22-15.23
		S116.62,53.54,108.22,53.54z"/>
	<path class="st16" d="M239.41,193.43c0,0,30.2,6.82,31.11,32.45c0,0-25.45-18.16-37.15-16.23L239.41,193.43z"/>
	<path class="st16" d="M270.52,228.84c-0.61,0-1.21-0.18-1.72-0.55c-6.81-4.86-26.43-17.13-34.95-15.72
		c-1.03,0.18-2.1-0.22-2.77-1.03c-0.67-0.81-0.86-1.92-0.49-2.92l6.04-16.23c0.51-1.38,1.97-2.19,3.43-1.85
		c0.32,0.07,32.43,7.64,33.42,35.23c0.04,1.13-0.57,2.17-1.55,2.71C271.48,228.72,271,228.84,270.52,228.84z M237.62,206.72
		c9.34,1.16,21.78,8.34,29,12.97c-3.99-14.6-19.3-20.77-25.39-22.69L237.62,206.72z"/>
	<path class="st16" d="M226.93,218.37c0,0,22.58,1.4,25.02,31.05c0,0-18.33-19.48-38.1-19.96L226.93,218.37z"/>
	<path class="st16" d="M251.94,252.37c-0.8,0-1.58-0.32-2.15-0.93c-0.17-0.18-17.74-18.59-36.02-19.03
		c-1.23-0.03-2.31-0.81-2.72-1.98c-0.41-1.16-0.06-2.44,0.88-3.24l13.08-11.08c0.58-0.49,1.35-0.77,2.1-0.69
		c0.25,0.02,25.16,1.93,27.78,33.76c0.1,1.25-0.59,2.43-1.74,2.95C252.76,252.28,252.35,252.37,251.94,252.37z M220.9,227.35
		c10.91,2.36,20.65,9.08,26.72,14.09c-4.28-16.08-16.05-19.34-19.77-19.98L220.9,227.35z"/>
	<path class="st16" d="M186.39,134.93c0,0,14.54-13.02,8.31-48.46h-11.47c0,0,2.62,29.97-10.15,48.46
		C173.08,134.93,177.9,152.84,186.39,134.93z"/>
	<path class="st16" d="M179.2,145.85c-0.18,0-0.37-0.01-0.56-0.02c-5.55-0.5-7.98-8.52-8.41-10.13c-0.23-0.84-0.08-1.73,0.42-2.45
		c12-17.37,9.66-46.23,9.64-46.52c-0.07-0.83,0.21-1.64,0.77-2.25s1.35-0.96,2.18-0.96h11.46c1.44,0,2.66,1.03,2.91,2.44
		c5.88,33.45-6.15,48-8.78,50.72C186.84,140.79,183.75,145.85,179.2,145.85z M176.33,135.39c0.86,2.4,2.18,4.43,2.84,4.54
		c0.01,0,1.73-0.34,4.54-6.27c0.17-0.35,0.4-0.66,0.69-0.92c0.2-0.19,12.54-12.13,7.79-43.31h-5.82
		C186.66,97.66,186.39,119.73,176.33,135.39z"/>
	<circle class="st1" cx="191.26" cy="68.77" r="18.18"/>
	<path class="st16" d="M191.26,89.91c-11.66,0-21.14-9.48-21.14-21.14s9.48-21.14,21.14-21.14s21.14,9.48,21.14,21.14
		S202.92,89.91,191.26,89.91z M191.26,53.54c-8.39,0-15.22,6.83-15.22,15.22s6.83,15.23,15.22,15.23s15.22-6.83,15.22-15.23
		S199.66,53.54,191.26,53.54z"/>
	<path class="st16" d="M36.71,131.87c0,0-47.59-9.06,0-63.11l3.39,26.06V68.77C40.1,68.77,91.67,114.71,36.71,131.87z"/>
	<path class="st16" d="M36.71,134.83c-0.18,0-0.37-0.02-0.55-0.05c-0.7-0.13-17.4-3.46-22.27-17.66
		c-4.41-12.84,2.53-29.77,20.61-50.3c0.76-0.88,1.97-1.22,3.08-0.88c0.31,0.09,0.59,0.23,0.84,0.41c0.15-0.11,0.32-0.2,0.49-0.28
		c1.06-0.47,2.3-0.29,3.18,0.49c1.1,0.98,26.92,24.27,22.4,45.21c-2.23,10.34-11.28,18.05-26.88,22.93
		C37.3,134.78,37.01,134.83,36.71,134.83z M34.64,75.79c-13.19,16.27-18.43,29.81-15.17,39.37c3.25,9.55,14.26,12.93,17.12,13.66
		c12.96-4.19,20.4-10.34,22.11-18.29c2.7-12.53-8.72-27.14-15.63-34.61v18.92c0,1.56-1.21,2.85-2.77,2.95
		c-1.54,0.15-2.92-1.02-3.12-2.57L34.64,75.79z"/>
	<path class="st16" d="M263.29,131.87c0,0,47.59-9.06,0-63.11l-3.39,26.06V68.77C259.9,68.77,208.33,114.71,263.29,131.87z"/>
	<path class="st16" d="M263.29,134.83c-0.3,0-0.59-0.05-0.88-0.13c-15.61-4.88-24.65-12.59-26.88-22.93
		c-4.52-20.94,21.3-44.23,22.4-45.21c0.87-0.79,2.12-0.96,3.18-0.49c0.17,0.08,0.34,0.17,0.49,0.28c0.25-0.18,0.53-0.32,0.84-0.41
		c1.11-0.34,2.32,0,3.08,0.88c18.08,20.53,25.02,37.46,20.61,50.3c-4.88,14.2-21.57,17.53-22.27,17.66
		C263.66,134.81,263.48,134.83,263.29,134.83z M256.94,75.92c-6.91,7.47-18.33,22.1-15.63,34.61c1.72,7.94,9.16,14.08,22.11,18.28
		c2.87-0.73,13.87-4.1,17.12-13.66c3.26-9.55-1.98-23.09-15.17-39.37l-2.53,19.42c-0.2,1.55-1.57,2.73-3.12,2.57
		c-1.55-0.1-2.77-1.39-2.77-2.95V75.92z"/>
	<circle class="st2" cx="113" cy="70.2" r="10.44"/>
	<circle class="st2" cx="196.04" cy="70.2" r="10.44"/>
	<path class="st2" d="M36.9,96.81c-0.03,0-0.06,0-0.09,0c-0.89-0.05-1.57-0.81-1.52-1.71l1.57-27.41c0.05-0.89,0.8-1.56,1.71-1.52
		c0.89,0.05,1.57,0.81,1.52,1.71l-1.57,27.41C38.47,96.14,37.75,96.81,36.9,96.81z"/>
	<path class="st2" d="M263.09,96.81c-0.85,0-1.56-0.66-1.61-1.52l-1.57-27.41c-0.05-0.89,0.63-1.65,1.52-1.71
		c0.91-0.04,1.66,0.63,1.71,1.52l1.57,27.41c0.05,0.89-0.63,1.65-1.52,1.71C263.15,96.81,263.12,96.81,263.09,96.81z"/>
</g>
</svg>
