<?xml version="1.0" encoding="utf-8"?>
<!-- Generator: Adobe Illustrator 23.1.1, SVG Export Plug-In . SVG Version: 6.00 Build 0)  -->
<svg version="1.1" id="Layer_1" xmlns="http://www.w3.org/2000/svg" xmlns:xlink="http://www.w3.org/1999/xlink" x="0px" y="0px"
	 viewBox="0 0 300 300" style="enable-background:new 0 0 300 300;" xml:space="preserve">
<style type="text/css">
	.st0{fill:#F4914F;}
	.st1{fill:#FFFFFF;}
	.st2{fill:#2B2341;}
	.st3{fill:#E1617C;}
	.st4{fill:#A93A5C;}
	.st5{fill:#F6BC90;}
	.st6{fill:#F7ADA5;}
	.st7{fill:#57A1CC;}
	.st8{fill:#F49088;}
	.st9{fill:#F9AD58;}
	.st10{fill:#B8693C;}
	.st11{fill:#FAC490;}
	.st12{fill:none;stroke:#2B2341;stroke-width:4;stroke-linecap:round;stroke-miterlimit:10;}
	.st13{fill:#717DA3;}
	.st14{fill:#7393CA;}
	.st15{fill:none;stroke:#F4914F;stroke-width:4;stroke-linecap:round;stroke-miterlimit:10;}
	.st16{fill:#BD426F;}
</style>
<g>
	<path class="st16" d="M234.76,171.66c0,0,33.58-2.53,32.78-41.1l-11.1-5.14c0,0,2.03,27.12-27.16,31.56L234.76,171.66z"/>
	<path class="st16" d="M232.77,174.78l-7.53-20.17l3.6-0.55c26.05-3.96,24.72-27.43,24.65-28.43l-0.34-4.99l17.31,8.01l0.04,1.84
		c0.85,40.9-35.15,44.08-35.51,44.11L232.77,174.78z M233.28,159.23l3.43,9.17c6.9-1.26,27.62-7.43,27.89-35.95l-5.38-2.5
		C258.33,138.16,253.97,154.48,233.28,159.23z"/>
	<path class="st16" d="M263.03,131.87c14.16,1.18,24.89-6.25,29.48-20.02c2.5-7.51,2.67-15.06-0.08-22.53
		c-2.29-6.21-6.1-11.75-9.28-17.46c-3.81,5.47-7.63,11.05-11.44,16.57c-1.02,1.47-12.17,15.26-11.43,16.56
		c0,0-14.38-25.15-14.39-25.17c0.45,0.79-3.57,8.36-3.93,9.39c-2.27,6.51-4.06,13.57-3.71,20.52c0.66,13,11.67,20.72,23.8,22.06
		C262.38,131.81,262.71,131.85,263.03,131.87z"/>
	<path class="st16" d="M265.87,134.95c-1.02,0-2.04-0.05-3.09-0.13l-1.05-0.1c-12.61-1.39-25.67-9.61-26.44-24.85
		c-0.32-6.31,0.91-13.19,3.87-21.64c0.12-0.34,0.58-1.32,1.18-2.56c0.69-1.41,2.24-4.59,2.59-5.75c-0.03-1.09,0.54-2.17,1.57-2.71
		c1.39-0.75,3.17-0.25,3.96,1.15c0,0,0.01,0.01,0.01,0.01c0.21,0.36,7.61,13.31,11.71,20.49c1.61-2.33,3.98-5.48,7.39-9.89
		c0.86-1.11,1.5-1.92,1.7-2.21l3.34-4.85c2.7-3.92,5.41-7.86,8.11-11.73c0.58-0.84,1.62-1.35,2.58-1.26
		c1.02,0.05,1.94,0.62,2.44,1.51c0.87,1.57,1.79,3.12,2.71,4.68c2.46,4.16,5.01,8.46,6.75,13.19c2.89,7.82,2.93,16.06,0.12,24.5
		C290.64,126.84,279.75,134.95,265.87,134.95z M246.42,86.7c-0.23,0.49-0.48,1-0.75,1.55c-0.44,0.91-0.8,1.64-0.93,1.95
		c-2.68,7.68-3.81,13.84-3.54,19.36c0.6,11.77,11.06,18.16,21.17,19.27l0.87,0.08c0.02,0,0.03,0.01,0.04,0.01
		c12.66,1.11,22.26-5.51,26.43-18c2.37-7.12,2.35-14.05-0.05-20.58c-1.57-4.22-3.97-8.29-6.3-12.22c-0.14-0.25-0.29-0.49-0.44-0.74
		c-1.81,2.62-3.62,5.25-5.44,7.88l-3.34,4.85c-0.23,0.33-0.92,1.24-1.88,2.47c-2.02,2.6-7.98,10.29-9.02,12.53
		c-0.05,0.98-0.58,1.91-1.49,2.44c-1.41,0.79-3.22,0.31-4.03-1.1h-0.01v-0.01C251.96,96.38,248.5,90.33,246.42,86.7z M262.85,103.53
		L262.85,103.53L262.85,103.53z"/>
	<path class="st16" d="M150,132.44c0,0-84.18-9.99-88.21,65.04c0,0,4.47,45.07,88.21,45.07c83.74,0,88.21-45.07,88.21-45.07
		C234.18,122.45,150,132.44,150,132.44z"/>
	<path class="st16" d="M150,245.51c-85.44,0-90.96-45.79-91.16-47.74c1.14-21.89,8.77-38.68,22.67-50.38
		c25.83-21.73,64.14-18.39,68.48-17.93c4.33-0.46,42.64-3.81,68.48,17.93c13.9,11.69,21.53,28.49,22.68,49.94
		C240.96,199.73,235.44,245.51,150,245.51z M140.57,134.97c-13.14,0-37.75,2.21-55.27,16.96c-12.58,10.6-19.49,25.98-20.56,45.7
		c0.18,1.27,5.52,41.96,85.26,41.96s85.08-40.69,85.27-42.42c-1.07-19.28-8-34.66-20.6-45.26c-24.9-20.94-63.94-16.59-64.32-16.54
		l-0.35,0.05l-0.35-0.05C149.54,135.36,146.06,134.97,140.57,134.97z"/>
	<path class="st16" d="M65.24,171.66c0,0-33.58-2.53-32.78-41.1l11.1-5.14c0,0-2.03,27.12,27.16,31.56L65.24,171.66z"/>
	<path class="st16" d="M67.23,174.78l-2.21-0.16c-0.36-0.03-36.36-3.21-35.51-44.11l0.04-1.84l17.31-8.02l-0.35,5
		c-0.07,0.99-1.4,24.46,24.65,28.43l3.6,0.55L67.23,174.78z M35.41,132.46c0.26,28.64,20.98,34.73,27.88,35.96l3.43-9.18
		c-20.68-4.75-25.06-21.08-25.93-29.27L35.41,132.46z"/>
	<path class="st16" d="M60.34,193.43c0,0-30.2,6.82-31.11,32.45c0,0,25.45-18.16,37.15-16.23L60.34,193.43z"/>
	<path class="st16" d="M29.22,228.84c-0.48,0-0.96-0.12-1.4-0.35c-0.99-0.53-1.6-1.58-1.56-2.71c0.98-27.59,33.09-35.16,33.42-35.23
		c1.47-0.35,2.91,0.47,3.43,1.85l6.04,16.23c0.37,0.99,0.18,2.1-0.49,2.92c-0.67,0.81-1.74,1.22-2.77,1.03
		c-8.59-1.4-28.14,10.86-34.95,15.72C30.43,228.65,29.83,228.84,29.22,228.84z M58.51,197c-6.09,1.91-21.41,8.09-25.39,22.69
		c7.21-4.63,19.66-11.81,29-12.97L58.51,197z"/>
	<path class="st16" d="M72.81,218.37c0,0-22.58,1.4-25.02,31.05c0,0,18.33-19.48,38.1-19.96L72.81,218.37z"/>
	<path class="st16" d="M47.79,252.37c-0.4,0-0.81-0.09-1.2-0.25c-1.15-0.51-1.85-1.69-1.74-2.95c2.62-31.83,27.53-33.74,27.78-33.76
		c0.73-0.09,1.51,0.2,2.1,0.69l13.08,11.08c0.94,0.8,1.29,2.09,0.88,3.24c-0.41,1.16-1.49,1.95-2.72,1.98
		c-18.28,0.44-35.84,18.85-36.02,19.03C49.38,252.05,48.59,252.37,47.79,252.37z M71.89,221.46c-3.72,0.64-15.49,3.9-19.77,19.97
		c6.07-5.01,15.82-11.73,26.72-14.09L71.89,221.46z"/>
	<path class="st16" d="M113.35,134.93c0,0-14.54-13.02-8.31-48.46h11.47c0,0-2.62,29.97,10.15,48.46
		C126.66,134.93,121.84,152.84,113.35,134.93z"/>
	<path class="st16" d="M120.54,145.85c-4.55,0-7.64-5.06-9.63-9.17c-2.63-2.71-14.65-17.27-8.78-50.72
		c0.25-1.41,1.47-2.44,2.91-2.44h11.47c0.83,0,1.62,0.35,2.18,0.96s0.84,1.43,0.77,2.25c-0.02,0.29-2.37,29.15,9.64,46.52
		c0.5,0.72,0.65,1.61,0.42,2.45c-0.43,1.6-2.86,9.62-8.41,10.13C120.91,145.84,120.73,145.85,120.54,145.85z M107.55,89.43
		c-4.77,31.27,7.66,43.2,7.79,43.31c0.28,0.26,0.52,0.58,0.68,0.92c2.81,5.94,4.53,6.27,4.55,6.27c0.65-0.11,1.99-2.18,2.84-4.54
		c-10.06-15.66-10.33-37.74-10.03-45.96H107.55z"/>
	<circle class="st1" cx="108.48" cy="68.77" r="18.18"/>
	<path class="st16" d="M108.48,89.91c-11.66,0-21.14-9.48-21.14-21.14s9.48-21.14,21.14-21.14s21.14,9.48,21.14,21.14
		S120.14,89.91,108.48,89.91z M108.48,53.54c-8.39,0-15.23,6.83-15.23,15.22s6.83,15.23,15.23,15.23s15.22-6.83,15.22-15.23
		S116.87,53.54,108.48,53.54z"/>
	<path class="st16" d="M239.66,193.43c0,0,30.2,6.82,31.11,32.45c0,0-25.45-18.16-37.15-16.23L239.66,193.43z"/>
	<path class="st16" d="M270.78,228.84c-0.61,0-1.21-0.18-1.72-0.55c-6.81-4.86-26.43-17.13-34.95-15.72
		c-1.03,0.18-2.1-0.22-2.77-1.03c-0.67-0.81-0.86-1.92-0.49-2.92l6.04-16.23c0.51-1.38,1.97-2.19,3.43-1.85
		c0.32,0.07,32.43,7.64,33.42,35.23c0.04,1.13-0.57,2.17-1.55,2.71C271.74,228.72,271.26,228.84,270.78,228.84z M237.88,206.72
		c9.34,1.16,21.78,8.34,29,12.97c-3.99-14.6-19.3-20.77-25.39-22.69L237.88,206.72z"/>
	<path class="st16" d="M227.19,218.37c0,0,22.58,1.4,25.02,31.05c0,0-18.33-19.48-38.1-19.96L227.19,218.37z"/>
	<path class="st16" d="M252.2,252.37c-0.8,0-1.58-0.32-2.15-0.93c-0.17-0.18-17.74-18.59-36.02-19.03
		c-1.23-0.03-2.31-0.81-2.72-1.98c-0.41-1.16-0.06-2.44,0.88-3.24l13.08-11.08c0.58-0.49,1.35-0.77,2.1-0.69
		c0.25,0.02,25.16,1.93,27.78,33.76c0.1,1.25-0.59,2.43-1.74,2.95C253.01,252.28,252.6,252.37,252.2,252.37z M221.15,227.35
		c10.91,2.36,20.65,9.08,26.72,14.09c-4.28-16.08-16.05-19.34-19.77-19.98L221.15,227.35z"/>
	<path class="st16" d="M186.65,134.93c0,0,14.54-13.02,8.31-48.46h-11.47c0,0,2.62,29.97-10.15,48.46
		C173.34,134.93,178.16,152.84,186.65,134.93z"/>
	<path class="st16" d="M179.46,145.85c-0.18,0-0.37-0.01-0.56-0.02c-5.55-0.5-7.98-8.52-8.41-10.13c-0.23-0.84-0.08-1.73,0.42-2.45
		c12-17.37,9.66-46.23,9.64-46.52c-0.07-0.83,0.21-1.64,0.77-2.25c0.56-0.61,1.35-0.96,2.18-0.96h11.46c1.44,0,2.66,1.03,2.91,2.44
		c5.88,33.45-6.15,48-8.78,50.72C187.1,140.79,184.01,145.85,179.46,145.85z M176.59,135.39c0.86,2.4,2.18,4.43,2.84,4.54
		c0.01,0,1.73-0.34,4.54-6.27c0.17-0.35,0.4-0.66,0.69-0.92c0.2-0.19,12.54-12.13,7.79-43.31h-5.82
		C186.92,97.66,186.65,119.73,176.59,135.39z"/>
	<circle class="st1" cx="191.52" cy="68.77" r="18.18"/>
	<path class="st16" d="M191.52,89.91c-11.66,0-21.14-9.48-21.14-21.14s9.48-21.14,21.14-21.14c11.66,0,21.14,9.48,21.14,21.14
		S203.18,89.91,191.52,89.91z M191.52,53.54c-8.39,0-15.22,6.83-15.22,15.22s6.83,15.23,15.22,15.23c8.39,0,15.22-6.83,15.22-15.23
		S199.91,53.54,191.52,53.54z"/>
	<path class="st16" d="M36.97,131.87c-14.16,1.18-24.89-6.25-29.48-20.02c-2.5-7.51-2.67-15.06,0.08-22.53
		c2.29-6.21,6.1-11.75,9.28-17.46c3.81,5.47,7.63,11.05,11.44,16.57c1.02,1.47,12.17,15.26,11.43,16.56c0,0,14.38-25.15,14.39-25.17
		c-0.45,0.79,3.57,8.36,3.93,9.39c2.27,6.51,4.06,13.57,3.71,20.52c-0.66,13-11.67,20.72-23.8,22.06
		C37.62,131.81,37.29,131.85,36.97,131.87z"/>
	<path class="st16" d="M34.12,134.95c-13.87,0-24.76-8.11-29.44-22.16c-2.81-8.44-2.77-16.68,0.12-24.5
		c1.75-4.74,4.3-9.05,6.77-13.22c0.92-1.55,1.83-3.1,2.7-4.66c0.5-0.89,1.42-1.46,2.43-1.51c1.07-0.11,1.99,0.42,2.58,1.26
		c2.61,3.75,5.23,7.55,7.84,11.34l3.6,5.23c0.2,0.29,0.84,1.1,1.7,2.21c3.41,4.41,5.79,7.56,7.39,9.89
		c8.55-14.96,10.91-19.08,11.61-20.28c0.03-0.08,0.08-0.16,0.12-0.24l0.01,0.01c0.14-0.24,0.16-0.27,0.18-0.3
		c0.94-1.26,2.68-1.57,4-0.69c0.89,0.58,1.36,1.58,1.33,2.58c0.35,1.16,1.9,4.34,2.59,5.74c0.6,1.24,1.06,2.22,1.18,2.56
		c2.95,8.47,4.18,15.35,3.86,21.64c-0.76,15.24-13.82,23.46-26.42,24.85l-1.06,0.1C36.17,134.9,35.14,134.95,34.12,134.95z
		 M17.08,77.38c-0.14,0.24-0.28,0.47-0.42,0.72c-2.33,3.94-4.75,8.01-6.31,12.25c-2.4,6.53-2.42,13.45-0.05,20.58
		c4.17,12.49,13.91,19.05,26.42,18c0.02,0,0.03-0.01,0.04-0.01l0.8-0.08c10.18-1.12,20.64-7.51,21.23-19.28
		c0.28-5.5-0.85-11.66-3.54-19.39c-0.12-0.28-0.47-1.01-0.92-1.92c-0.27-0.55-0.52-1.07-0.76-1.57c-4.23,7.39-11.3,19.75-11.3,19.75
		c0,0.01,0,0.01,0,0.01c-0.82,1.42-2.62,1.89-4.04,1.09c-0.91-0.53-1.44-1.46-1.48-2.44c-1.04-2.24-7-9.93-9.02-12.53
		c-0.96-1.24-1.66-2.14-1.88-2.47l-3.61-5.24C20.52,82.37,18.8,79.86,17.08,77.38z"/>
	<circle class="st2" cx="108.48" cy="68.77" r="10.44"/>
	<circle class="st2" cx="191.52" cy="68.77" r="10.44"/>
</g>
</svg>
