<?xml version="1.0" encoding="utf-8"?>
<!-- Generator: Adobe Illustrator 23.1.1, SVG Export Plug-In . SVG Version: 6.00 Build 0)  -->
<svg version="1.1" id="Layer_1" xmlns="http://www.w3.org/2000/svg" xmlns:xlink="http://www.w3.org/1999/xlink" x="0px" y="0px"
	 viewBox="0 0 300 300" style="enable-background:new 0 0 300 300;" xml:space="preserve">
<style type="text/css">
	.st0{fill:#E1617C;}
	.st1{fill:#F7ADA5;}
	.st2{fill:#2B2341;}
	.st3{fill:#FBD7D4;}
</style>
<g>
	<path class="st0" d="M50.19,177.66c0,0-3.49,9.28-16.21,7.42c0,0,7.62,3.17,10.61,7.46c5.43,7.79,14.96,1.42,21.78,4.92
		c2.95,1.52,4.56,4.8,6.82,7.27c3.5,3.82,8.88,5.72,13.93,4.91c6.04-0.97,11.54-5.51,17.6-4.64c7.76,1.11,12.29,10.51,19.97,12.07
		c8.13,1.65,16-6.18,24.13-4.49c5.9,1.23,10.28,7.26,16.29,7.56c8.17,0.4,13.37-9.68,21.37-11.36c5.5-1.16,10.89,1.88,15.87,4.54
		s10.92,5.04,16.02,2.66c4.17-1.95,6.47-6.5,9.61-9.92c4.54-4.96,7.88-3.05,13.35-2.67c4.59,0.32,8.34-1.99,11.8-4.86
		c5.07-4.21,9.41-9.84,12.88-15.49c0,0-20.51,0.43-24.89-4.54C236.73,173.52,50.19,177.66,50.19,177.66z"/>
</g>
<g>
	<path class="st1" d="M246.53,180.48c0.14-2.05,0.23-4.11,0.23-6.19c0-52.16-43.95-94.45-98.16-94.45s-98.16,42.28-98.16,94.45
		c0,1.8,0.06,3.58,0.17,5.35C81.14,191.1,161.69,214.26,246.53,180.48z"/>
</g>
<g>
	
		<ellipse transform="matrix(0.2976 -0.9547 0.9547 0.2976 -72.0832 215.7824)" class="st2" cx="110.6" cy="156.88" rx="12.1" ry="9.36"/>
</g>
<g>
	
		<ellipse transform="matrix(0.9547 -0.2976 0.2976 0.9547 -38.2259 62.6462)" class="st2" cx="186.62" cy="156.86" rx="9.36" ry="12.1"/>
</g>
<g>
	<circle class="st3" cx="90.07" cy="171.75" r="10.94"/>
</g>
<g>
	<circle class="st3" cx="207.15" cy="171.75" r="10.94"/>
</g>
<g>
	<g>
		<path class="st0" d="M150,169.4c-8.13,0-11.93-11.51-12.09-12c-0.29-0.9,0.2-1.87,1.11-2.16c0.9-0.29,1.87,0.2,2.16,1.11
			c0.87,2.68,4.15,9.62,8.82,9.62c0.95,0,1.72,0.77,1.72,1.72S150.95,169.4,150,169.4z"/>
	</g>
	<g>
		<path class="st0" d="M150,169.4c-0.95,0-1.72-0.77-1.72-1.72s0.77-1.72,1.72-1.72c4.67,0,7.95-6.95,8.82-9.62
			c0.29-0.9,1.26-1.4,2.16-1.11c0.9,0.29,1.4,1.26,1.11,2.16C161.93,157.89,158.13,169.4,150,169.4z"/>
	</g>
</g>
</svg>
