<?xml version="1.0" encoding="utf-8"?>
<!-- Generator: Adobe Illustrator 23.1.1, SVG Export Plug-In . SVG Version: 6.00 Build 0)  -->
<svg version="1.1" id="Layer_1" xmlns="http://www.w3.org/2000/svg" xmlns:xlink="http://www.w3.org/1999/xlink" x="0px" y="0px"
	 viewBox="0 0 300 300" style="enable-background:new 0 0 300 300;" xml:space="preserve">
<style type="text/css">
	.st0{fill:#F4914F;}
	.st1{fill:#FFFFFF;}
	.st2{fill:#2B2341;}
	.st3{fill:#E1617C;}
	.st4{fill:#A93A5C;}
	.st5{fill:#F6BC90;}
	.st6{fill:#F7ADA5;}
	.st7{fill:#57A1CC;}
	.st8{fill:#F49088;}
	.st9{fill:#F9AD58;}
	.st10{fill:#B8693C;}
	.st11{fill:#FAC490;}
	.st12{fill:none;stroke:#2B2341;stroke-width:4;stroke-linecap:round;stroke-miterlimit:10;}
	.st13{fill:#717DA3;}
	.st14{fill:#7393CA;}
	.st15{fill:none;stroke:#F4914F;stroke-width:4;stroke-linecap:round;stroke-miterlimit:10;}
	.st16{fill:#BD426F;}
</style>
<g>
	<g>
		<path class="st5" d="M203.75,92.31c1.06-2.18,3.23-3.55,4.99-5.22c1.66-1.58,3.05-3.61,3.22-5.9c0.15-1.92-0.57-3.79-1.31-5.57
			c-0.95-2.28-2.04-4.71-3.75-6.53c-2.09-2.21-4.36-2.23-6.8-3.63c-0.85-0.49-1.38-1.42-1.6-2.37c-1.16-4.94,4.72-9.08,4.65-14.16
			c-0.03-2.29-1.32-4.41-3.02-5.95c-3.15-2.87-7.77-4.9-11.78-6.18c-2.27-0.72-4.96-1.56-5.69-3.83c-0.57-1.79,0.4-3.69,1.54-5.18
			c2.36-3.08,5.57-5.41,8.08-8.36c2.19-2.58,4.25-6.39,3.38-9.89c-0.8-3.25-4.19-6.32-7.33-3.75c-0.83,0.68-1.1,1.82-1.54,2.8
			c-2.58,5.75-15.92,8.99-21.41,11.36c-5.12,2.21-10.24,4.41-15.39,6.64c-1.08,1.39-9.74,2.52-11.91,3.61
			c-4.06,2.03-7.74,4.81-10.76,8.21c-9.21,10.39-4.72,23.7-12.43,33.53c-6.72,8.57-15.68,19.34-26.77,22c0,0-1.99,12.04,13.43,17.52
			c8.56-9.53,24.37-21.36,38.66-20.48c4.7,0.29,12.16,2.99,13.54,7.99c2.36,8.5-9.43,17.79-16.02,20.71
			c-4.53,2.01-11.63,2.97-10.46,9.51c0.4,2.22,1.85,4.21,1.94,6.46c0.1,2.52-1.54,4.79-3.42,6.46c-2.66,2.37-8.33,5.34-8.6,9.41
			c-0.19,2.93,2.45,5.16,3.8,7.77c2.11,4.07,0.34,7.86-1.11,11.75c-0.89,2.39-1.56,5.02-0.83,7.46c0.68,2.27,2.52,4.06,4.64,5.11
			c3.79,1.88,10.15,0.43,13.05,3.77c1.9,2.19,1.3,5.5,1.69,8.38c1.09,8.07,9.63,11.44,16.81,9.46c2.27-0.6,9.37,18.69,9.9,20.51
			c2.6,8.89,3.03,18.67-1.2,27.15c-3.08,6.17-7.38,11.93-13.07,15.92c-4.45,3.12-9.82,5.07-15.26,4.92
			c-4.64-0.12-9.41-1.92-12.26-5.58c-5.27-6.77,0.31-21.13,10.09-18.09c6.71,2.09,1.77,9.24,5.42,12.99c1.4,1.43,3.8,1.49,5.58,0.58
			c1.78-0.92,3.04-2.6,4.01-4.35c2.59-4.66,3.57-10.47,1.47-15.37c-1.88-4.38-6.03-7.52-10.56-9c-9.14-3-18.15,0.12-24.92,6.18
			c-3.67,3.6-9.7,11.98-6.2,26.15c6,24.27,35.91,34.39,57.22,23.64c2.32-1.17,4.44-2.56,6.42-4.24c7.92-6.7,12.84-16.36,15.28-26.32
			c4-16.35,0.27-31.9-1.79-48.16c-1.47-11.66-2.23-23.6-0.91-35.31c0.41-3.67,1.02-7.37,2.1-10.91c0.18-0.59,0.63-3.01,1.26-3.36
			c4.82-2.62,10.27-4.91,12.19-10.28c2.54-7.12-5.77-13.37-2.92-19.63c1.23-2.7,4.4-3.77,6.91-5.35c4.01-2.54,6.71-7.04,7.07-11.77
			c0.54-7.24-4.68-10.26-7.17-16.17C202.96,97.12,202.69,94.48,203.75,92.31z"/>
		<path class="st5" d="M147,297.88c-6.58,0-13.23-1.42-19.39-4.25c-11.37-5.22-19.18-14.37-21.99-25.76
			c-3.79-15.36,2.71-24.6,6.93-28.74c8.29-7.43,18.35-9.89,27.67-6.82c5.69,1.86,10.14,5.7,12.21,10.51
			c2.26,5.26,1.67,11.9-1.59,17.76c-1.47,2.64-3.15,4.43-5.14,5.45c-3.02,1.56-6.62,1.1-8.77-1.1c-2.32-2.38-2.32-5.42-2.32-7.86
			c0-3.2-0.16-3.87-1.95-4.43c-3.31-1.02-5.43,0.84-6.63,2.58c-2.4,3.47-2.63,8.51-0.5,11.25c2.12,2.73,5.93,4.42,10.18,4.53
			c4.47,0.13,9.38-1.46,13.62-4.43c4.85-3.4,8.95-8.42,12.2-14.91c4.37-8.75,2.97-18.51,1.02-25.17
			c-0.72-2.48-5.61-15.07-7.87-18.34c-4.49,0.88-9.22,0.04-12.85-2.35c-3.37-2.23-5.53-5.67-6.07-9.68
			c-0.12-0.9-0.16-1.84-0.19-2.78c-0.07-1.78-0.12-3.33-0.86-4.17c-1-1.15-3.29-1.4-5.71-1.65c-2.21-0.23-4.49-0.47-6.49-1.47
			c-2.99-1.49-5.19-3.95-6.03-6.76c-1-3.33-0.06-6.66,0.88-9.19l0.37-1c1.39-3.66,2.18-6.04,0.87-8.56
			c-0.37-0.72-0.87-1.4-1.35-2.09c-1.31-1.85-2.94-4.15-2.74-7.11c0.29-4.34,4.21-7.25,7.36-9.58c0.8-0.6,1.56-1.15,2.15-1.68
			c0.97-0.86,2.58-2.57,2.51-4.32c-0.03-0.79-0.39-1.68-0.81-2.72c-0.4-0.99-0.86-2.12-1.08-3.38c-1.35-7.57,5.43-10.02,9.48-11.48
			c0.89-0.32,1.77-0.64,2.56-0.99c6.02-2.67,16.3-11.03,14.5-17.5c-0.96-3.48-7.17-5.76-11.09-6c-12.36-0.72-27.22,9.28-36.47,19.58
			l-1.22,1.35l-1.72-0.61c-13.9-4.93-16.02-15.58-15.21-20.52l0.29-1.78l1.75-0.42c9.95-2.39,18.26-12.11,25.27-21.03
			c3.23-4.12,4.06-9.12,4.95-14.41c1.04-6.19,2.21-13.19,7.58-19.24c3.19-3.59,7.19-6.64,11.58-8.83c1.14-0.57,2.92-0.99,5.71-1.62
			c1.83-0.41,4.88-1.1,5.59-1.54l0.43-0.55l0.31,0.04l15.39-6.64c1.32-0.57,3.07-1.19,5.02-1.88c5.04-1.77,13.48-4.74,14.99-8.1
			l0.24-0.6c0.37-0.93,0.87-2.22,2.05-3.19c1.84-1.51,4.03-1.96,6.15-1.25c2.61,0.86,4.78,3.4,5.54,6.45
			c1.32,5.36-2.32,10.39-3.95,12.31c-1.2,1.42-2.55,2.7-3.91,3.98c-1.51,1.43-2.93,2.77-4.09,4.28c-0.85,1.12-1.28,2.15-1.1,2.7
			c0.29,0.91,2.35,1.57,3.85,2.04c3.84,1.22,9.11,3.37,12.86,6.79c2.48,2.26,3.86,5.07,3.9,7.92c0.05,3.1-1.47,5.72-2.81,8.03
			c-1.23,2.11-2.29,3.94-1.91,5.54c0.09,0.4,0.26,0.61,0.32,0.64c0.76,0.44,1.51,0.71,2.23,0.98c1.61,0.6,3.44,1.29,5.18,3.14
			c2.03,2.15,3.23,4.81,4.29,7.35c0.87,2.09,1.7,4.34,1.51,6.82c-0.21,2.68-1.61,5.33-4.06,7.66c-0.51,0.49-1.05,0.95-1.59,1.4
			c-1.18,1.01-2.3,1.95-2.82,3.03c-0.61,1.25-0.53,3.05,0.21,4.79c0.77,1.82,1.85,3.35,3,4.98c2.25,3.18,4.8,6.79,4.38,12.45
			c-0.41,5.57-3.61,10.88-8.33,13.87c-0.66,0.42-1.37,0.81-2.09,1.2c-1.67,0.91-3.25,1.78-3.8,2.98c-0.88,1.93-0.06,4.02,1.35,7.27
			c1.46,3.37,3.28,7.58,1.65,12.15c-2.05,5.75-7.22,8.47-11.78,10.87l-1.08,0.57c-0.14,0.43-0.3,1.07-0.37,1.35l-0.19,0.74
			c-0.89,2.9-1.52,6.22-2,10.42c-1.12,9.91-0.83,20.93,0.91,34.67c0.38,2.98,0.81,5.95,1.25,8.9c1.91,12.98,3.88,26.39,0.49,40.24
			c-1.98,8.1-6.4,19.49-16.16,27.74c-2.13,1.8-4.4,3.3-6.96,4.59C160.62,296.34,153.85,297.88,147,297.88z M132.24,236.46
			c-5.54,0-11.12,2.27-15.98,6.63c-3.3,3.24-8.52,10.73-5.37,23.47c2.41,9.75,9.15,17.61,18.98,22.13
			c10.93,5.02,24.1,4.92,34.37-0.27c2.17-1.09,4.09-2.36,5.89-3.89c8.65-7.31,12.6-17.57,14.39-24.89
			c3.14-12.81,1.33-25.12-0.58-38.16c-0.44-2.98-0.88-5.98-1.26-9.01c-1.79-14.18-2.08-25.61-0.92-35.96
			c0.51-4.54,1.21-8.16,2.2-11.4c0.61-2.51,1.12-4.17,2.56-4.95l1.74-0.92c4.04-2.13,7.85-4.13,9.19-7.88
			c0.91-2.56-0.22-5.16-1.52-8.17c-1.52-3.49-3.23-7.46-1.31-11.68c1.3-2.86,3.87-4.26,6.14-5.5c0.61-0.33,1.22-0.66,1.78-1.02
			c3.29-2.08,5.52-5.79,5.81-9.68c0.28-3.71-1.35-6-3.4-8.91c-1.21-1.71-2.58-3.65-3.57-6c-1.36-3.22-1.39-6.61-0.09-9.29h0
			c1.02-2.1,2.71-3.53,4.19-4.79c0.46-0.4,0.93-0.79,1.37-1.21c1.02-0.97,2.26-2.47,2.38-4.13c0.1-1.28-0.47-2.78-1.11-4.32
			c-0.86-2.07-1.82-4.23-3.22-5.71c-0.89-0.94-1.83-1.29-3.14-1.78c-0.99-0.37-2-0.76-3.04-1.36c-1.44-0.83-2.47-2.29-2.89-4.11
			c-0.87-3.7,0.92-6.78,2.5-9.51c1.08-1.86,2.1-3.63,2.08-5.23c-0.02-1.31-0.79-2.77-2.13-3.98c-2.36-2.15-6.18-4.14-10.77-5.6
			c-2.71-0.87-6.31-2.02-7.45-5.6c-0.53-1.64-0.61-4.3,1.97-7.66c1.42-1.85,3.07-3.41,4.66-4.92c1.21-1.14,2.42-2.28,3.5-3.55
			c1.75-2.05,3.41-5.1,2.82-7.48c-0.32-1.31-1.27-2.37-1.97-2.6c-0.17-0.06-0.45-0.15-0.99,0.29c-0.11,0.12-0.31,0.63-0.44,0.97
			l-0.35,0.84c-2.46,5.48-11.15,8.55-18.14,11c-1.81,0.64-3.45,1.21-4.67,1.74l-14.96,6.46c-1.26,1.01-3.48,1.59-7.72,2.55
			c-1.64,0.37-3.87,0.88-4.48,1.18c-3.78,1.88-7.21,4.5-9.94,7.58c-4.33,4.88-5.28,10.54-6.28,16.53
			c-0.96,5.73-1.96,11.67-6.04,16.87c-7.13,9.08-15.57,18.94-26.26,22.4c0.18,2.82,1.63,8.64,10.05,12.24
			c9.54-10.08,25.11-20.86,39.57-19.99c5.21,0.32,14.15,3.31,16,9.97c2.98,10.76-10.8,20.93-17.54,23.92
			c-0.9,0.4-1.9,0.76-2.91,1.13c-4.97,1.8-6.45,2.78-5.98,5.42c0.12,0.7,0.44,1.47,0.77,2.29c0.53,1.31,1.14,2.81,1.21,4.55
			c0.12,3-1.38,5.97-4.33,8.6c-0.7,0.62-1.58,1.28-2.53,1.99c-2.13,1.58-5.05,3.74-5.17,5.57c-0.07,1.04,0.78,2.23,1.75,3.62
			c0.63,0.89,1.26,1.79,1.74,2.73c2.49,4.81,0.84,9.16-0.62,12.99l-0.36,0.96c-0.64,1.73-1.31,3.95-0.77,5.73
			c0.41,1.36,1.62,2.65,3.25,3.46c1.12,0.56,2.83,0.74,4.64,0.93c3.21,0.34,6.84,0.72,9.25,3.49c2,2.29,2.1,5.21,2.18,7.54
			c0.03,0.76,0.05,1.52,0.15,2.25c0.42,3.13,2.24,4.92,3.68,5.88c2.65,1.75,6.37,2.25,9.72,1.33c6.16-1.64,13.16,22.13,13.23,22.37
			c3.18,10.88,2.7,20.95-1.38,29.12c-3.66,7.31-8.34,13-13.94,16.93c-5.19,3.64-11.18,5.58-16.89,5.42
			c-5.86-0.15-11.22-2.63-14.33-6.64c-3.6-4.62-3.46-12.22,0.32-17.68c3.08-4.44,7.83-6.19,12.72-4.68
			c5.77,1.79,5.77,6.69,5.78,9.62c0,2.03,0.05,3.32,0.78,4.07c0.45,0.47,1.55,0.49,2.39,0.06c1-0.52,1.94-1.58,2.88-3.26
			c2.45-4.39,2.95-9.24,1.34-12.97c-1.43-3.33-4.76-6.13-8.91-7.5C136.46,236.8,134.36,236.46,132.24,236.46z"/>
	</g>
	<g>
		<ellipse class="st2" cx="143.77" cy="61.34" rx="6.25" ry="8"/>
	</g>
	<path class="st15" d="M127.29,133.79c0,0,2.56,5.54,17.83,5.54"/>
	<path class="st15" d="M120.31,161.65c0,0,2.56,5.54,17.83,5.54"/>
	<path class="st15" d="M172.39,121.83c0,0,18.49-4.67,18.53-4.68c1.27-0.32,2.87,3.11,3.21,3.79c1.18,2.38,1.19,4.48-0.46,6.69
		c-1.17,1.57-2.75,2.92-3.75,4.58c-1.63,2.72-1.44,6.2,0.47,8.86c0.89,1.24,2.11,2.29,3.05,3.5c1.97,2.52,1.19,5.17,0.28,7.84
		c-1.07,3.14-3.29,5.27-7.11,6.15l-16.63-6.9"/>
</g>
</svg>
