<?xml version="1.0" encoding="utf-8"?>
<!-- Generator: Adobe Illustrator 23.1.1, SVG Export Plug-In . SVG Version: 6.00 Build 0)  -->
<svg version="1.1" id="Layer_1" xmlns="http://www.w3.org/2000/svg" xmlns:xlink="http://www.w3.org/1999/xlink" x="0px" y="0px"
	 viewBox="0 0 300 300" style="enable-background:new 0 0 300 300;" xml:space="preserve">
<style type="text/css">
	.st0{fill:#F4914F;}
	.st1{fill:#FFFFFF;}
	.st2{fill:#2B2341;}
	.st3{fill:#E1617C;}
	.st4{fill:#A93A5C;}
	.st5{fill:#F6BC90;}
	.st6{fill:#F7ADA5;}
	.st7{fill:#57A1CC;}
	.st8{fill:#F49088;}
	.st9{fill:#F9AD58;}
	.st10{fill:#B8693C;}
	.st11{fill:#FAC490;}
	.st12{fill:none;stroke:#2B2341;stroke-width:4;stroke-linecap:round;stroke-miterlimit:10;}
	.st13{fill:#717DA3;}
	.st14{fill:#7393CA;}
	.st15{fill:none;stroke:#F4914F;stroke-width:4;stroke-linecap:round;stroke-miterlimit:10;}
	.st16{fill:#BD426F;}
</style>
<g>
	<g>
		<path class="st0" d="M274.88,148.32c-15.03-10.98-48.43-18.5-56.08-36.7c-4.78-11.37,2.89-23.04,6.05-33.75
			c3.64-12.33,5.6-25.4,6.34-38.21c0.32-5.58,0.03-11.98-4.26-15.55c-13.53-11.25-36.38,12.06-45.06,20.36
			c-11.1,10.61-28.12,39.16-44.04,41.24c-2.34,0.31-4.86,0.04-7.6-1.1C113.13,77.49,100.66,61.48,83,54.85
			c-6.86-2.58-14.59-4.7-19.14,2.5c-7.56,11.94,9.17,30.7,15.06,39.99c6.78,10.7,12.11,24.26,6.77,35.74
			c-3.45,7.4-10.66,12.29-17.94,16c-2.15,1.1-4.28,2.22-6.39,3.36c-14.9,8.06-30.07,17.03-41.04,30.18
			c-3.06,3.67-5.95,8.58-4.04,12.96c8.86,20.28,64.67,3.62,79.26,0.74c7.44-1.47,15.22-2.69,22.51-0.61
			c34.12,9.74,31.29,54.21,52.32,75.76c4.74,4.86,12.4,7.55,18.49,4.55c5.15-2.53,7.81-8.25,9.71-13.66
			c4.84-13.77,7.26-28.38,7.13-42.98c-0.27-29.06,7.48-41.66,37.77-45.53c10.96-1.4,22.12-1.72,32.82-4.47
			C290.57,165.7,283.04,154.27,274.88,148.32z"/>
		<path class="st0" d="M183.3,282.63c-5.89,0-12.07-2.61-16.76-7.41c-9.07-9.29-13.94-22.08-18.64-34.44
			c-6.8-17.87-13.22-34.74-31.32-39.9c-6.14-1.75-13.24-0.61-19.98,0.72c-1.94,0.39-4.62,1.02-7.83,1.78
			c-23.76,5.57-67.95,15.99-77.41-5.64c-1.67-3.83-2.2-10.15,4.84-18.56C28,165.01,44.38,155.5,58.8,147.7
			c2.15-1.16,4.32-2.3,6.5-3.42c8.26-4.22,13.19-8.5,15.51-13.47c4.53-9.74-1-22-6.44-30.59c-0.99-1.56-2.3-3.39-3.74-5.42
			c-7.76-10.93-19.5-27.43-11.33-40.35c7.3-11.51,20.11-6.72,25.59-4.65c9.9,3.71,18.08,10,26,16.07
			c7.1,5.45,13.8,10.59,21.39,13.75c1.7,0.72,3.24,0.97,4.84,0.74c9.05-1.19,20.73-15.67,29.27-26.24
			c4.21-5.23,8.19-10.16,11.74-13.55l1.39-1.34c10.24-9.89,34.28-33.04,50.84-19.28c6.21,5.17,6.57,13.41,6.19,20
			c-0.81,14.22-3.02,27.49-6.54,39.43c-0.83,2.83-1.96,5.72-3.11,8.65c-3.02,7.71-5.87,14.99-3.13,21.49
			c4.19,9.97,19.5,16.98,33,23.16c8.05,3.68,15.65,7.16,21.29,11.29c6.49,4.73,12.89,12.52,11.43,20.15
			c-0.68,3.55-3.29,8.26-11.85,10.45c-7.81,2.01-15.79,2.79-23.5,3.52c-3.32,0.33-6.66,0.65-9.97,1.07
			c-26.22,3.34-33.33,11.98-33.08,40.13c0.15,15.29-2.36,30.36-7.44,44.82c-2.09,5.96-5.4,13.25-12.41,16.7
			C188.8,282.04,186.09,282.63,183.3,282.63z M109.51,189.18c3.32,0,6.68,0.38,10.03,1.34c23.29,6.64,31.32,27.78,38.42,46.42
			c4.51,11.85,8.77,23.07,16.27,30.74c3.04,3.11,8.35,5.42,12.26,3.49c3.51-1.74,5.58-6.58,7-10.62c4.66-13.26,6.96-27.1,6.83-41.13
			c-0.26-28.79,6.61-46.34,42.48-50.93c3.43-0.43,6.87-0.77,10.31-1.1c7.63-0.74,14.84-1.43,21.84-3.24
			c2.73-0.69,3.87-1.63,3.95-2.05c0.29-1.53-2.3-5.85-7.2-9.43l0,0c-4.75-3.47-11.87-6.73-19.42-10.18
			c-15.3-6.99-32.64-14.93-38.45-28.78c-4.44-10.53-0.46-20.66,3.04-29.59c1.03-2.64,2.06-5.24,2.81-7.77
			c3.29-11.15,5.35-23.59,6.12-36.99c0.21-3.75,0.2-9-2.33-11.12c-9.18-7.6-29,11.55-36.49,18.76l-1.41,1.36
			c-3.05,2.91-6.82,7.58-10.8,12.53c-10.75,13.32-22.94,28.41-36.25,30.16c-3.47,0.44-6.97-0.04-10.38-1.48
			c-8.89-3.69-16.47-9.51-23.8-15.13c-7.64-5.86-14.84-11.39-23.23-14.55c-8.53-3.21-10.97-2.39-12.69,0.34
			c-4.31,6.8,5.27,20.29,11,28.34c1.57,2.2,2.99,4.2,4.06,5.89c9.85,15.54,12.32,29.69,7.1,40.89
			c-4.46,9.56-13.77,15.15-20.37,18.52c-2.11,1.07-4.21,2.18-6.28,3.3c-13.55,7.32-28.88,16.21-39.46,28.88
			c-2.62,3.12-3.85,5.94-3.24,7.35c5.86,13.39,48.88,3.27,65.07-0.54c3.37-0.79,6.18-1.45,8.21-1.85
			C99.36,190.05,104.4,189.18,109.51,189.18z"/>
	</g>
	<circle class="st5" cx="167.5" cy="76.15" r="8.47"/>
	<circle class="st5" cx="118.9" cy="113.06" r="5.85"/>
	<circle class="st5" cx="167.5" cy="128.87" r="6.86"/>
	<circle class="st5" cx="109.93" cy="162.97" r="8.97"/>
	<circle class="st5" cx="41.91" cy="179" r="4.92"/>
	<circle class="st5" cx="160.85" cy="201.79" r="6.65"/>
	<circle class="st5" cx="186.46" cy="239.5" r="4.03"/>
	<circle class="st5" cx="185.35" cy="115.98" r="2.92"/>
	<circle class="st5" cx="211.14" cy="123.89" r="4.98"/>
	<circle class="st5" cx="195.13" cy="162.97" r="6.86"/>
	<circle class="st5" cx="231.33" cy="156.51" r="6.01"/>
	<circle class="st5" cx="100.95" cy="81.7" r="2.92"/>
</g>
</svg>
